<?xml version="1.0" standalone="no"?>
<!DOCTYPE svg PUBLIC "-//W3C//DTD SVG 20010904//EN"
 "http://www.w3.org/TR/2001/REC-SVG-20010904/DTD/svg10.dtd">
<svg  version="1.0" width="160px" height="160px" xmlns="http://www.w3.org/2000/svg"
 viewBox="0 0 1604.000000 1790.000000"
 preserveAspectRatio="xMidYMid meet">

<g transform="translate(0.000000,1790.000000) scale(0.100000,-0.100000)"
fill="#000000" stroke="none">
<path d="M4345 17863 c-11 -10 -31 -35 -43 -55 -21 -34 -23 -47 -19 -130 3
-63 11 -112 26 -153 22 -58 166 -287 222 -352 14 -17 48 -72 73 -122 25 -50
61 -115 80 -144 18 -28 59 -101 91 -162 32 -60 74 -135 95 -165 20 -30 50 -75
66 -98 16 -24 40 -63 54 -87 14 -24 41 -69 60 -101 19 -32 44 -74 55 -93 62
-107 108 -181 121 -192 8 -6 14 -17 14 -23 0 -7 28 -57 61 -111 34 -55 68
-113 75 -130 8 -16 32 -57 53 -90 22 -33 51 -80 66 -105 14 -24 40 -63 56 -85
40 -53 159 -255 159 -270 0 -6 4 -15 9 -21 5 -5 25 -38 44 -74 19 -36 53 -94
76 -130 23 -36 96 -171 161 -300 65 -129 139 -266 163 -305 137 -220 245 -402
270 -456 90 -191 95 -224 49 -310 -61 -114 -124 -197 -190 -250 -48 -38 -150
-157 -175 -204 -20 -40 -44 -60 -157 -135 -130 -87 -158 -104 -210 -132 -25
-13 -70 -39 -100 -58 -30 -19 -68 -42 -84 -50 -40 -21 -123 -108 -155 -163
-53 -92 -87 -141 -158 -219 -40 -44 -76 -94 -81 -111 -23 -76 -41 -190 -47
-287 -4 -87 -9 -110 -28 -136 -34 -48 -112 -114 -212 -178 -49 -32 -110 -72
-135 -89 -25 -17 -65 -44 -90 -61 -25 -16 -70 -52 -101 -80 -31 -28 -77 -64
-103 -81 -26 -16 -72 -47 -104 -67 -31 -21 -80 -52 -109 -70 -28 -18 -91 -60
-139 -93 -48 -33 -108 -73 -133 -88 -59 -37 -175 -149 -212 -206 -44 -68 -41
-136 11 -238 22 -43 40 -86 40 -96 0 -10 9 -36 20 -57 15 -30 23 -75 31 -176
14 -175 2 -268 -46 -371 -19 -41 -35 -81 -35 -89 0 -8 13 -44 29 -79 26 -57
37 -69 93 -105 35 -22 122 -70 193 -106 72 -36 168 -88 214 -117 46 -29 111
-64 144 -77 33 -14 112 -49 176 -79 64 -29 139 -60 166 -68 28 -8 59 -18 70
-23 41 -18 152 -60 159 -60 4 0 44 -17 89 -38 45 -22 100 -45 122 -52 22 -7
45 -17 52 -22 6 -5 55 -24 110 -43 120 -41 160 -57 243 -100 36 -18 107 -49
159 -70 52 -20 158 -69 235 -108 138 -69 143 -71 236 -77 53 -4 112 -14 134
-23 21 -9 46 -17 55 -17 9 0 61 -23 116 -52 55 -28 116 -59 135 -69 45 -23
144 -49 190 -49 19 0 55 -9 79 -20 24 -11 47 -20 53 -20 5 0 52 -24 105 -52
96 -53 181 -125 207 -176 21 -42 38 -246 26 -317 -5 -33 -10 -78 -10 -100 -1
-22 -7 -56 -14 -75 -18 -47 -121 -271 -156 -340 -16 -30 -69 -135 -119 -234
-50 -98 -91 -185 -91 -193 0 -37 -59 -184 -124 -310 -100 -194 -82 -186 -421
-181 -221 3 -265 6 -292 21 -17 9 -67 21 -110 26 -43 4 -93 16 -110 25 -19 9
-56 16 -92 16 -37 0 -82 8 -113 20 -45 17 -77 20 -223 20 -135 0 -187 4 -253
20 -67 16 -118 20 -265 20 -135 0 -197 4 -237 16 -30 8 -109 20 -175 25 -66 6
-146 19 -178 30 -42 14 -85 19 -165 19 -85 0 -116 5 -151 20 -33 15 -65 20
-132 20 -61 0 -107 6 -146 19 -32 11 -97 21 -144 24 -47 2 -98 11 -115 20 -21
11 -77 16 -214 19 -144 4 -195 9 -230 23 -25 10 -90 21 -145 25 -63 4 -112 13
-133 24 -20 10 -66 19 -120 22 -51 3 -106 14 -134 25 -35 14 -71 19 -146 19
-78 0 -109 4 -143 20 -36 16 -66 20 -167 20 -98 0 -133 4 -170 19 -26 11 -79
22 -119 25 -39 2 -84 11 -100 19 -15 8 -53 18 -83 22 -30 4 -67 13 -81 21 -15
7 -53 17 -85 23 -33 5 -72 16 -89 25 -16 9 -49 16 -71 16 -23 0 -61 9 -85 20
-39 17 -66 20 -222 20 -136 0 -186 4 -214 15 -20 9 -71 18 -112 22 -42 3 -98
14 -124 24 -36 14 -74 19 -155 19 -59 0 -124 5 -145 11 -28 8 -59 7 -110 -1
-106 -17 -117 -23 -117 -64 0 -33 18 -53 239 -271 131 -130 255 -248 275 -261
89 -60 257 -138 326 -150 19 -3 56 -14 82 -25 32 -13 71 -19 122 -19 52 0 91
-6 126 -20 28 -11 72 -20 99 -20 26 0 70 -7 97 -16 27 -9 94 -22 149 -29 55
-7 118 -20 140 -29 33 -13 97 -15 380 -16 317 0 343 -2 384 -20 29 -14 65 -20
112 -20 42 0 88 -7 121 -19 34 -13 90 -21 158 -24 64 -3 119 -11 142 -21 30
-13 88 -16 325 -19 241 -3 295 -6 332 -20 24 -9 60 -17 81 -17 20 0 59 -7 86
-16 46 -15 103 -29 279 -69 39 -9 88 -22 110 -30 22 -7 57 -16 77 -20 20 -3
50 -12 65 -20 15 -8 46 -15 68 -15 22 0 72 -9 110 -20 63 -18 100 -20 375 -20
248 0 316 -3 360 -16 30 -8 83 -19 117 -24 55 -8 107 -26 180 -62 22 -11 36
-54 25 -74 -12 -20 -170 -192 -297 -324 -67 -69 -133 -141 -148 -161 -37 -51
-109 -121 -187 -184 -152 -121 -447 -414 -540 -535 -32 -41 -88 -106 -125
-145 -37 -38 -87 -99 -110 -135 -60 -93 -406 -440 -471 -473 -27 -14 -66 -43
-85 -64 -38 -42 -39 -47 -70 -278 -10 -77 -44 -187 -76 -250 -8 -16 -19 -57
-23 -91 -7 -57 -71 -205 -105 -244 -7 -8 -25 -43 -39 -77 l-26 -62 20 -62 c26
-82 26 -187 0 -262 -11 -31 -20 -74 -20 -94 0 -21 -8 -54 -19 -73 -10 -19 -21
-51 -25 -71 -3 -19 -15 -53 -26 -74 -11 -22 -20 -47 -20 -57 0 -10 -9 -35 -20
-55 -11 -21 -20 -49 -20 -63 0 -14 -7 -38 -15 -53 -8 -16 -20 -47 -25 -70 -13
-49 -44 -134 -71 -193 -11 -23 -19 -51 -19 -63 0 -11 -9 -38 -20 -58 -13 -25
-20 -57 -20 -98 -1 -33 -8 -78 -16 -100 -9 -22 -21 -65 -28 -95 -20 -85 -90
-194 -185 -288 -46 -46 -96 -89 -110 -96 -30 -13 -123 -82 -189 -141 -50 -44
-92 -126 -92 -178 0 -23 8 -41 28 -59 38 -36 127 -75 189 -82 28 -4 69 -14 89
-22 31 -13 82 -16 285 -15 226 0 251 2 310 22 35 12 76 33 92 47 30 28 71 110
82 163 11 53 107 254 170 359 52 84 136 174 205 218 30 19 78 54 105 77 28 24
59 45 70 49 11 3 34 19 50 34 17 15 59 48 95 72 72 47 248 222 289 285 14 22
40 58 57 80 18 22 49 74 70 115 20 41 52 93 71 116 18 23 33 46 33 51 0 6 8
21 18 34 10 13 49 81 85 152 90 172 136 238 244 351 51 53 100 110 109 128 36
72 128 200 166 233 69 59 170 57 215 -4 12 -15 26 -52 31 -82 13 -67 47 -148
70 -165 38 -29 82 11 137 125 44 88 84 123 255 219 224 125 413 210 530 237
30 7 79 20 109 29 39 11 96 16 200 16 80 1 166 5 191 11 25 5 74 14 110 20
179 28 286 69 390 147 19 15 52 38 72 52 21 14 191 176 379 360 187 184 366
352 398 372 58 38 208 97 247 98 12 0 39 8 60 17 27 11 69 17 134 17 97 1 114
-3 290 -66 131 -47 159 -56 230 -78 70 -22 170 -65 296 -127 57 -27 129 -83
167 -129 45 -54 77 -107 77 -128 1 -12 9 -39 20 -61 11 -22 19 -54 20 -72 0
-18 8 -54 19 -80 14 -36 20 -85 24 -193 3 -89 11 -160 19 -185 12 -32 16 -138
22 -514 6 -433 9 -477 26 -524 13 -33 22 -90 26 -166 4 -71 13 -130 22 -151
14 -29 17 -101 22 -445 5 -355 8 -416 23 -454 9 -24 17 -68 17 -98 0 -85 58
-183 108 -183 30 0 92 37 92 55 0 7 5 15 11 17 5 2 11 10 12 19 2 8 13 32 25
52 12 21 25 49 28 62 3 13 12 26 20 29 8 3 14 11 14 19 0 16 33 84 57 116 18
23 72 140 119 255 13 33 32 69 42 80 21 24 46 89 62 159 13 60 14 335 1 368
-5 15 -12 95 -16 180 -6 139 -10 164 -42 259 -74 225 -82 270 -88 502 -4 117
-12 245 -18 283 -13 78 -15 560 -2 662 12 96 57 132 149 119 30 -5 52 -16 74
-39 34 -36 152 -260 208 -395 20 -48 42 -98 50 -112 32 -59 62 -139 74 -195
12 -58 46 -182 75 -275 28 -91 126 -376 135 -395 6 -11 19 -55 30 -97 11 -43
28 -111 39 -150 10 -40 22 -98 26 -128 4 -30 18 -81 30 -112 13 -31 26 -70 30
-87 3 -16 13 -35 21 -42 8 -6 14 -20 14 -30 0 -10 8 -45 19 -76 10 -32 24 -87
30 -123 13 -71 17 -84 56 -210 27 -85 108 -259 157 -335 14 -22 49 -64 78 -92
77 -78 120 -70 173 33 28 53 85 235 111 349 16 74 44 171 71 245 11 31 17 83
18 170 l2 125 -73 219 c-40 120 -80 232 -88 248 -14 27 -46 126 -80 248 -9 30
-37 107 -63 170 -27 63 -65 168 -86 233 -21 65 -53 141 -71 170 -29 45 -116
215 -159 312 -38 83 -65 185 -65 241 0 67 27 136 58 153 12 6 75 11 146 11
102 0 135 -4 176 -20 28 -11 64 -20 81 -20 27 0 54 -9 159 -52 160 -66 294
-118 303 -118 14 0 216 -90 284 -127 27 -14 176 -91 333 -170 660 -336 758
-420 954 -818 46 -93 67 -149 92 -246 7 -31 21 -69 29 -85 8 -16 15 -39 15
-52 0 -12 9 -40 20 -62 11 -22 20 -49 20 -61 0 -12 8 -40 19 -63 10 -23 23
-59 29 -81 21 -82 53 -159 132 -322 159 -326 222 -448 285 -543 23 -36 47 -74
53 -85 5 -11 44 -58 86 -105 42 -47 76 -88 76 -93 0 -4 22 -38 48 -75 27 -37
58 -83 70 -102 42 -70 120 -236 127 -270 4 -19 13 -44 20 -55 7 -11 16 -36 20
-55 4 -19 18 -59 31 -88 13 -29 24 -56 25 -60 1 -18 69 -99 99 -119 31 -22 43
-23 201 -23 145 0 175 3 219 20 28 11 74 20 103 20 135 0 236 116 182 210 -8
14 -14 36 -15 50 0 14 -8 42 -19 63 -10 20 -22 54 -26 74 -4 21 -13 49 -21 63
-14 25 -43 106 -68 190 -14 46 -20 66 -51 155 -9 28 -23 79 -31 114 -8 35 -21
76 -29 92 -8 15 -15 38 -15 51 0 13 -9 43 -20 67 -11 24 -20 59 -20 78 0 19
-9 55 -19 81 -12 29 -21 81 -24 133 -3 47 -10 96 -17 109 -7 12 -18 59 -26
103 -8 44 -19 86 -25 93 -5 7 -14 48 -19 91 -4 43 -15 95 -24 115 -14 33 -16
122 -16 805 l0 767 -26 37 c-33 48 -47 57 -239 153 l-160 79 -113 116 c-63 64
-123 134 -134 155 -26 50 -213 243 -268 276 -23 14 -63 41 -89 61 -26 20 -58
40 -71 44 -13 4 -81 64 -152 134 -71 69 -149 138 -174 152 -25 15 -57 38 -72
51 -15 14 -81 60 -147 103 -140 92 -135 87 -204 187 -51 75 -53 79 -64 178 -8
74 -8 118 0 168 10 59 17 71 50 100 33 29 43 33 76 28 93 -15 111 -30 363
-293 146 -153 164 -163 305 -163 91 0 116 4 185 29 109 40 235 107 297 159 29
24 75 58 102 76 64 42 208 184 231 227 9 19 34 55 55 80 22 26 39 51 39 56 0
6 15 30 33 54 105 138 122 234 66 376 -109 278 -200 395 -372 480 -47 24 -106
47 -130 52 -24 6 -56 17 -73 26 -16 8 -40 15 -54 15 -14 0 -45 9 -69 20 -24
11 -50 20 -57 20 -8 0 -45 15 -82 34 -51 26 -93 60 -174 144 -60 60 -108 114
-108 119 0 24 -78 108 -134 144 -93 60 -212 175 -273 264 -31 44 -87 143 -125
220 -39 76 -90 168 -114 205 -82 123 -139 201 -186 255 -26 30 -55 69 -64 87
-9 18 -41 59 -70 91 -29 33 -60 74 -69 93 -8 18 -20 36 -26 39 -16 10 -108
154 -142 220 -35 69 -103 178 -217 344 -28 41 -68 109 -89 150 -21 42 -61 119
-88 171 -49 92 -51 99 -68 240 -17 142 -17 147 3 264 19 109 24 124 66 185 25
37 58 93 73 126 l28 60 3 268 c3 243 1 277 -17 357 -12 48 -21 103 -21 122 0
19 -8 59 -17 89 -11 34 -17 89 -17 149 -1 91 1 98 31 146 39 61 111 130 176
171 65 40 154 128 161 159 12 48 -30 113 -109 166 -96 65 -104 84 -76 185 39
146 27 202 -63 299 -36 38 -79 98 -97 134 l-32 65 14 70 c20 95 10 135 -57
231 -72 104 -92 148 -103 226 -14 100 -61 182 -124 214 -31 17 -105 12 -178
-12 -86 -28 -272 -52 -416 -53 -111 -2 -153 -6 -197 -21 -30 -11 -61 -20 -67
-20 -12 0 -118 -52 -238 -116 -71 -38 -95 -41 -146 -20 -46 20 -64 51 -74 132
-14 119 1 192 69 328 101 203 114 307 44 348 -40 23 -170 55 -259 63 -85 8
-210 31 -247 46 -31 13 -37 39 -13 59 8 7 15 19 15 27 0 7 7 25 16 38 20 30
70 41 269 55 139 10 158 10 244 -9 61 -14 105 -29 127 -46 18 -14 37 -25 43
-25 5 0 22 -10 38 -23 15 -13 51 -33 78 -44 44 -19 65 -21 174 -17 68 2 128 7
134 11 6 4 120 10 252 14 132 5 258 13 280 18 22 6 135 15 250 21 116 6 248
17 295 25 57 10 155 15 300 15 142 1 242 6 295 15 44 8 110 15 147 15 37 0 82
7 100 15 18 8 52 19 75 25 52 13 93 59 93 105 0 20 -12 51 -33 81 -27 42 -46
56 -126 96 -100 49 -212 83 -325 98 -39 5 -81 14 -95 19 -15 6 -57 17 -96 26
-38 9 -123 42 -190 74 -66 32 -145 68 -175 81 -30 12 -70 28 -88 36 -19 8 -73
30 -120 48 -167 66 -187 82 -516 405 -98 97 -202 208 -231 247 -29 39 -107
126 -173 195 -66 68 -146 160 -180 204 -33 44 -103 125 -155 180 -53 55 -123
143 -157 195 -35 52 -69 104 -76 115 -8 11 -31 45 -51 75 -21 30 -60 82 -88
115 -90 105 -116 150 -126 218 -21 146 -6 243 75 492 20 61 36 118 36 127 0
36 -44 132 -77 169 -22 24 -72 57 -138 89 -125 62 -171 68 -255 29 -47 -22
-60 -34 -83 -78 -26 -51 -27 -58 -27 -219 0 -137 -4 -180 -20 -237 -11 -38
-20 -79 -20 -90 0 -38 -62 -140 -125 -205 -34 -36 -77 -87 -95 -115 -48 -72
-69 -94 -120 -120 -25 -13 -78 -54 -119 -92 -41 -37 -86 -77 -101 -88 -26 -20
-79 -77 -116 -125 -49 -64 -148 -149 -258 -222 -67 -44 -132 -90 -146 -103
-14 -13 -61 -42 -105 -65 -44 -23 -102 -59 -130 -80 -66 -49 -125 -87 -205
-128 -36 -19 -85 -49 -109 -68 -60 -46 -477 -254 -510 -254 -6 0 -28 -9 -48
-20 -21 -11 -43 -20 -50 -20 -7 0 -30 -9 -50 -20 -21 -11 -47 -20 -59 -20 -12
0 -57 -18 -100 -41 -63 -32 -93 -41 -149 -46 -99 -7 -103 -4 -230 218 -18 30
-35 69 -39 85 -13 52 -97 266 -132 336 -19 37 -34 74 -34 81 0 40 -242 544
-286 597 -33 39 -75 60 -189 94 -49 15 -110 33 -135 41 -25 8 -53 15 -63 15
-27 0 -94 -37 -111 -62 -19 -26 -21 -95 -5 -135 6 -15 15 -44 19 -63 5 -19 22
-73 40 -120 49 -132 119 -341 129 -385 5 -22 26 -85 46 -140 20 -55 41 -119
46 -143 4 -23 13 -52 20 -63 6 -12 14 -53 19 -93 4 -39 18 -109 30 -155 17
-66 21 -103 18 -171 -5 -110 -29 -155 -150 -278 -96 -99 -117 -108 -194 -89
-42 11 -57 22 -119 94 -38 45 -88 117 -110 159 -22 43 -50 89 -61 103 -12 14
-40 62 -62 106 -36 72 -72 137 -135 245 -11 19 -46 80 -77 135 -61 107 -86
149 -137 223 -18 26 -42 63 -52 83 -11 20 -31 49 -44 65 -38 45 -110 154 -139
209 -14 28 -43 77 -65 110 -22 33 -55 91 -74 129 -19 38 -55 92 -80 120 -25
28 -53 65 -62 81 -8 17 -40 59 -71 93 -31 35 -56 68 -56 74 0 6 -18 35 -40 64
-22 29 -40 57 -40 62 0 5 -15 29 -34 53 -18 24 -42 62 -54 84 -11 22 -37 56
-57 75 -34 32 -62 69 -170 225 -19 28 -49 70 -67 95 -18 25 -39 57 -47 72 -7
16 -30 47 -51 71 -20 23 -53 67 -72 97 -20 30 -59 78 -87 105 l-52 50 -82 3
c-67 2 -86 -1 -102 -15z m4379 -3604 c22 -6 51 -23 65 -38 29 -31 71 -150 71
-200 0 -43 -35 -144 -66 -190 -51 -78 -101 -78 -207 2 -78 59 -99 90 -134 201
-40 126 -22 194 62 233 33 15 141 11 209 -8z m-1595 -3764 c55 -28 83 -61 99
-120 6 -22 17 -58 26 -80 8 -22 15 -66 16 -98 0 -32 7 -74 16 -95 8 -20 19
-72 25 -114 5 -42 17 -94 26 -115 20 -48 30 -241 14 -298 -22 -82 -75 -110
-151 -81 -25 10 -69 27 -99 38 -30 10 -88 41 -130 68 -58 38 -84 63 -111 105
-50 81 -125 150 -221 205 -96 56 -114 71 -140 122 -26 50 -24 86 7 144 50 94
115 168 188 215 84 53 105 63 211 100 103 35 161 36 224 4z m4552 -2244 c52
-43 110 -98 129 -122 19 -24 65 -76 102 -115 37 -39 80 -89 95 -112 16 -23 55
-72 89 -109 33 -37 71 -84 85 -103 13 -19 51 -69 85 -110 33 -41 75 -96 92
-121 17 -26 84 -101 149 -169 65 -67 136 -148 159 -179 23 -31 97 -110 164
-176 67 -66 146 -149 175 -185 29 -36 69 -81 89 -100 72 -68 167 -189 192
-245 68 -149 36 -208 -138 -256 -40 -11 -89 -24 -108 -29 -19 -5 -186 -10
-370 -10 -361 0 -333 -3 -520 57 -25 8 -70 20 -100 27 -30 7 -82 27 -115 43
-33 17 -81 36 -105 43 -25 7 -88 32 -140 57 -80 39 -108 59 -176 128 -73 73
-83 88 -93 136 -7 29 -18 73 -26 97 -21 61 -20 299 1 389 13 55 15 102 11 238
-4 94 -11 188 -16 210 -6 22 -11 153 -11 291 0 225 2 257 20 309 11 32 20 70
20 84 0 58 57 110 121 111 44 0 53 -5 140 -79z"/>
</g>
</svg>
