<?xml version="1.0" encoding="UTF-8"?>
<!DOCTYPE svg PUBLIC "-//W3C//DTD SVG 1.1//EN" "http://www.w3.org/Graphics/SVG/1.1/DTD/svg11.dtd">
<svg xmlns="http://www.w3.org/2000/svg" version="1.1" width="2160px" height="2160px" style="shape-rendering:geometricPrecision; text-rendering:geometricPrecision; image-rendering:optimizeQuality; fill-rule:evenodd; clip-rule:evenodd" xmlns:xlink="http://www.w3.org/1999/xlink">
<g><path style="opacity:0.97" fill="#030802" d="M 970.5,857.5 C 970.211,853.894 970.544,850.394 971.5,847C 971,846.5 970.5,846 970,845.5C 968.444,846.52 967.278,847.853 966.5,849.5C 966.931,852.848 966.431,856.181 965,859.5C 962.86,861.64 960.694,863.806 958.5,866C 954.319,867.513 950.652,869.846 947.5,873C 945.101,873.711 942.768,873.544 940.5,872.5C 938.362,873.243 936.196,873.91 934,874.5C 932.584,873.427 931.25,873.427 930,874.5C 929.555,872.406 930.388,870.906 932.5,870C 937.811,868.928 943.145,867.928 948.5,867C 949.641,866.259 949.641,865.425 948.5,864.5C 952.237,863.501 952.237,862.168 948.5,860.5C 942.992,862.569 937.326,863.403 931.5,863C 936.503,862.164 941.17,860.664 945.5,858.5C 950.902,854.592 955.069,849.592 958,843.5C 966.077,826.346 974.41,809.346 983,792.5C 998.816,756.856 1014.32,721.189 1029.5,685.5C 1031.03,684.63 1032.53,684.964 1034,686.5C 1036,684.833 1038,683.167 1040,681.5C 1041.58,684.554 1042.41,687.554 1042.5,690.5C 1040.37,694.585 1038.87,698.919 1038,703.5C 1037.4,700.094 1036.23,699.761 1034.5,702.5C 1035.6,705.846 1035.44,709.179 1034,712.5C 1031.55,719.809 1028.71,726.976 1025.5,734C 1025.74,734.873 1026.07,735.707 1026.5,736.5C 1023.71,740.198 1022.38,744.198 1022.5,748.5C 1021.37,749.262 1020.21,749.929 1019,750.5C 1018.67,753.167 1018.33,755.833 1018,758.5C 1016.25,760.49 1015.25,762.823 1015,765.5C 1010.74,768.236 1008.74,772.236 1009,777.5C 1007.64,779.028 1006.47,780.695 1005.5,782.5C 1005.71,783.086 1006.04,783.586 1006.5,784C 1001.41,791.604 997.406,799.771 994.5,808.5C 993.149,810.019 991.649,811.352 990,812.5C 989.517,813.448 989.351,814.448 989.5,815.5C 990.873,815.343 992.207,815.51 993.5,816C 992.793,818.52 991.96,821.02 991,823.5C 989.612,822.446 988.112,822.28 986.5,823C 986.833,823.333 987.167,823.667 987.5,824C 985.983,825.685 984.316,827.185 982.5,828.5C 982.003,832.175 981.003,835.675 979.5,839C 979.833,839.333 980.167,839.667 980.5,840C 977.111,842.976 975.278,846.809 975,851.5C 973.236,853.389 971.736,855.389 970.5,857.5 Z"/></g>
<g><path style="opacity:0.926" fill="#070806" d="M 982.5,858.5 C 980.887,858.056 979.72,857.056 979,855.5C 978.333,856.167 977.667,856.833 977,857.5C 974.165,861.977 971.832,866.644 970,871.5C 969.492,869.096 968.325,868.429 966.5,869.5C 965.167,867.833 965.167,866.167 966.5,864.5C 967.192,865.025 967.692,865.692 968,866.5C 968.993,863.526 969.826,860.526 970.5,857.5C 971.736,855.389 973.236,853.389 975,851.5C 975.278,846.809 977.111,842.976 980.5,840C 980.167,839.667 979.833,839.333 979.5,839C 981.003,835.675 982.003,832.175 982.5,828.5C 984.316,827.185 985.983,825.685 987.5,824C 987.167,823.667 986.833,823.333 986.5,823C 988.112,822.28 989.612,822.446 991,823.5C 991.96,821.02 992.793,818.52 993.5,816C 992.207,815.51 990.873,815.343 989.5,815.5C 989.351,814.448 989.517,813.448 990,812.5C 991.649,811.352 993.149,810.019 994.5,808.5C 997.406,799.771 1001.41,791.604 1006.5,784C 1006.04,783.586 1005.71,783.086 1005.5,782.5C 1006.47,780.695 1007.64,779.028 1009,777.5C 1008.74,772.236 1010.74,768.236 1015,765.5C 1015.25,762.823 1016.25,760.49 1018,758.5C 1018.33,755.833 1018.67,753.167 1019,750.5C 1020.21,749.929 1021.37,749.262 1022.5,748.5C 1022.38,744.198 1023.71,740.198 1026.5,736.5C 1026.07,735.707 1025.74,734.873 1025.5,734C 1028.71,726.976 1031.55,719.809 1034,712.5C 1035.44,709.179 1035.6,705.846 1034.5,702.5C 1036.23,699.761 1037.4,700.094 1038,703.5C 1038.87,698.919 1040.37,694.585 1042.5,690.5C 1042.41,687.554 1041.58,684.554 1040,681.5C 1038,683.167 1036,684.833 1034,686.5C 1032.53,684.964 1031.03,684.63 1029.5,685.5C 1032.01,678.988 1036.34,673.988 1042.5,670.5C 1048.45,673.401 1050.95,678.068 1050,684.5C 1040.5,720.883 1027.5,755.883 1011,789.5C 1007.17,803.832 1001.17,817.166 993,829.5C 990.512,837.12 988.178,844.787 986,852.5C 984.541,854.432 983.375,856.432 982.5,858.5 Z"/></g>
<g><path style="opacity:0.931" fill="#000100" d="M 1069.5,817.5 C 1069.79,811.755 1069.29,806.088 1068,800.5C 1066.59,796.346 1064.09,795.179 1060.5,797C 1061.77,797.309 1062.93,797.809 1064,798.5C 1066.62,803.282 1067.45,808.282 1066.5,813.5C 1064.82,810.398 1064.15,807.064 1064.5,803.5C 1063.07,803.579 1061.74,803.246 1060.5,802.5C 1054.92,806.295 1049.76,810.628 1045,815.5C 1044.33,817.5 1043.67,819.5 1043,821.5C 1039.25,826.003 1036.25,831.003 1034,836.5C 1023.64,846.189 1015.64,857.522 1010,870.5C 1007.13,872.238 1007.63,873.071 1011.5,873C 1012.86,870.602 1014.02,868.102 1015,865.5C 1015.33,865.833 1015.67,866.167 1016,866.5C 1018.83,864.19 1021,861.524 1022.5,858.5C 1024.17,858.5 1025.83,858.5 1027.5,858.5C 1027.36,856.876 1028.03,855.71 1029.5,855C 1027.34,853.236 1027.17,851.403 1029,849.5C 1030.66,851.805 1032.16,851.472 1033.5,848.5C 1035.15,845.533 1035.98,842.533 1036,839.5C 1037.78,836.724 1038.78,837.057 1039,840.5C 1039.27,837.648 1040.1,834.982 1041.5,832.5C 1042,831.479 1042.67,831.312 1043.5,832C 1043.98,834.68 1044.32,837.347 1044.5,840C 1043.1,841.269 1041.43,841.769 1039.5,841.5C 1039.08,847.014 1036.58,851.347 1032,854.5C 1030.6,857.544 1029.1,860.544 1027.5,863.5C 1026.03,869.156 1026.36,874.656 1028.5,880C 1030.43,880.251 1032.27,880.751 1034,881.5C 1034.75,880.874 1035.58,880.374 1036.5,880C 1034.28,878.976 1032.28,878.476 1030.5,878.5C 1030.71,877.914 1031.04,877.414 1031.5,877C 1030.57,875.806 1029.9,874.473 1029.5,873C 1030.86,871.073 1031.69,868.906 1032,866.5C 1032.33,866.833 1032.67,867.167 1033,867.5C 1033.42,866.044 1034.26,865.544 1035.5,866C 1035.04,866.414 1034.71,866.914 1034.5,867.5C 1035.61,869.385 1036.44,871.385 1037,873.5C 1038.69,875.245 1040.53,875.578 1042.5,874.5C 1038.68,869.274 1039.34,864.608 1044.5,860.5C 1042.75,863.652 1041.91,866.985 1042,870.5C 1052.52,871.193 1063.02,870.36 1073.5,868C 1086.91,861.98 1100.91,857.813 1115.5,855.5C 1115.08,856.222 1114.42,856.722 1113.5,857C 1117.84,856.608 1121.84,855.108 1125.5,852.5C 1125.83,852.667 1126.17,852.833 1126.5,853C 1119.45,861.14 1110.45,865.474 1099.5,866C 1100.5,866.5 1101.5,867 1102.5,867.5C 1112.66,864.602 1122.66,862.435 1132.5,861C 1132.45,865.632 1132.62,870.465 1133,875.5C 1133.33,876.167 1133.67,876.833 1134,877.5C 1135.97,874.032 1138.14,870.699 1140.5,867.5C 1142.4,874.388 1143.74,881.388 1144.5,888.5C 1142.95,887.77 1142.12,886.437 1142,884.5C 1141.8,887.692 1140.97,890.692 1139.5,893.5C 1141.18,897.236 1142.02,901.236 1142,905.5C 1142.47,906.931 1143.3,908.097 1144.5,909C 1143.83,909.333 1143.17,909.667 1142.5,910C 1146.72,911.673 1148.56,914.84 1148,919.5C 1148.25,922.667 1148.42,925.667 1148.5,928.5C 1147.62,929.251 1146.62,929.751 1145.5,930C 1147.14,933.674 1148.3,937.84 1149,942.5C 1150.59,943.727 1151.92,943.394 1153,941.5C 1154.83,946.833 1156.67,952.167 1158.5,957.5C 1158.41,959.425 1157.41,960.592 1155.5,961C 1157.33,964.167 1159.17,967.333 1161,970.5C 1162.79,968.487 1164.12,968.487 1165,970.5C 1165.67,969.833 1166.33,969.167 1167,968.5C 1167.61,970.066 1168.44,971.4 1169.5,972.5C 1177.55,989.404 1188.55,1004.24 1202.5,1017C 1207.43,1021.05 1212.26,1025.22 1217,1029.5C 1218.88,1031.53 1220.05,1033.86 1220.5,1036.5C 1219.78,1036.08 1219.28,1035.42 1219,1034.5C 1218.33,1035.83 1217.33,1036.83 1216,1037.5C 1214.17,1035.67 1212.33,1033.83 1210.5,1032C 1211.46,1030.85 1211.12,1029.85 1209.5,1029C 1206.12,1028.55 1202.79,1027.88 1199.5,1027C 1198.24,1024.07 1196.07,1022.24 1193,1021.5C 1192.82,1023.49 1192.99,1025.49 1193.5,1027.5C 1195.1,1027.31 1196.44,1027.81 1197.5,1029C 1194.5,1029.67 1191.5,1029.67 1188.5,1029C 1180.78,1022.97 1172.12,1018.64 1162.5,1016C 1160.17,1014.33 1157.83,1012.67 1155.5,1011C 1148.16,1008.24 1140.16,1005.58 1131.5,1003C 1129.93,1000.6 1127.93,998.764 1125.5,997.5C 1121.05,993.586 1116.71,989.42 1112.5,985C 1109.62,983.392 1106.62,982.059 1103.5,981C 1102.26,979.846 1101.26,978.512 1100.5,977C 1093.68,975.013 1087.34,972.18 1081.5,968.5C 1078.77,966.108 1075.77,964.108 1072.5,962.5C 1071.61,961.675 1071.28,960.675 1071.5,959.5C 1067.02,956.714 1062.19,954.38 1057,952.5C 1053.66,952.589 1050.16,952.755 1046.5,953C 1039.7,954.076 1036.36,958.076 1036.5,965C 1036.66,968.817 1037.82,972.317 1040,975.5C 1043.06,979.842 1046.06,984.175 1049,988.5C 1056.93,995.205 1065.09,1001.54 1073.5,1007.5C 1073.63,1008.24 1073.46,1008.91 1073,1009.5C 1069.99,1012.22 1066.99,1014.89 1064,1017.5C 1062.08,1024.87 1060.91,1032.37 1060.5,1040C 1060.38,1042.59 1061.04,1044.92 1062.5,1047C 1062.04,1047.41 1061.71,1047.91 1061.5,1048.5C 1062.39,1052.5 1064.72,1055 1068.5,1056C 1070.33,1058.24 1071.99,1060.58 1073.5,1063C 1071,1064.55 1071,1066.22 1073.5,1068C 1073.04,1068.41 1072.71,1068.91 1072.5,1069.5C 1075.53,1073.54 1077.53,1077.71 1078.5,1082C 1077.25,1084.91 1075.09,1086.75 1072,1087.5C 1071.16,1089.35 1070.33,1091.18 1069.5,1093C 1068.93,1096.25 1069.6,1099.42 1071.5,1102.5C 1069.37,1104.67 1066.87,1106.33 1064,1107.5C 1063.33,1110.83 1063.33,1114.17 1064,1117.5C 1067.07,1120.74 1069.24,1124.07 1070.5,1127.5C 1072.31,1126.17 1074.31,1125.17 1076.5,1124.5C 1076.29,1123.91 1075.96,1123.41 1075.5,1123C 1076.97,1119.68 1077.64,1116.18 1077.5,1112.5C 1078.5,1112.5 1079.5,1112.5 1080.5,1112.5C 1080.72,1110.21 1081.39,1108.05 1082.5,1106C 1082.36,1105.23 1082.02,1104.56 1081.5,1104C 1083.73,1101.98 1084.06,1099.64 1082.5,1097C 1083.74,1096.54 1084.58,1097.04 1085,1098.5C 1085.48,1097.55 1085.65,1096.55 1085.5,1095.5C 1084.45,1095.65 1083.45,1095.48 1082.5,1095C 1083.1,1093.17 1083.77,1091.34 1084.5,1089.5C 1085.19,1090.03 1085.69,1090.69 1086,1091.5C 1086.58,1090 1087.42,1088.67 1088.5,1087.5C 1088.83,1087.83 1089.17,1088.17 1089.5,1088.5C 1088.29,1089.72 1088.29,1090.89 1089.5,1092C 1088.83,1092.33 1088.17,1092.67 1087.5,1093C 1087.72,1096.69 1087.88,1100.86 1088,1105.5C 1088.21,1103.94 1088.71,1102.61 1089.5,1101.5C 1087.52,1111.09 1086.02,1120.76 1085,1130.5C 1077.94,1135.89 1070.61,1140.89 1063,1145.5C 1055.2,1159.43 1048.2,1173.77 1042,1188.5C 1037.19,1193.98 1033.19,1199.98 1030,1206.5C 1021.88,1241.6 1030.71,1271.27 1056.5,1295.5C 1052.28,1293.78 1048.78,1291.11 1046,1287.5C 1045.38,1288.45 1045.55,1289.28 1046.5,1290C 1045.07,1289.69 1043.73,1289.86 1042.5,1290.5C 1040.42,1288.71 1038.26,1287.05 1036,1285.5C 1034.13,1286.82 1033.29,1288.32 1033.5,1290C 1035.89,1293.29 1037.89,1296.79 1039.5,1300.5C 1038.85,1302.43 1037.52,1303.6 1035.5,1304C 1037.3,1304.32 1037.63,1304.98 1036.5,1306C 1030.16,1306.84 1030.5,1307.5 1037.5,1308C 1053.18,1315.65 1069.51,1322.81 1086.5,1329.5C 1087.09,1329.29 1087.59,1328.96 1088,1328.5C 1095.31,1332.57 1102.81,1336.24 1110.5,1339.5C 1112.11,1337.74 1114.11,1336.57 1116.5,1336C 1114.15,1334.17 1112.81,1332 1112.5,1329.5C 1112.97,1326.3 1113.97,1325.97 1115.5,1328.5C 1116.11,1328.38 1116.44,1328.04 1116.5,1327.5C 1121.8,1329.77 1123.63,1333.77 1122,1339.5C 1117.78,1344.63 1112.62,1345.8 1106.5,1343C 1092.54,1337.02 1078.54,1331.02 1064.5,1325C 1055.45,1321.26 1046.12,1318.43 1036.5,1316.5C 1025.75,1320.04 1015.08,1323.87 1004.5,1328C 992.408,1329.81 981.074,1327.48 970.5,1321C 964.025,1317.2 959.858,1311.7 958,1304.5C 958.117,1291.3 954.284,1279.46 946.5,1269C 937.757,1263.23 928.09,1260.73 917.5,1261.5C 920.641,1260.68 923.975,1260.18 927.5,1260C 923.721,1258.37 919.721,1257.37 915.5,1257C 918.94,1256.35 922.273,1255.52 925.5,1254.5C 931.268,1255.43 937.268,1255.93 943.5,1256C 944.38,1254.64 944.714,1253.14 944.5,1251.5C 945.552,1251.65 946.552,1251.48 947.5,1251C 950.173,1247.91 953.34,1245.41 957,1243.5C 957.206,1238.11 957.873,1232.78 959,1227.5C 958.586,1227.96 958.086,1228.29 957.5,1228.5C 956.316,1226.95 955.316,1225.29 954.5,1223.5C 952.898,1226.34 952.398,1229.34 953,1232.5C 954.011,1231.66 955.178,1231.33 956.5,1231.5C 956.875,1234.4 956.375,1237.06 955,1239.5C 954.043,1237.29 952.876,1237.46 951.5,1240C 953.116,1240.62 954.449,1241.62 955.5,1243C 953.892,1243.66 952.725,1243.16 952,1241.5C 951.5,1242.67 950.667,1243.5 949.5,1244C 946.563,1243.99 943.73,1244.16 941,1244.5C 940.705,1242.07 939.538,1240.24 937.5,1239C 940.167,1238.33 940.167,1237.67 937.5,1237C 938.328,1236.09 939.328,1235.42 940.5,1235C 937.343,1229.77 933.01,1225.93 927.5,1223.5C 932.691,1224.76 937.358,1227.1 941.5,1230.5C 948.39,1219.95 951.723,1208.29 951.5,1195.5C 952.512,1187.7 950.512,1180.87 945.5,1175C 939.741,1175.13 934.074,1176.13 928.5,1178C 921.011,1183.91 913.345,1189.58 905.5,1195C 902.462,1197.7 899.795,1200.7 897.5,1204C 898.913,1207.25 900.913,1210.08 903.5,1212.5C 901.321,1212.16 899.488,1211.16 898,1209.5C 896.323,1210.52 894.657,1211.52 893,1212.5C 891.075,1210.91 888.909,1209.75 886.5,1209C 884.023,1207.29 882.689,1205.29 882.5,1203C 883.747,1201.54 883.747,1200.04 882.5,1198.5C 883.853,1197.48 884.52,1196.14 884.5,1194.5C 878.723,1195.28 875.723,1198.61 875.5,1204.5C 876.602,1206.89 878.269,1208.72 880.5,1210C 879.131,1212.24 879.631,1214.07 882,1215.5C 883,1214.83 884,1214.17 885,1213.5C 887.511,1215.68 889.678,1218.18 891.5,1221C 893.957,1222.56 896.624,1223.56 899.5,1224C 903.506,1228.35 908.506,1231.02 914.5,1232C 917.063,1234.53 919.897,1236.7 923,1238.5C 923.273,1240.1 923.773,1241.6 924.5,1243C 926.974,1243.11 928.974,1244.11 930.5,1246C 929.059,1247.65 927.392,1247.81 925.5,1246.5C 922.025,1247.66 918.525,1248.66 915,1249.5C 909.019,1247.5 903.519,1244.67 898.5,1241C 894.892,1239.68 891.225,1239.01 887.5,1239C 890.025,1241.52 892.858,1243.69 896,1245.5C 896.749,1246.64 896.583,1247.64 895.5,1248.5C 893.3,1247.54 892.967,1248.21 894.5,1250.5C 878.787,1237.9 860.787,1232.4 840.5,1234C 831.379,1236.44 826.879,1242.27 827,1251.5C 840.275,1286.66 853.941,1321.66 868,1356.5C 871.2,1372.43 876.2,1387.77 883,1402.5C 884.457,1406.74 884.791,1411.07 884,1415.5C 879.34,1428.82 874.673,1442.16 870,1455.5C 857.739,1480.87 848.073,1507.2 841,1534.5C 837.742,1543.77 831.408,1549.43 822,1551.5C 818.145,1551.41 815.145,1549.74 813,1546.5C 811.275,1543.33 809.942,1539.99 809,1536.5C 808.095,1530.4 806.761,1524.4 805,1518.5C 802.3,1501.03 798.966,1483.7 795,1466.5C 793.387,1448.2 792.387,1429.87 792,1411.5C 790.961,1400.75 787.628,1390.75 782,1381.5C 775.893,1374.73 770.56,1367.39 766,1359.5C 756.46,1346.96 745.294,1336.13 732.5,1327C 729.833,1326.33 727.167,1326.33 724.5,1327C 721.167,1329 717.833,1331 714.5,1333C 710,1338.17 705.5,1343.33 701,1348.5C 687.766,1369.08 672.266,1387.91 654.5,1405C 647.959,1409.54 640.959,1413.21 633.5,1416C 629.764,1416.61 626.097,1416.28 622.5,1415C 621.128,1413.76 620.128,1412.26 619.5,1410.5C 624.509,1402.49 629.009,1394.15 633,1385.5C 638.365,1379.8 644.031,1374.47 650,1369.5C 653.088,1360.74 655.422,1351.74 657,1342.5C 658.526,1339.42 661.026,1337.59 664.5,1337C 666.539,1334.63 668.872,1332.63 671.5,1331C 675.491,1326.68 678.158,1321.68 679.5,1316C 679.826,1313.73 678.992,1312.23 677,1311.5C 674.61,1312.28 672.443,1313.44 670.5,1315C 663.887,1321.61 657.221,1328.28 650.5,1335C 633.422,1341.7 616.755,1349.36 600.5,1358C 591.003,1361.61 581.669,1365.61 572.5,1370C 559.548,1373.87 546.881,1378.54 534.5,1384C 525.502,1386.68 516.502,1386.84 507.5,1384.5C 503.529,1385.2 499.529,1385.7 495.5,1386C 488.374,1389.4 481.374,1393.06 474.5,1397C 472.167,1397.67 469.833,1397.67 467.5,1397C 465.5,1395.67 463.5,1394.33 461.5,1393C 457.833,1388.67 454.167,1384.33 450.5,1380C 437.566,1371.4 426.233,1361.06 416.5,1349C 406.5,1341.33 396.5,1333.67 386.5,1326C 370.739,1313.96 353.072,1305.96 333.5,1302C 328.669,1300.39 324.003,1298.39 319.5,1296C 312.167,1290 304.833,1284 297.5,1278C 282.183,1274.72 266.85,1274.72 251.5,1278C 242.018,1280.92 233.018,1284.59 224.5,1289C 217.003,1283.87 215.836,1277.7 221,1270.5C 223.766,1267.22 226.933,1264.56 230.5,1262.5C 231.88,1262.06 232.88,1262.9 233.5,1265C 232.377,1266.04 231.044,1266.71 229.5,1267C 230.167,1267.33 230.833,1267.67 231.5,1268C 228.569,1269.53 226.569,1271.86 225.5,1275C 227.067,1276.81 229.067,1277.98 231.5,1278.5C 235.377,1277.29 239.044,1275.62 242.5,1273.5C 241.975,1272.81 241.308,1272.31 240.5,1272C 242.568,1271.31 244.568,1271.48 246.5,1272.5C 247.499,1269.83 249.166,1269.16 251.5,1270.5C 259.769,1270.04 267.936,1269.04 276,1267.5C 277.507,1268.53 279.007,1268.37 280.5,1267C 270.668,1265.86 260.834,1266.36 251,1268.5C 250.167,1268.17 249.333,1267.83 248.5,1267.5C 249.531,1266.3 250.365,1264.97 251,1263.5C 259.674,1259.49 267.84,1254.65 275.5,1249C 276.376,1247.41 277.376,1245.91 278.5,1244.5C 282.526,1243.83 286.526,1243 290.5,1242C 291.167,1240.67 291.833,1239.33 292.5,1238C 300.102,1235.81 307.102,1232.48 313.5,1228C 312.299,1227.1 311.465,1225.93 311,1224.5C 308.595,1225.27 306.095,1225.77 303.5,1226C 298.793,1229.35 293.793,1232.19 288.5,1234.5C 287.808,1233.97 287.308,1233.31 287,1232.5C 286.751,1233.62 286.251,1234.62 285.5,1235.5C 278.859,1237.82 272.526,1240.66 266.5,1244C 264.97,1246.2 263.136,1247.03 261,1246.5C 257.124,1249.01 254.124,1251.68 252,1254.5C 250.94,1254.75 249.773,1254.75 248.5,1254.5C 247.614,1255.32 247.281,1256.32 247.5,1257.5C 243.276,1259.48 238.943,1260.15 234.5,1259.5C 261.4,1240.29 290.233,1224.29 321,1211.5C 322.967,1211.54 324.801,1212.04 326.5,1213C 334.903,1221.68 343.403,1230.18 352,1238.5C 359.43,1246.35 365.096,1255.35 369,1265.5C 370.707,1267.04 372.207,1268.7 373.5,1270.5C 372.427,1271.25 372.26,1272.25 373,1273.5C 374.613,1272.38 375.78,1272.88 376.5,1275C 373.938,1276.27 371.604,1275.61 369.5,1273C 367.899,1272.73 366.399,1272.23 365,1271.5C 364.667,1271.83 364.333,1272.17 364,1272.5C 363.333,1271.17 362.667,1269.83 362,1268.5C 361.554,1271.41 362.221,1274.08 364,1276.5C 376.166,1285.75 390,1290.59 405.5,1291C 412.236,1291.27 418.903,1291.43 425.5,1291.5C 427.628,1291.1 427.628,1290.1 425.5,1288.5C 421.461,1287.1 417.461,1285.6 413.5,1284C 418.662,1283.5 423.995,1283.5 429.5,1284C 426.258,1283.59 423.258,1282.76 420.5,1281.5C 440.634,1285.06 459.967,1291.23 478.5,1300C 486.73,1301.9 495.063,1303.07 503.5,1303.5C 507.741,1303.75 511.741,1302.91 515.5,1301C 523.163,1297.17 530.496,1292.84 537.5,1288C 548.5,1279 559.5,1270 570.5,1261C 590.578,1241.68 607.412,1219.85 621,1195.5C 624.037,1187.3 622.537,1180.13 616.5,1174C 600.951,1166.73 585.285,1159.73 569.5,1153C 555.053,1142.54 544.219,1129.04 537,1112.5C 534.333,1109.17 531.667,1105.83 529,1102.5C 519.855,1095.36 510.688,1088.36 501.5,1081.5C 502.931,1081.12 503.764,1080.12 504,1078.5C 506.849,1079.89 509.849,1080.89 513,1081.5C 519.143,1080.77 525.309,1080.27 531.5,1080C 525.626,1078 519.959,1075.17 514.5,1071.5C 514.369,1070.62 514.702,1069.96 515.5,1069.5C 516.607,1070.02 517.774,1070.36 519,1070.5C 521.333,1069.5 523.667,1068.5 526,1067.5C 530.645,1069 535.145,1068.67 539.5,1066.5C 542.357,1067.89 545.023,1067.55 547.5,1065.5C 546.012,1063.42 544.012,1062.42 541.5,1062.5C 541.286,1060.86 541.62,1059.36 542.5,1058C 546.057,1056.59 549.724,1055.59 553.5,1055C 546.627,1054.87 540.294,1053.03 534.5,1049.5C 533.914,1049.71 533.414,1050.04 533,1050.5C 531.406,1049.28 529.906,1047.95 528.5,1046.5C 527.417,1045.64 527.251,1044.64 528,1043.5C 528.333,1043.83 528.667,1044.17 529,1044.5C 532.313,1041.76 533.146,1038.43 531.5,1034.5C 529.191,1032.01 526.524,1030.01 523.5,1028.5C 520.394,1029.35 517.561,1028.68 515,1026.5C 513.417,1023.67 511.584,1021 509.5,1018.5C 510.167,1017.5 510.833,1016.5 511.5,1015.5C 508.705,1013.49 508.039,1010.99 509.5,1008C 507.992,1006.49 506.659,1004.83 505.5,1003C 503.935,1003.28 502.602,1003.44 501.5,1003.5C 503.21,1005.64 504.543,1007.98 505.5,1010.5C 504.28,1013 503.28,1015.5 502.5,1018C 503.591,1020.06 503.758,1022.23 503,1024.5C 502.617,1023.94 502.117,1023.61 501.5,1023.5C 502.895,1022.35 502.728,1021.35 501,1020.5C 499.872,1022.35 499.372,1024.35 499.5,1026.5C 500.585,1012.17 494.918,1001.34 482.5,994C 476.297,991.984 470.797,988.817 466,984.5C 462.416,975.909 456.916,968.742 449.5,963C 440.45,955.615 431.116,948.615 421.5,942C 417.301,937.466 412.801,933.299 408,929.5C 400.336,919.667 396.17,908.5 395.5,896C 396.138,892.707 398.138,891.707 401.5,893C 405.759,894.934 409.759,897.268 413.5,900C 446.887,924.03 479.554,949.03 511.5,975C 520.33,980.531 529.33,980.864 538.5,976C 546.341,970.913 554.008,965.58 561.5,960C 572.5,949.667 583.5,939.333 594.5,929C 597.328,926.752 600.328,924.752 603.5,923C 615.913,911.249 628.913,900.249 642.5,890C 652.848,877.978 665.181,868.645 679.5,862C 687.602,860.181 695.602,860.681 703.5,863.5C 710.738,861.651 718.071,861.151 725.5,862C 738.075,865.644 750.742,868.977 763.5,872C 771.366,874.258 779.366,874.924 787.5,874C 799.977,870.087 812.644,866.92 825.5,864.5C 847.584,870.694 869.584,877.194 891.5,884C 899.153,887.492 906.487,891.492 913.5,896C 917.794,897.682 922.128,897.849 926.5,896.5C 927.696,895.441 928.363,894.107 928.5,892.5C 926.898,886.627 924.731,880.96 922,875.5C 921.183,872.036 921.517,868.702 923,865.5C 930.036,861.725 937.536,859.391 945.5,858.5C 941.17,860.664 936.503,862.164 931.5,863C 937.326,863.403 942.992,862.569 948.5,860.5C 952.237,862.168 952.237,863.501 948.5,864.5C 949.641,865.425 949.641,866.259 948.5,867C 943.145,867.928 937.811,868.928 932.5,870C 930.388,870.906 929.555,872.406 930,874.5C 931.25,873.427 932.584,873.427 934,874.5C 936.196,873.91 938.362,873.243 940.5,872.5C 942.768,873.544 945.101,873.711 947.5,873C 950.652,869.846 954.319,867.513 958.5,866C 960.694,863.806 962.86,861.64 965,859.5C 966.431,856.181 966.931,852.848 966.5,849.5C 967.278,847.853 968.444,846.52 970,845.5C 970.5,846 971,846.5 971.5,847C 970.544,850.394 970.211,853.894 970.5,857.5C 969.826,860.526 968.993,863.526 968,866.5C 967.692,865.692 967.192,865.025 966.5,864.5C 965.167,866.167 965.167,867.833 966.5,869.5C 968.325,868.429 969.492,869.096 970,871.5C 971.832,866.644 974.165,861.977 977,857.5C 977.667,856.833 978.333,856.167 979,855.5C 979.72,857.056 980.887,858.056 982.5,858.5C 982.643,860.262 982.309,861.929 981.5,863.5C 981.901,865.434 982.901,866.934 984.5,868C 990.795,871.608 996.795,871.275 1002.5,867C 1008.27,860.615 1013.44,853.782 1018,846.5C 1027.9,835.042 1036.56,822.709 1044,809.5C 1049.54,804.289 1055.38,799.456 1061.5,795C 1065.18,794.318 1067.68,795.818 1069,799.5C 1070.66,805.61 1070.82,811.61 1069.5,817.5 Z M 994.5,932.5 C 1002.16,934.12 1004.66,938.786 1002,946.5C 1000.08,951.917 996.247,954.917 990.5,955.5C 986.549,954.045 984.216,951.212 983.5,947C 984.419,942.995 986.252,939.495 989,936.5C 990.5,934.531 992.333,933.198 994.5,932.5 Z M 678.5,959.5 C 706.238,958.707 733.571,961.54 760.5,968C 765.669,970.671 769.669,974.504 772.5,979.5C 772.41,981.425 771.41,982.592 769.5,983C 739.633,987.742 709.633,991.408 679.5,994C 674.396,994.954 669.396,996.287 664.5,998C 647.114,1006.6 628.781,1011.6 609.5,1013C 606.606,1012.13 605.439,1010.3 606,1007.5C 609.206,1003.72 612.872,1000.39 617,997.5C 619.075,993.421 621.908,989.921 625.5,987C 632.207,983.646 638.207,979.313 643.5,974C 655.157,968.845 666.824,964.012 678.5,959.5 Z M 684.5,1028.5 C 714.174,1028.52 743.841,1029.02 773.5,1030C 775.736,1030.73 777.069,1032.23 777.5,1034.5C 775.765,1037.74 773.432,1040.58 770.5,1043C 744.432,1062.13 715.266,1070.3 683,1067.5C 676.142,1067.99 669.308,1068.66 662.5,1069.5C 648.679,1065.84 636.512,1059.17 626,1049.5C 625.333,1048.5 625.333,1047.5 626,1046.5C 631.082,1042.21 636.916,1039.38 643.5,1038C 657.268,1034.62 670.935,1031.45 684.5,1028.5 Z M 552.5,1057.5 C 554.92,1057.29 557.253,1057.63 559.5,1058.5C 560.571,1060.33 559.904,1061.49 557.5,1062C 555.5,1062.67 553.5,1062.67 551.5,1062C 550.027,1061.29 549.36,1060.12 549.5,1058.5C 550.791,1058.74 551.791,1058.4 552.5,1057.5 Z M 927.5,1223.5 C 919.269,1220.39 911.269,1216.72 903.5,1212.5C 900.913,1210.08 898.913,1207.25 897.5,1204C 899.795,1200.7 902.462,1197.7 905.5,1195C 913.345,1189.58 921.011,1183.91 928.5,1178C 934.074,1176.13 939.741,1175.13 945.5,1175C 950.512,1180.87 952.512,1187.7 951.5,1195.5C 951.723,1208.29 948.39,1219.95 941.5,1230.5C 937.358,1227.1 932.691,1224.76 927.5,1223.5 Z"/></g>
<g><path style="opacity:0.705" fill="#080b07" d="M 1069.5,817.5 C 1064.38,827.738 1059.21,838.071 1054,848.5C 1051.05,852.751 1047.89,856.751 1044.5,860.5C 1039.34,864.608 1038.68,869.274 1042.5,874.5C 1040.53,875.578 1038.69,875.245 1037,873.5C 1036.44,871.385 1035.61,869.385 1034.5,867.5C 1034.71,866.914 1035.04,866.414 1035.5,866C 1034.26,865.544 1033.42,866.044 1033,867.5C 1032.67,867.167 1032.33,866.833 1032,866.5C 1031.69,868.906 1030.86,871.073 1029.5,873C 1029.9,874.473 1030.57,875.806 1031.5,877C 1031.04,877.414 1030.71,877.914 1030.5,878.5C 1032.28,878.476 1034.28,878.976 1036.5,880C 1035.58,880.374 1034.75,880.874 1034,881.5C 1032.27,880.751 1030.43,880.251 1028.5,880C 1026.36,874.656 1026.03,869.156 1027.5,863.5C 1029.1,860.544 1030.6,857.544 1032,854.5C 1036.58,851.347 1039.08,847.014 1039.5,841.5C 1041.43,841.769 1043.1,841.269 1044.5,840C 1044.32,837.347 1043.98,834.68 1043.5,832C 1042.67,831.312 1042,831.479 1041.5,832.5C 1040.1,834.982 1039.27,837.648 1039,840.5C 1038.78,837.057 1037.78,836.724 1036,839.5C 1035.98,842.533 1035.15,845.533 1033.5,848.5C 1032.16,851.472 1030.66,851.805 1029,849.5C 1027.17,851.403 1027.34,853.236 1029.5,855C 1028.03,855.71 1027.36,856.876 1027.5,858.5C 1025.83,858.5 1024.17,858.5 1022.5,858.5C 1021,861.524 1018.83,864.19 1016,866.5C 1015.67,866.167 1015.33,865.833 1015,865.5C 1014.02,868.102 1012.86,870.602 1011.5,873C 1007.63,873.071 1007.13,872.238 1010,870.5C 1015.64,857.522 1023.64,846.189 1034,836.5C 1036.25,831.003 1039.25,826.003 1043,821.5C 1043.67,819.5 1044.33,817.5 1045,815.5C 1049.76,810.628 1054.92,806.295 1060.5,802.5C 1061.74,803.246 1063.07,803.579 1064.5,803.5C 1064.15,807.064 1064.82,810.398 1066.5,813.5C 1067.45,808.282 1066.62,803.282 1064,798.5C 1062.93,797.809 1061.77,797.309 1060.5,797C 1064.09,795.179 1066.59,796.346 1068,800.5C 1069.29,806.088 1069.79,811.755 1069.5,817.5 Z"/></g>
<g><path style="opacity:0.95" fill="#060705" d="M 1147.5,900.5 C 1147.66,902.199 1147.49,903.866 1147,905.5C 1146.15,900.754 1144.98,896.087 1143.5,891.5C 1143.69,890.416 1144.02,889.416 1144.5,888.5C 1143.74,881.388 1142.4,874.388 1140.5,867.5C 1138.14,870.699 1135.97,874.032 1134,877.5C 1133.67,876.833 1133.33,876.167 1133,875.5C 1132.62,870.465 1132.45,865.632 1132.5,861C 1122.66,862.435 1112.66,864.602 1102.5,867.5C 1101.5,867 1100.5,866.5 1099.5,866C 1110.45,865.474 1119.45,861.14 1126.5,853C 1126.17,852.833 1125.83,852.667 1125.5,852.5C 1121.84,855.108 1117.84,856.608 1113.5,857C 1114.42,856.722 1115.08,856.222 1115.5,855.5C 1118.37,854.153 1120.87,852.153 1123,849.5C 1126.29,840.415 1131.46,832.581 1138.5,826C 1145.27,825.464 1151.11,827.631 1156,832.5C 1158.4,836.458 1158.73,840.458 1157,844.5C 1152.18,853.141 1148.18,862.141 1145,871.5C 1144.43,881.297 1145.27,890.964 1147.5,900.5 Z"/></g>
<g><path style="opacity:0.434" fill="#02050c" d="M 1144.5,888.5 C 1144.02,889.416 1143.69,890.416 1143.5,891.5C 1144.98,896.087 1146.15,900.754 1147,905.5C 1147.49,903.866 1147.66,902.199 1147.5,900.5C 1150.96,913.292 1154.13,926.292 1157,939.5C 1161.08,950.574 1165.25,961.574 1169.5,972.5C 1168.44,971.4 1167.61,970.066 1167,968.5C 1166.33,969.167 1165.67,969.833 1165,970.5C 1164.12,968.487 1162.79,968.487 1161,970.5C 1159.17,967.333 1157.33,964.167 1155.5,961C 1157.41,960.592 1158.41,959.425 1158.5,957.5C 1156.67,952.167 1154.83,946.833 1153,941.5C 1151.92,943.394 1150.59,943.727 1149,942.5C 1148.3,937.84 1147.14,933.674 1145.5,930C 1146.62,929.751 1147.62,929.251 1148.5,928.5C 1148.42,925.667 1148.25,922.667 1148,919.5C 1148.56,914.84 1146.72,911.673 1142.5,910C 1143.17,909.667 1143.83,909.333 1144.5,909C 1143.3,908.097 1142.47,906.931 1142,905.5C 1142.02,901.236 1141.18,897.236 1139.5,893.5C 1140.97,890.692 1141.8,887.692 1142,884.5C 1142.12,886.437 1142.95,887.77 1144.5,888.5 Z"/></g>
<g><path style="opacity:1" fill="#140e07" d="M 1125.5,997.5 C 1126.97,1000.45 1128.47,1003.45 1130,1006.5C 1131.4,1007.23 1132.9,1007.73 1134.5,1008C 1132,1008.41 1130,1009.58 1128.5,1011.5C 1131.13,1013 1130.8,1013.67 1127.5,1013.5C 1125.61,1012.95 1123.94,1011.95 1122.5,1010.5C 1121.91,1006.77 1121.08,1003.1 1120,999.5C 1115.57,995.468 1111.74,990.968 1108.5,986C 1100.09,982.894 1091.93,979.394 1084,975.5C 1081.61,973.61 1079.78,971.277 1078.5,968.5C 1076.51,966.501 1074.17,965.001 1071.5,964C 1063.65,961.265 1055.65,959.598 1047.5,959C 1042.1,963.419 1041.27,968.586 1045,974.5C 1049.29,979.585 1053.46,984.752 1057.5,990C 1060.68,992.092 1063.68,994.425 1066.5,997C 1069.25,998.75 1072.25,999.75 1075.5,1000C 1077.49,1001.32 1078.65,1003.15 1079,1005.5C 1080.42,1006.46 1081.92,1007.29 1083.5,1008C 1084.49,1010.17 1085.82,1012 1087.5,1013.5C 1087.53,1014.5 1087.03,1015.16 1086,1015.5C 1082.83,1013.6 1080,1011.27 1077.5,1008.5C 1076.31,1007.57 1074.98,1007.24 1073.5,1007.5C 1065.09,1001.54 1056.93,995.205 1049,988.5C 1046.06,984.175 1043.06,979.842 1040,975.5C 1037.82,972.317 1036.66,968.817 1036.5,965C 1036.36,958.076 1039.7,954.076 1046.5,953C 1050.16,952.755 1053.66,952.589 1057,952.5C 1062.19,954.38 1067.02,956.714 1071.5,959.5C 1071.28,960.675 1071.61,961.675 1072.5,962.5C 1075.77,964.108 1078.77,966.108 1081.5,968.5C 1087.34,972.18 1093.68,975.013 1100.5,977C 1101.26,978.512 1102.26,979.846 1103.5,981C 1106.62,982.059 1109.62,983.392 1112.5,985C 1116.71,989.42 1121.05,993.586 1125.5,997.5 Z"/></g>
<g><path style="opacity:1" fill="#291f15" d="M 1127.5,1013.5 C 1126.83,1014.17 1126.17,1014.83 1125.5,1015.5C 1121.83,1015.5 1118.17,1015.5 1114.5,1015.5C 1116.6,1014.39 1118.93,1013.72 1121.5,1013.5C 1121.74,1012.21 1121.4,1011.21 1120.5,1010.5C 1119.18,1010.67 1118.01,1010.34 1117,1009.5C 1117,1006.83 1117,1004.17 1117,1001.5C 1113.27,996.167 1109.1,991.167 1104.5,986.5C 1101.43,985.65 1098.43,984.65 1095.5,983.5C 1094.83,983.5 1094.17,983.5 1093.5,983.5C 1091.11,979.402 1087.44,977.235 1082.5,977C 1079.51,971.995 1075.17,968.662 1069.5,967C 1065.15,965.288 1060.65,964.121 1056,963.5C 1052.99,964.181 1050.49,965.681 1048.5,968C 1050.02,971.662 1050.86,975.495 1051,979.5C 1058.38,987.429 1066.88,993.763 1076.5,998.5C 1078.56,1001.56 1081.22,1003.89 1084.5,1005.5C 1087.18,1007.51 1088.84,1010.18 1089.5,1013.5C 1088.83,1013.5 1088.17,1013.5 1087.5,1013.5C 1085.82,1012 1084.49,1010.17 1083.5,1008C 1081.92,1007.29 1080.42,1006.46 1079,1005.5C 1078.65,1003.15 1077.49,1001.32 1075.5,1000C 1072.25,999.75 1069.25,998.75 1066.5,997C 1063.68,994.425 1060.68,992.092 1057.5,990C 1053.46,984.752 1049.29,979.585 1045,974.5C 1041.27,968.586 1042.1,963.419 1047.5,959C 1055.65,959.598 1063.65,961.265 1071.5,964C 1074.17,965.001 1076.51,966.501 1078.5,968.5C 1079.78,971.277 1081.61,973.61 1084,975.5C 1091.93,979.394 1100.09,982.894 1108.5,986C 1111.74,990.968 1115.57,995.468 1120,999.5C 1121.08,1003.1 1121.91,1006.77 1122.5,1010.5C 1123.94,1011.95 1125.61,1012.95 1127.5,1013.5 Z"/></g>
<g><path style="opacity:1" fill="#5a4937" d="M 1093.5,983.5 C 1094.17,983.5 1094.83,983.5 1095.5,983.5C 1097.5,985.5 1099.5,987.5 1101.5,989.5C 1090.09,986.384 1080.42,980.55 1072.5,972C 1068.83,971.333 1065.17,971.333 1061.5,972C 1059.03,973.588 1058.87,975.422 1061,977.5C 1061.82,978.823 1062.98,979.489 1064.5,979.5C 1065.2,981.716 1066.54,983.549 1068.5,985C 1077.08,989.778 1085.08,995.278 1092.5,1001.5C 1085.87,999.072 1079.54,996.072 1073.5,992.5C 1068.3,988.638 1063.13,984.638 1058,980.5C 1057.28,977.785 1055.78,975.618 1053.5,974C 1052.28,971.616 1052.28,969.283 1053.5,967C 1064.81,965.767 1074.14,969.434 1081.5,978C 1085.73,979.541 1089.73,981.374 1093.5,983.5 Z"/></g>
<g><path style="opacity:1" fill="#725f4a" d="M 1101.5,989.5 C 1104.95,992.895 1107.29,997.062 1108.5,1002C 1107.69,1005.68 1105.36,1007.51 1101.5,1007.5C 1096.92,1007.64 1093.92,1005.64 1092.5,1001.5C 1085.08,995.278 1077.08,989.778 1068.5,985C 1066.54,983.549 1065.2,981.716 1064.5,979.5C 1062.98,979.489 1061.82,978.823 1061,977.5C 1058.87,975.422 1059.03,973.588 1061.5,972C 1065.17,971.333 1068.83,971.333 1072.5,972C 1080.42,980.55 1090.09,986.384 1101.5,989.5 Z"/></g>
<g><path style="opacity:1" fill="#87725c" d="M 1064.5,979.5 C 1064.5,977.5 1064.5,975.5 1064.5,973.5C 1067.19,973.336 1069.85,973.503 1072.5,974C 1074.81,978.975 1078.47,982.641 1083.5,985C 1088.44,987.913 1093.77,989.913 1099.5,991C 1102.55,995.182 1101.89,998.682 1097.5,1001.5C 1094.21,998.863 1090.54,996.863 1086.5,995.5C 1085.57,994.311 1085.24,992.978 1085.5,991.5C 1082.45,990.964 1079.45,990.131 1076.5,989C 1072.43,985.838 1068.43,982.671 1064.5,979.5 Z"/></g>
<g><path style="opacity:1" fill="#3b2e21" d="M 1093.5,983.5 C 1089.73,981.374 1085.73,979.541 1081.5,978C 1074.14,969.434 1064.81,965.767 1053.5,967C 1052.28,969.283 1052.28,971.616 1053.5,974C 1055.78,975.618 1057.28,977.785 1058,980.5C 1063.13,984.638 1068.3,988.638 1073.5,992.5C 1075.51,996.471 1078.84,998.471 1083.5,998.5C 1083.49,1000.31 1083.99,1001.98 1085,1003.5C 1088.82,1006.33 1092.32,1009.49 1095.5,1013C 1094.83,1013.33 1094.17,1013.67 1093.5,1014C 1095.59,1014.32 1097.59,1014.82 1099.5,1015.5C 1096.69,1016.47 1093.69,1017.14 1090.5,1017.5C 1090.77,1015.9 1090.43,1014.57 1089.5,1013.5C 1088.84,1010.18 1087.18,1007.51 1084.5,1005.5C 1081.22,1003.89 1078.56,1001.56 1076.5,998.5C 1066.88,993.763 1058.38,987.429 1051,979.5C 1050.86,975.495 1050.02,971.662 1048.5,968C 1050.49,965.681 1052.99,964.181 1056,963.5C 1060.65,964.121 1065.15,965.288 1069.5,967C 1075.17,968.662 1079.51,971.995 1082.5,977C 1087.44,977.235 1091.11,979.402 1093.5,983.5 Z"/></g>
<g><path style="opacity:0.812" fill="#3a3221" d="M 1095.5,983.5 C 1098.43,984.65 1101.43,985.65 1104.5,986.5C 1109.1,991.167 1113.27,996.167 1117,1001.5C 1117,1004.17 1117,1006.83 1117,1009.5C 1118.01,1010.34 1119.18,1010.67 1120.5,1010.5C 1118.61,1012.8 1116.27,1013.46 1113.5,1012.5C 1113.51,1013.44 1113.01,1014.11 1112,1014.5C 1109.23,1013.39 1106.73,1012.72 1104.5,1012.5C 1106.39,1011.64 1108.22,1010.64 1110,1009.5C 1110.33,1009.83 1110.67,1010.17 1111,1010.5C 1111.84,1008.16 1112.67,1005.83 1113.5,1003.5C 1111.23,999.391 1108.73,995.391 1106,991.5C 1104.67,990.418 1103.17,989.751 1101.5,989.5C 1099.5,987.5 1097.5,985.5 1095.5,983.5 Z"/></g>
<g><path style="opacity:0.812" fill="#4f432e" d="M 1101.5,989.5 C 1103.17,989.751 1104.67,990.418 1106,991.5C 1108.73,995.391 1111.23,999.391 1113.5,1003.5C 1112.67,1005.83 1111.84,1008.16 1111,1010.5C 1110.67,1010.17 1110.33,1009.83 1110,1009.5C 1108.22,1010.64 1106.39,1011.64 1104.5,1012.5C 1103.6,1013.6 1102.77,1013.6 1102,1012.5C 1100.27,1013.35 1100.1,1014.35 1101.5,1015.5C 1100.83,1015.5 1100.17,1015.5 1099.5,1015.5C 1097.59,1014.82 1095.59,1014.32 1093.5,1014C 1094.17,1013.67 1094.83,1013.33 1095.5,1013C 1092.32,1009.49 1088.82,1006.33 1085,1003.5C 1083.99,1001.98 1083.49,1000.31 1083.5,998.5C 1078.84,998.471 1075.51,996.471 1073.5,992.5C 1079.54,996.072 1085.87,999.072 1092.5,1001.5C 1093.92,1005.64 1096.92,1007.64 1101.5,1007.5C 1105.36,1007.51 1107.69,1005.68 1108.5,1002C 1107.29,997.062 1104.95,992.895 1101.5,989.5 Z"/></g>
<g><path style="opacity:0.887" fill="#050903" d="M 1125.5,997.5 C 1127.93,998.764 1129.93,1000.6 1131.5,1003C 1140.16,1005.58 1148.16,1008.24 1155.5,1011C 1157.83,1012.67 1160.17,1014.33 1162.5,1016C 1172.12,1018.64 1180.78,1022.97 1188.5,1029C 1191.5,1029.67 1194.5,1029.67 1197.5,1029C 1196.44,1027.81 1195.1,1027.31 1193.5,1027.5C 1192.99,1025.49 1192.82,1023.49 1193,1021.5C 1196.07,1022.24 1198.24,1024.07 1199.5,1027C 1202.79,1027.88 1206.12,1028.55 1209.5,1029C 1211.12,1029.85 1211.46,1030.85 1210.5,1032C 1212.33,1033.83 1214.17,1035.67 1216,1037.5C 1217.33,1036.83 1218.33,1035.83 1219,1034.5C 1219.28,1035.42 1219.78,1036.08 1220.5,1036.5C 1223.06,1041.19 1221.39,1044.02 1215.5,1045C 1212.83,1045.67 1210.17,1045.67 1207.5,1045C 1184.17,1034.84 1160.5,1025.5 1136.5,1017C 1132.85,1016.28 1129.19,1015.78 1125.5,1015.5C 1126.17,1014.83 1126.83,1014.17 1127.5,1013.5C 1130.8,1013.67 1131.13,1013 1128.5,1011.5C 1130,1009.58 1132,1008.41 1134.5,1008C 1132.9,1007.73 1131.4,1007.23 1130,1006.5C 1128.47,1003.45 1126.97,1000.45 1125.5,997.5 Z"/></g>
<g><path style="opacity:0.02" fill="#323232" d="M 1120.5,1010.5 C 1121.4,1011.21 1121.74,1012.21 1121.5,1013.5C 1118.93,1013.72 1116.6,1014.39 1114.5,1015.5C 1110.17,1015.5 1105.83,1015.5 1101.5,1015.5C 1100.1,1014.35 1100.27,1013.35 1102,1012.5C 1102.77,1013.6 1103.6,1013.6 1104.5,1012.5C 1106.73,1012.72 1109.23,1013.39 1112,1014.5C 1113.01,1014.11 1113.51,1013.44 1113.5,1012.5C 1116.27,1013.46 1118.61,1012.8 1120.5,1010.5 Z"/></g>
<g><path style="opacity:0.298" fill="#0c0c0a" d="M 514.5,1071.5 C 511.986,1071.25 509.652,1070.41 507.5,1069C 506.253,1067.54 506.253,1066.04 507.5,1064.5C 505.5,1063.67 503.5,1062.83 501.5,1062C 502.05,1060.16 503.05,1058.66 504.5,1057.5C 505.598,1061.36 506.431,1061.36 507,1057.5C 507.667,1056.17 508.333,1056.17 509,1057.5C 509.483,1056.55 509.649,1055.55 509.5,1054.5C 514,1055.48 518.333,1056.14 522.5,1056.5C 520.337,1058.72 517.837,1059.05 515,1057.5C 514.474,1059.55 513.641,1061.38 512.5,1063C 513.672,1063.35 514.838,1063.19 516,1062.5C 517.892,1062.78 519.225,1063.78 520,1065.5C 520.824,1064.19 521.324,1062.69 521.5,1061C 524.512,1060.22 527.345,1059.05 530,1057.5C 530.09,1059.77 528.923,1061.27 526.5,1062C 528.044,1063.19 529.711,1063.52 531.5,1063C 530.833,1062.67 530.167,1062.33 529.5,1062C 532.383,1059.26 535.716,1057.26 539.5,1056C 537.833,1055.67 536.167,1055.33 534.5,1055C 534.833,1054.67 535.167,1054.33 535.5,1054C 533.432,1053.31 531.432,1053.48 529.5,1054.5C 526.552,1054.08 525.885,1052.75 527.5,1050.5C 527.444,1049.26 526.944,1048.26 526,1047.5C 520.679,1049.37 517.845,1047.37 517.5,1041.5C 517.43,1039.58 517.596,1037.58 518,1035.5C 515.149,1033.59 513.649,1031.26 513.5,1028.5C 512.15,1027.05 510.484,1026.38 508.5,1026.5C 508.5,1025.5 508.5,1024.5 508.5,1023.5C 507.5,1023.5 506.5,1023.5 505.5,1023.5C 505.534,1026.2 504.867,1028.7 503.5,1031C 503.665,1032.84 504.332,1034.84 505.5,1037C 505.167,1037.17 504.833,1037.33 504.5,1037.5C 502.042,1033.2 501.042,1028.54 501.5,1023.5C 502.117,1023.61 502.617,1023.94 503,1024.5C 503.758,1022.23 503.591,1020.06 502.5,1018C 503.28,1015.5 504.28,1013 505.5,1010.5C 504.543,1007.98 503.21,1005.64 501.5,1003.5C 502.602,1003.44 503.935,1003.28 505.5,1003C 506.659,1004.83 507.992,1006.49 509.5,1008C 508.039,1010.99 508.705,1013.49 511.5,1015.5C 510.833,1016.5 510.167,1017.5 509.5,1018.5C 511.584,1021 513.417,1023.67 515,1026.5C 517.561,1028.68 520.394,1029.35 523.5,1028.5C 526.524,1030.01 529.191,1032.01 531.5,1034.5C 533.146,1038.43 532.313,1041.76 529,1044.5C 528.667,1044.17 528.333,1043.83 528,1043.5C 527.251,1044.64 527.417,1045.64 528.5,1046.5C 529.906,1047.95 531.406,1049.28 533,1050.5C 533.414,1050.04 533.914,1049.71 534.5,1049.5C 540.294,1053.03 546.627,1054.87 553.5,1055C 549.724,1055.59 546.057,1056.59 542.5,1058C 541.62,1059.36 541.286,1060.86 541.5,1062.5C 544.012,1062.42 546.012,1063.42 547.5,1065.5C 545.023,1067.55 542.357,1067.89 539.5,1066.5C 535.145,1068.67 530.645,1069 526,1067.5C 523.667,1068.5 521.333,1069.5 519,1070.5C 517.774,1070.36 516.607,1070.02 515.5,1069.5C 514.702,1069.96 514.369,1070.62 514.5,1071.5 Z"/></g>
<g><path style="opacity:0.522" fill="#0a0f08" d="M 455.5,1020.5 C 454.199,1021.64 453.032,1022.97 452,1024.5C 450.553,1020.38 449.553,1016.38 449,1012.5C 448.667,1012.83 448.333,1013.17 448,1013.5C 447.167,1011.5 446.333,1009.5 445.5,1007.5C 444.5,1008.83 443.5,1008.83 442.5,1007.5C 441.219,1012.03 439.885,1016.53 438.5,1021C 439.622,1022.61 439.122,1023.78 437,1024.5C 436.667,1023.83 436.333,1023.17 436,1022.5C 435.333,1025.17 435.333,1027.83 436,1030.5C 436.333,1030.17 436.667,1029.83 437,1029.5C 437.159,1034.64 438.326,1039.48 440.5,1044C 440.294,1045.37 439.96,1046.7 439.5,1048C 441.287,1051.07 442.953,1054.24 444.5,1057.5C 443.726,1058.71 442.893,1058.71 442,1057.5C 441.333,1058.17 441.333,1058.83 442,1059.5C 445.969,1059.16 449.969,1059.83 454,1061.5C 460.824,1061.95 467.657,1061.28 474.5,1059.5C 478.089,1060.06 481.422,1061.23 484.5,1063C 482.833,1063.33 481.167,1063.67 479.5,1064C 482.586,1064.91 485.586,1066.08 488.5,1067.5C 489.5,1065.5 490.5,1063.5 491.5,1061.5C 491.182,1060.35 490.516,1059.52 489.5,1059C 490.517,1057.95 490.684,1056.78 490,1055.5C 486.779,1055.39 483.446,1054.72 480,1053.5C 475.45,1056.32 471.283,1055.82 467.5,1052C 469.769,1049.88 472.102,1049.55 474.5,1051C 478.5,1051.67 482.5,1051.67 486.5,1051C 482.301,1050.47 478.301,1049.64 474.5,1048.5C 481.589,1048.88 488.589,1048.38 495.5,1047C 497.049,1045.79 498.215,1044.29 499,1042.5C 499.499,1037.18 499.666,1031.84 499.5,1026.5C 499.372,1024.35 499.872,1022.35 501,1020.5C 502.728,1021.35 502.895,1022.35 501.5,1023.5C 501.042,1028.54 502.042,1033.2 504.5,1037.5C 504.833,1037.33 505.167,1037.17 505.5,1037C 504.332,1034.84 503.665,1032.84 503.5,1031C 504.867,1028.7 505.534,1026.2 505.5,1023.5C 506.5,1023.5 507.5,1023.5 508.5,1023.5C 508.5,1024.5 508.5,1025.5 508.5,1026.5C 510.484,1026.38 512.15,1027.05 513.5,1028.5C 513.649,1031.26 515.149,1033.59 518,1035.5C 517.596,1037.58 517.43,1039.58 517.5,1041.5C 517.845,1047.37 520.679,1049.37 526,1047.5C 526.944,1048.26 527.444,1049.26 527.5,1050.5C 525.885,1052.75 526.552,1054.08 529.5,1054.5C 531.432,1053.48 533.432,1053.31 535.5,1054C 535.167,1054.33 534.833,1054.67 534.5,1055C 536.167,1055.33 537.833,1055.67 539.5,1056C 535.716,1057.26 532.383,1059.26 529.5,1062C 530.167,1062.33 530.833,1062.67 531.5,1063C 529.711,1063.52 528.044,1063.19 526.5,1062C 528.923,1061.27 530.09,1059.77 530,1057.5C 527.345,1059.05 524.512,1060.22 521.5,1061C 521.324,1062.69 520.824,1064.19 520,1065.5C 519.225,1063.78 517.892,1062.78 516,1062.5C 514.838,1063.19 513.672,1063.35 512.5,1063C 513.641,1061.38 514.474,1059.55 515,1057.5C 517.837,1059.05 520.337,1058.72 522.5,1056.5C 518.333,1056.14 514,1055.48 509.5,1054.5C 509.649,1055.55 509.483,1056.55 509,1057.5C 508.333,1056.17 507.667,1056.17 507,1057.5C 506.431,1061.36 505.598,1061.36 504.5,1057.5C 503.05,1058.66 502.05,1060.16 501.5,1062C 503.5,1062.83 505.5,1063.67 507.5,1064.5C 506.253,1066.04 506.253,1067.54 507.5,1069C 509.652,1070.41 511.986,1071.25 514.5,1071.5C 519.959,1075.17 525.626,1078 531.5,1080C 525.309,1080.27 519.143,1080.77 513,1081.5C 509.849,1080.89 506.849,1079.89 504,1078.5C 503.764,1080.12 502.931,1081.12 501.5,1081.5C 487.74,1071.97 472.407,1067.14 455.5,1067C 438.334,1063.38 430.667,1052.71 432.5,1035C 433.118,1025.03 434.618,1015.19 437,1005.5C 441.064,1002.09 445.564,1001.59 450.5,1004C 452.049,1005.21 453.215,1006.71 454,1008.5C 454.501,1012.51 455.001,1016.51 455.5,1020.5 Z"/></g>
<g><path style="opacity:0.963" fill="#0f160a" d="M 455.5,1020.5 C 455.616,1028.58 457.45,1036.25 461,1043.5C 464.883,1046.76 469.383,1048.43 474.5,1048.5C 478.301,1049.64 482.301,1050.47 486.5,1051C 482.5,1051.67 478.5,1051.67 474.5,1051C 472.102,1049.55 469.769,1049.88 467.5,1052C 471.283,1055.82 475.45,1056.32 480,1053.5C 483.446,1054.72 486.779,1055.39 490,1055.5C 490.684,1056.78 490.517,1057.95 489.5,1059C 490.516,1059.52 491.182,1060.35 491.5,1061.5C 490.5,1063.5 489.5,1065.5 488.5,1067.5C 485.586,1066.08 482.586,1064.91 479.5,1064C 481.167,1063.67 482.833,1063.33 484.5,1063C 481.422,1061.23 478.089,1060.06 474.5,1059.5C 467.657,1061.28 460.824,1061.95 454,1061.5C 449.969,1059.83 445.969,1059.16 442,1059.5C 441.333,1058.83 441.333,1058.17 442,1057.5C 442.893,1058.71 443.726,1058.71 444.5,1057.5C 442.953,1054.24 441.287,1051.07 439.5,1048C 439.96,1046.7 440.294,1045.37 440.5,1044C 438.326,1039.48 437.159,1034.64 437,1029.5C 436.667,1029.83 436.333,1030.17 436,1030.5C 435.333,1027.83 435.333,1025.17 436,1022.5C 436.333,1023.17 436.667,1023.83 437,1024.5C 439.122,1023.78 439.622,1022.61 438.5,1021C 439.885,1016.53 441.219,1012.03 442.5,1007.5C 443.5,1008.83 444.5,1008.83 445.5,1007.5C 446.333,1009.5 447.167,1011.5 448,1013.5C 448.333,1013.17 448.667,1012.83 449,1012.5C 449.553,1016.38 450.553,1020.38 452,1024.5C 453.032,1022.97 454.199,1021.64 455.5,1020.5 Z"/></g>
<g><path style="opacity:0.822" fill="#0b0d0b" d="M 1073.5,1007.5 C 1074.98,1007.24 1076.31,1007.57 1077.5,1008.5C 1080,1011.27 1082.83,1013.6 1086,1015.5C 1087.03,1015.16 1087.53,1014.5 1087.5,1013.5C 1088.17,1013.5 1088.83,1013.5 1089.5,1013.5C 1090.43,1014.57 1090.77,1015.9 1090.5,1017.5C 1083.33,1024.81 1081.16,1033.48 1084,1043.5C 1090.02,1054.39 1093.85,1066.06 1095.5,1078.5C 1093.45,1086.28 1091.45,1093.95 1089.5,1101.5C 1088.71,1102.61 1088.21,1103.94 1088,1105.5C 1087.88,1100.86 1087.72,1096.69 1087.5,1093C 1088.17,1092.67 1088.83,1092.33 1089.5,1092C 1088.29,1090.89 1088.29,1089.72 1089.5,1088.5C 1089.17,1088.17 1088.83,1087.83 1088.5,1087.5C 1087.42,1088.67 1086.58,1090 1086,1091.5C 1085.69,1090.69 1085.19,1090.03 1084.5,1089.5C 1083.77,1091.34 1083.1,1093.17 1082.5,1095C 1083.45,1095.48 1084.45,1095.65 1085.5,1095.5C 1085.65,1096.55 1085.48,1097.55 1085,1098.5C 1084.58,1097.04 1083.74,1096.54 1082.5,1097C 1084.06,1099.64 1083.73,1101.98 1081.5,1104C 1082.02,1104.56 1082.36,1105.23 1082.5,1106C 1081.39,1108.05 1080.72,1110.21 1080.5,1112.5C 1079.5,1112.5 1078.5,1112.5 1077.5,1112.5C 1077.64,1116.18 1076.97,1119.68 1075.5,1123C 1075.96,1123.41 1076.29,1123.91 1076.5,1124.5C 1074.31,1125.17 1072.31,1126.17 1070.5,1127.5C 1069.24,1124.07 1067.07,1120.74 1064,1117.5C 1063.33,1114.17 1063.33,1110.83 1064,1107.5C 1066.87,1106.33 1069.37,1104.67 1071.5,1102.5C 1069.6,1099.42 1068.93,1096.25 1069.5,1093C 1070.33,1091.18 1071.16,1089.35 1072,1087.5C 1075.09,1086.75 1077.25,1084.91 1078.5,1082C 1077.53,1077.71 1075.53,1073.54 1072.5,1069.5C 1072.71,1068.91 1073.04,1068.41 1073.5,1068C 1071,1066.22 1071,1064.55 1073.5,1063C 1071.99,1060.58 1070.33,1058.24 1068.5,1056C 1064.72,1055 1062.39,1052.5 1061.5,1048.5C 1061.71,1047.91 1062.04,1047.41 1062.5,1047C 1061.04,1044.92 1060.38,1042.59 1060.5,1040C 1060.91,1032.37 1062.08,1024.87 1064,1017.5C 1066.99,1014.89 1069.99,1012.22 1073,1009.5C 1073.46,1008.91 1073.63,1008.24 1073.5,1007.5 Z"/></g>
<g><path style="opacity:0.969" fill="#050902" d="M 230.5,1262.5 C 231.436,1261.03 232.77,1260.03 234.5,1259.5C 238.943,1260.15 243.276,1259.48 247.5,1257.5C 247.281,1256.32 247.614,1255.32 248.5,1254.5C 249.773,1254.75 250.94,1254.75 252,1254.5C 254.124,1251.68 257.124,1249.01 261,1246.5C 263.136,1247.03 264.97,1246.2 266.5,1244C 272.526,1240.66 278.859,1237.82 285.5,1235.5C 286.251,1234.62 286.751,1233.62 287,1232.5C 287.308,1233.31 287.808,1233.97 288.5,1234.5C 293.793,1232.19 298.793,1229.35 303.5,1226C 306.095,1225.77 308.595,1225.27 311,1224.5C 311.465,1225.93 312.299,1227.1 313.5,1228C 307.102,1232.48 300.102,1235.81 292.5,1238C 291.833,1239.33 291.167,1240.67 290.5,1242C 286.526,1243 282.526,1243.83 278.5,1244.5C 277.376,1245.91 276.376,1247.41 275.5,1249C 267.84,1254.65 259.674,1259.49 251,1263.5C 250.365,1264.97 249.531,1266.3 248.5,1267.5C 249.333,1267.83 250.167,1268.17 251,1268.5C 260.834,1266.36 270.668,1265.86 280.5,1267C 279.007,1268.37 277.507,1268.53 276,1267.5C 267.936,1269.04 259.769,1270.04 251.5,1270.5C 249.166,1269.16 247.499,1269.83 246.5,1272.5C 244.568,1271.48 242.568,1271.31 240.5,1272C 241.308,1272.31 241.975,1272.81 242.5,1273.5C 239.044,1275.62 235.377,1277.29 231.5,1278.5C 229.067,1277.98 227.067,1276.81 225.5,1275C 226.569,1271.86 228.569,1269.53 231.5,1268C 230.833,1267.67 230.167,1267.33 229.5,1267C 231.044,1266.71 232.377,1266.04 233.5,1265C 232.88,1262.9 231.88,1262.06 230.5,1262.5 Z"/></g>
<g><path style="opacity:0.973" fill="#060904" d="M 903.5,1212.5 C 911.269,1216.72 919.269,1220.39 927.5,1223.5C 933.01,1225.93 937.343,1229.77 940.5,1235C 939.328,1235.42 938.328,1236.09 937.5,1237C 940.167,1237.67 940.167,1238.33 937.5,1239C 939.538,1240.24 940.705,1242.07 941,1244.5C 943.73,1244.16 946.563,1243.99 949.5,1244C 950.667,1243.5 951.5,1242.67 952,1241.5C 952.725,1243.16 953.892,1243.66 955.5,1243C 954.449,1241.62 953.116,1240.62 951.5,1240C 952.876,1237.46 954.043,1237.29 955,1239.5C 956.375,1237.06 956.875,1234.4 956.5,1231.5C 955.178,1231.33 954.011,1231.66 953,1232.5C 952.398,1229.34 952.898,1226.34 954.5,1223.5C 955.316,1225.29 956.316,1226.95 957.5,1228.5C 958.086,1228.29 958.586,1227.96 959,1227.5C 957.873,1232.78 957.206,1238.11 957,1243.5C 953.34,1245.41 950.173,1247.91 947.5,1251C 946.552,1251.48 945.552,1251.65 944.5,1251.5C 944.714,1253.14 944.38,1254.64 943.5,1256C 937.268,1255.93 931.268,1255.43 925.5,1254.5C 922.273,1255.52 918.94,1256.35 915.5,1257C 919.721,1257.37 923.721,1258.37 927.5,1260C 923.975,1260.18 920.641,1260.68 917.5,1261.5C 915.149,1263.2 912.482,1263.7 909.5,1263C 904.602,1258.59 899.602,1254.43 894.5,1250.5C 892.967,1248.21 893.3,1247.54 895.5,1248.5C 896.583,1247.64 896.749,1246.64 896,1245.5C 892.858,1243.69 890.025,1241.52 887.5,1239C 891.225,1239.01 894.892,1239.68 898.5,1241C 903.519,1244.67 909.019,1247.5 915,1249.5C 918.525,1248.66 922.025,1247.66 925.5,1246.5C 927.392,1247.81 929.059,1247.65 930.5,1246C 928.974,1244.11 926.974,1243.11 924.5,1243C 923.773,1241.6 923.273,1240.1 923,1238.5C 919.897,1236.7 917.063,1234.53 914.5,1232C 908.506,1231.02 903.506,1228.35 899.5,1224C 896.624,1223.56 893.957,1222.56 891.5,1221C 889.678,1218.18 887.511,1215.68 885,1213.5C 884,1214.17 883,1214.83 882,1215.5C 879.631,1214.07 879.131,1212.24 880.5,1210C 878.269,1208.72 876.602,1206.89 875.5,1204.5C 875.723,1198.61 878.723,1195.28 884.5,1194.5C 884.52,1196.14 883.853,1197.48 882.5,1198.5C 883.747,1200.04 883.747,1201.54 882.5,1203C 882.689,1205.29 884.023,1207.29 886.5,1209C 888.909,1209.75 891.075,1210.91 893,1212.5C 894.657,1211.52 896.323,1210.52 898,1209.5C 899.488,1211.16 901.321,1212.16 903.5,1212.5 Z"/></g>
<g><path style="opacity:0.966" fill="#070905" d="M 373.5,1270.5 C 377.551,1272.85 381.884,1274.69 386.5,1276C 397.939,1277.51 409.272,1279.34 420.5,1281.5C 423.258,1282.76 426.258,1283.59 429.5,1284C 423.995,1283.5 418.662,1283.5 413.5,1284C 417.461,1285.6 421.461,1287.1 425.5,1288.5C 427.628,1290.1 427.628,1291.1 425.5,1291.5C 418.903,1291.43 412.236,1291.27 405.5,1291C 390,1290.59 376.166,1285.75 364,1276.5C 362.221,1274.08 361.554,1271.41 362,1268.5C 362.667,1269.83 363.333,1271.17 364,1272.5C 364.333,1272.17 364.667,1271.83 365,1271.5C 366.399,1272.23 367.899,1272.73 369.5,1273C 371.604,1275.61 373.938,1276.27 376.5,1275C 375.78,1272.88 374.613,1272.38 373,1273.5C 372.26,1272.25 372.427,1271.25 373.5,1270.5 Z"/></g>
<g><path style="opacity:0.927" fill="#050802" d="M 610.5,1226.5 C 611.675,1226.28 612.675,1226.61 613.5,1227.5C 610.922,1229.57 609.422,1232.24 609,1235.5C 607.2,1237.88 604.867,1239.55 602,1240.5C 601.333,1242.5 600.667,1244.5 600,1246.5C 596.706,1250.13 593.206,1253.46 589.5,1256.5C 588.123,1258.29 587.123,1260.29 586.5,1262.5C 583.337,1263.32 581.67,1265.32 581.5,1268.5C 580.448,1268.35 579.448,1268.52 578.5,1269C 575.282,1272.19 571.782,1275.02 568,1277.5C 564.302,1277.61 562.136,1279.44 561.5,1283C 557.483,1283.44 554.983,1285.61 554,1289.5C 550.385,1290.61 547.885,1292.95 546.5,1296.5C 539.664,1301.18 532.997,1306.01 526.5,1311C 522.615,1312.85 518.615,1314.52 514.5,1316C 510.076,1316.18 505.743,1316.35 501.5,1316.5C 498.855,1315.89 496.188,1315.39 493.5,1315C 491.152,1314.65 489.319,1313.49 488,1311.5C 480.78,1313.19 474.28,1311.69 468.5,1307C 469.701,1306.1 470.535,1304.93 471,1303.5C 472,1304.83 473,1304.83 474,1303.5C 474.5,1304.67 475.333,1305.5 476.5,1306C 480.563,1306.04 484.397,1306.87 488,1308.5C 491.107,1307.65 494.107,1307.32 497,1307.5C 497.5,1308 498,1308.5 498.5,1309C 503.225,1309.66 507.725,1310.16 512,1310.5C 513.833,1309.33 515.333,1307.83 516.5,1306C 520.069,1304.69 523.402,1303.69 526.5,1303C 526.167,1302.67 525.833,1302.33 525.5,1302C 531.381,1300.45 536.548,1297.62 541,1293.5C 541.718,1294.45 542.551,1294.62 543.5,1294C 542.167,1293.33 542.167,1292.67 543.5,1292C 562.46,1278.43 580.127,1262.09 596.5,1243C 597.448,1242.52 598.448,1242.35 599.5,1242.5C 602.161,1236.52 605.828,1231.19 610.5,1226.5 Z"/></g>
<g><path style="opacity:0.925" fill="#030901" d="M 686.5,1322.5 C 688.092,1324.58 688.925,1326.91 689,1329.5C 686.038,1333.81 683.038,1338.14 680,1342.5C 679,1343.17 678,1343.83 677,1344.5C 675.667,1347.83 674.333,1351.17 673,1354.5C 669.933,1356.77 667.933,1359.77 667,1363.5C 665.559,1364.26 664.059,1364.93 662.5,1365.5C 661.757,1366.91 660.923,1368.24 660,1369.5C 659.333,1366.83 659.333,1364.17 660,1361.5C 661.036,1358.03 661.869,1354.53 662.5,1351C 661.701,1349.25 662.368,1347.92 664.5,1347C 664.167,1346.67 663.833,1346.33 663.5,1346C 664.893,1344.83 665.727,1343.33 666,1341.5C 667.507,1342.53 669.007,1342.37 670.5,1341C 671.641,1340.26 671.641,1339.43 670.5,1338.5C 673.395,1337.2 676.062,1335.53 678.5,1333.5C 679.711,1332.73 679.711,1331.89 678.5,1331C 681.966,1328.89 684.633,1326.05 686.5,1322.5 Z"/></g>
<g><path style="opacity:0.99" fill="#050a03" d="M 1056.5,1295.5 C 1073.92,1303.74 1091.25,1312.24 1108.5,1321C 1111.79,1322.47 1114.45,1324.63 1116.5,1327.5C 1116.44,1328.04 1116.11,1328.38 1115.5,1328.5C 1113.97,1325.97 1112.97,1326.3 1112.5,1329.5C 1112.81,1332 1114.15,1334.17 1116.5,1336C 1114.11,1336.57 1112.11,1337.74 1110.5,1339.5C 1102.81,1336.24 1095.31,1332.57 1088,1328.5C 1087.59,1328.96 1087.09,1329.29 1086.5,1329.5C 1069.51,1322.81 1053.18,1315.65 1037.5,1308C 1030.5,1307.5 1030.16,1306.84 1036.5,1306C 1037.63,1304.98 1037.3,1304.32 1035.5,1304C 1037.52,1303.6 1038.85,1302.43 1039.5,1300.5C 1037.89,1296.79 1035.89,1293.29 1033.5,1290C 1033.29,1288.32 1034.13,1286.82 1036,1285.5C 1038.26,1287.05 1040.42,1288.71 1042.5,1290.5C 1043.73,1289.86 1045.07,1289.69 1046.5,1290C 1045.55,1289.28 1045.38,1288.45 1046,1287.5C 1048.78,1291.11 1052.28,1293.78 1056.5,1295.5 Z"/></g>
</svg>
