<?xml version="1.0" encoding="UTF-8"?>
<!DOCTYPE svg PUBLIC "-//W3C//DTD SVG 1.1//EN" "http://www.w3.org/Graphics/SVG/1.1/DTD/svg11.dtd">
<svg xmlns="http://www.w3.org/2000/svg" version="1.1" width="2160px" height="2160px" style="shape-rendering:geometricPrecision; text-rendering:geometricPrecision; image-rendering:optimizeQuality; fill-rule:evenodd; clip-rule:evenodd" xmlns:xlink="http://www.w3.org/1999/xlink">
<g><path style="opacity:0.949" fill="#000100" d="M 958.5,874.5 C 958.082,875.222 957.416,875.722 956.5,876C 959.146,876.497 961.813,876.664 964.5,876.5C 964.703,878.39 964.037,879.89 962.5,881C 959.823,882.515 957.157,883.015 954.5,882.5C 952.857,886.571 952.524,890.904 953.5,895.5C 954.833,895.5 956.167,895.5 957.5,895.5C 957.662,893.473 957.495,891.473 957,889.5C 956.667,890.5 956.333,891.5 956,892.5C 955.598,891.128 955.098,889.795 954.5,888.5C 955.098,887.205 955.598,885.872 956,884.5C 960.846,886.132 965.679,886.299 970.5,885C 971.708,880.959 974.375,878.459 978.5,877.5C 978.848,874.59 980.348,872.59 983,871.5C 983.456,870.256 982.956,869.423 981.5,869C 982.678,868.033 984.011,867.533 985.5,867.5C 986.244,866.009 986.91,864.509 987.5,863C 987.108,860.646 987.108,858.146 987.5,855.5C 988.833,855.5 990.167,855.5 991.5,855.5C 991.182,851.206 992.015,847.206 994,843.5C 995.011,842.663 996.178,842.33 997.5,842.5C 997.69,848.272 997.023,853.939 995.5,859.5C 994.264,860.246 992.93,860.579 991.5,860.5C 991.297,862.638 990.297,864.305 988.5,865.5C 988.782,867.987 988.782,870.653 988.5,873.5C 990.408,872.194 993.075,871.361 996.5,871C 994.841,875.321 993.175,879.654 991.5,884C 991.7,886.537 993.033,888.204 995.5,889C 998.758,889.212 1001.92,889.712 1005,890.5C 1005.67,887.833 1006.33,887.833 1007,890.5C 1008.89,889.903 1010.72,889.569 1012.5,889.5C 1012.36,890.569 1012.36,891.736 1012.5,893C 1017.03,895.113 1021.37,894.78 1025.5,892C 1026.62,889.654 1028.28,887.821 1030.5,886.5C 1032.07,887.309 1033.74,887.643 1035.5,887.5C 1035.3,885.011 1035.8,882.677 1037,880.5C 1038.01,879.663 1039.18,879.33 1040.5,879.5C 1040.93,876.637 1041.93,873.971 1043.5,871.5C 1044.72,870.289 1045.89,870.289 1047,871.5C 1048.44,867.753 1049.94,867.92 1051.5,872C 1050.46,873.617 1049.3,873.784 1048,872.5C 1044.69,874.4 1043.86,877.067 1045.5,880.5C 1044.05,882.667 1042.89,885 1042,887.5C 1040.89,888.711 1039.72,888.711 1038.5,887.5C 1036.44,891.136 1036.27,894.803 1038,898.5C 1039.14,898.273 1040.3,897.94 1041.5,897.5C 1041.52,894.986 1042.02,892.319 1043,889.5C 1047.93,884.985 1052.76,880.318 1057.5,875.5C 1058.58,876.365 1058.75,877.365 1058,878.5C 1055.71,879.79 1053.71,881.457 1052,883.5C 1051.26,884.749 1051.43,885.749 1052.5,886.5C 1050.18,889.475 1049.34,892.808 1050,896.5C 1052,898.059 1054.33,898.726 1057,898.5C 1082.97,894.089 1108.8,889.089 1134.5,883.5C 1135.25,884.573 1136.25,884.74 1137.5,884C 1139.3,883.028 1140.97,881.861 1142.5,880.5C 1142.35,881.492 1142.69,882.658 1143.5,884C 1140.92,886.515 1138.08,888.682 1135,890.5C 1131.03,888.962 1130.03,889.962 1132,893.5C 1133.67,891.597 1135.5,891.263 1137.5,892.5C 1140.15,891.892 1142.81,891.392 1145.5,891C 1146.62,889.926 1147.62,888.76 1148.5,887.5C 1149.45,886.674 1150.45,886.508 1151.5,887C 1151.94,890.555 1151.94,894.221 1151.5,898C 1151.31,899.973 1151.98,901.473 1153.5,902.5C 1154.99,900.844 1156.66,899.344 1158.5,898C 1158.17,897.667 1157.83,897.333 1157.5,897C 1158.4,894.429 1159.73,892.096 1161.5,890C 1162.17,889.333 1162.83,889.333 1163.5,890C 1162.35,892.746 1161.85,895.579 1162,898.5C 1162.7,896.416 1163.86,894.749 1165.5,893.5C 1164.07,897.354 1162.4,901.021 1160.5,904.5C 1159.92,912.571 1158.59,919.904 1156.5,926.5C 1157.26,929.681 1156.93,932.848 1155.5,936C 1155.9,938.337 1155.9,940.837 1155.5,943.5C 1158.11,943.277 1159.78,944.444 1160.5,947C 1158.62,952.211 1159.62,956.711 1163.5,960.5C 1162.33,961.906 1162.67,963.072 1164.5,964C 1164.25,966.089 1164.25,968.089 1164.5,970C 1166.6,970.489 1166.94,971.655 1165.5,973.5C 1165.53,975.029 1166.2,976.196 1167.5,977C 1165.97,979.33 1166.3,981.33 1168.5,983C 1167.83,983.333 1167.17,983.667 1166.5,984C 1167.83,986 1167.83,988 1166.5,990C 1167.45,990.617 1168.28,990.451 1169,989.5C 1169.83,993.014 1171.33,996.181 1173.5,999C 1173.22,1000.96 1173.22,1003.12 1173.5,1005.5C 1171.48,1004.54 1169.65,1003.21 1168,1001.5C 1167.83,1002.17 1167.67,1002.83 1167.5,1003.5C 1168.69,1005.36 1168.69,1007.19 1167.5,1009C 1169.76,1011.75 1171.26,1014.92 1172,1018.5C 1173.71,1020.54 1175.71,1022.21 1178,1023.5C 1178.88,1028.81 1180.55,1033.81 1183,1038.5C 1187.15,1042.8 1190.82,1047.47 1194,1052.5C 1195.51,1054.17 1197.34,1055.17 1199.5,1055.5C 1199.2,1057.6 1199.53,1059.6 1200.5,1061.5C 1202.26,1061.36 1203.92,1061.86 1205.5,1063C 1202.41,1063.65 1199.41,1063.32 1196.5,1062C 1195.52,1059.87 1193.85,1058.71 1191.5,1058.5C 1189.05,1058.24 1186.72,1057.57 1184.5,1056.5C 1183.04,1057.61 1182.04,1057.11 1181.5,1055C 1178.56,1052.72 1175.23,1051.05 1171.5,1050C 1170.17,1049.33 1170.17,1048.67 1171.5,1048C 1164.99,1044.77 1158.49,1040.93 1152,1036.5C 1151.67,1036.83 1151.33,1037.17 1151,1037.5C 1146.66,1034.55 1142.16,1031.89 1137.5,1029.5C 1136.17,1026.51 1134.17,1024.18 1131.5,1022.5C 1129.59,1016.25 1125.59,1011.92 1119.5,1009.5C 1118.2,1007.06 1116.53,1004.9 1114.5,1003C 1107.72,999.975 1102.39,995.308 1098.5,989C 1091.51,986.157 1085.17,982.323 1079.5,977.5C 1077.29,976.365 1074.96,975.699 1072.5,975.5C 1072.71,973.286 1071.88,971.619 1070,970.5C 1064.26,971.931 1058.43,972.765 1052.5,973C 1047.19,975.441 1044.86,979.607 1045.5,985.5C 1047.12,992.418 1049.62,999.084 1053,1005.5C 1060.03,1011.9 1066.36,1018.9 1072,1026.5C 1074.29,1027.82 1076.45,1029.32 1078.5,1031C 1078.63,1032.55 1078.3,1034.21 1077.5,1036C 1075.98,1038.46 1074.31,1040.96 1072.5,1043.5C 1070.99,1050.42 1069.99,1057.42 1069.5,1064.5C 1069.39,1067.38 1070.05,1070.04 1071.5,1072.5C 1073.5,1073.83 1075.17,1075.5 1076.5,1077.5C 1075.83,1079.51 1074.83,1081.34 1073.5,1083C 1076.36,1090.03 1079.36,1096.7 1082.5,1103C 1078.93,1104.04 1075.43,1105.2 1072,1106.5C 1070.92,1109.25 1070.08,1112.08 1069.5,1115C 1071.3,1117.8 1073.47,1120.3 1076,1122.5C 1075.62,1124.07 1075.79,1125.57 1076.5,1127C 1075.83,1128 1075.17,1129 1074.5,1130C 1071.52,1131.49 1068.52,1132.99 1065.5,1134.5C 1064.22,1137.32 1064.22,1140.15 1065.5,1143C 1064.29,1144.63 1063.45,1146.46 1063,1148.5C 1058.79,1150.32 1055.13,1152.99 1052,1156.5C 1050.49,1160.68 1048.15,1164.35 1045,1167.5C 1044.43,1170.22 1044.1,1172.89 1044,1175.5C 1047.02,1172.8 1049.02,1169.46 1050,1165.5C 1055.68,1157.59 1062.51,1150.92 1070.5,1145.5C 1072.98,1142.88 1074.81,1139.88 1076,1136.5C 1077.67,1135.17 1079.33,1133.83 1081,1132.5C 1080.66,1128.54 1081.49,1124.71 1083.5,1121C 1081.03,1119.6 1081.03,1118.1 1083.5,1116.5C 1084.58,1117.67 1085.42,1119 1086,1120.5C 1086.33,1119.83 1086.67,1119.17 1087,1118.5C 1087.33,1121.17 1087.67,1123.83 1088,1126.5C 1088.33,1126.17 1088.67,1125.83 1089,1125.5C 1088.57,1122.02 1088.74,1118.35 1089.5,1114.5C 1091.26,1112.75 1092.59,1110.75 1093.5,1108.5C 1092.1,1114.4 1091.27,1120.4 1091,1126.5C 1090.56,1129.38 1089.56,1132.04 1088,1134.5C 1083.94,1139.56 1080.28,1144.89 1077,1150.5C 1072.15,1153.93 1067.49,1157.59 1063,1161.5C 1055.52,1175.79 1047.52,1189.79 1039,1203.5C 1034,1209.83 1029,1216.17 1024,1222.5C 1016.08,1241.2 1015.41,1260.2 1022,1279.5C 1025.83,1288.65 1030.5,1297.32 1036,1305.5C 1040.73,1309.74 1045.56,1313.74 1050.5,1317.5C 1047.66,1316.83 1045.16,1315.49 1043,1313.5C 1042.78,1314.94 1042.28,1316.27 1041.5,1317.5C 1038.36,1315.59 1035.03,1314.26 1031.5,1313.5C 1031.33,1312.18 1031.66,1311.01 1032.5,1310C 1031.24,1308.89 1030.07,1308.72 1029,1309.5C 1027.69,1308.69 1026.52,1307.69 1025.5,1306.5C 1025.17,1307 1024.83,1307.5 1024.5,1308C 1025.98,1312.81 1028.31,1317.14 1031.5,1321C 1029.04,1322.22 1026.37,1322.88 1023.5,1323C 1024.83,1323.33 1026.17,1323.67 1027.5,1324C 1023.68,1325.14 1023.51,1326.64 1027,1328.5C 1037.76,1335.04 1048.76,1341.04 1060,1346.5C 1060.33,1346.17 1060.67,1345.83 1061,1345.5C 1072.29,1350.58 1083.13,1355.58 1093.5,1360.5C 1094.09,1360.29 1094.59,1359.96 1095,1359.5C 1098.76,1362.09 1102.93,1362.92 1107.5,1362C 1106.66,1360.99 1106.33,1359.82 1106.5,1358.5C 1107.68,1358.72 1108.68,1358.39 1109.5,1357.5C 1108.37,1356.38 1107.7,1355.04 1107.5,1353.5C 1110.31,1355.6 1111.97,1358.44 1112.5,1362C 1111.72,1365.73 1109.39,1367.56 1105.5,1367.5C 1087.63,1361.73 1070.29,1354.57 1053.5,1346C 1044.83,1342.67 1036.17,1339.33 1027.5,1336C 1024.5,1335.33 1021.5,1335.33 1018.5,1336C 1002.29,1345.38 985.291,1347.04 967.5,1341C 956.414,1336.93 950.247,1329.09 949,1317.5C 948.5,1308.84 948.334,1300.17 948.5,1291.5C 949.363,1290.54 950.03,1290.54 950.5,1291.5C 949.364,1299.78 949.197,1308.12 950,1316.5C 951.016,1317.63 951.683,1317.3 952,1315.5C 953.224,1320.18 955.724,1324.02 959.5,1327C 958.786,1328.34 959.12,1329.68 960.5,1331C 962.218,1331.35 963.885,1331.85 965.5,1332.5C 966.086,1332.29 966.586,1331.96 967,1331.5C 977.879,1336.16 989.379,1337.99 1001.5,1337C 1000.38,1336.75 999.376,1336.25 998.5,1335.5C 1001.21,1332.19 1004.54,1329.69 1008.5,1328C 1005.64,1327.92 1002.97,1328.75 1000.5,1330.5C 999.472,1332.36 997.972,1333.69 996,1334.5C 991.453,1334.4 987.619,1332.74 984.5,1329.5C 983.808,1330.03 983.308,1330.69 983,1331.5C 979.945,1330.09 976.778,1328.92 973.5,1328C 971.559,1327.26 969.726,1327.42 968,1328.5C 966.103,1326.98 963.936,1326.32 961.5,1326.5C 960.51,1318.52 960.343,1310.52 961,1302.5C 962.827,1302.19 963.994,1300.69 964.5,1298C 962.646,1295.46 961.479,1292.62 961,1289.5C 958.718,1286.43 955.884,1283.93 952.5,1282C 953.167,1281.33 953.833,1280.67 954.5,1280C 950.987,1279.16 948.32,1277.16 946.5,1274C 945.004,1273.49 943.837,1273.99 943,1275.5C 940.417,1274.13 937.917,1272.63 935.5,1271C 940.938,1269.92 946.272,1269.42 951.5,1269.5C 951.241,1266.52 952.574,1264.69 955.5,1264C 954.274,1261.4 954.94,1260.57 957.5,1261.5C 958.491,1245.83 958.991,1230.16 959,1214.5C 958.333,1213.17 957.667,1213.17 957,1214.5C 956.007,1217.31 955.173,1220.14 954.5,1223C 954.833,1223.33 955.167,1223.67 955.5,1224C 953.106,1225.95 951.606,1228.45 951,1231.5C 951.021,1226.09 950.188,1220.76 948.5,1215.5C 951.805,1206.74 950.971,1198.41 946,1190.5C 940.405,1186.5 934.239,1186 927.5,1189C 919.449,1193.02 911.783,1197.52 904.5,1202.5C 903.749,1201.43 902.749,1201.26 901.5,1202C 897.594,1205.47 893.26,1208.3 888.5,1210.5C 886.027,1212.1 886.027,1213.6 888.5,1215C 885.923,1216.25 883.257,1216.58 880.5,1216C 878.833,1214 877.167,1212 875.5,1210C 880.627,1204.77 887.294,1201.43 895.5,1200C 898.557,1197.28 901.89,1194.94 905.5,1193C 904.134,1190.56 904.634,1190.06 907,1191.5C 909.12,1190.53 910.953,1189.19 912.5,1187.5C 912.192,1186.69 911.692,1186.03 911,1185.5C 906.504,1186.66 903.004,1189.16 900.5,1193C 890.857,1197.15 881.523,1201.82 872.5,1207C 872.833,1207.33 873.167,1207.67 873.5,1208C 872.056,1209.13 871.39,1210.63 871.5,1212.5C 872.459,1218.78 875.626,1223.44 881,1226.5C 881.483,1227.45 881.649,1228.45 881.5,1229.5C 888.56,1233.53 895.894,1237.2 903.5,1240.5C 907.571,1241.14 911.571,1241.97 915.5,1243C 916.282,1245.74 916.782,1248.57 917,1251.5C 919.432,1253.52 921.265,1256.02 922.5,1259C 921.552,1259.48 920.552,1259.65 919.5,1259.5C 919.541,1263.24 918.874,1263.41 917.5,1260C 913.459,1259.17 909.459,1259.34 905.5,1260.5C 909,1264.17 913.167,1266.84 918,1268.5C 918.333,1268.17 918.667,1267.83 919,1267.5C 921.533,1269.86 924.366,1271.86 927.5,1273.5C 924.974,1274.51 922.808,1273.84 921,1271.5C 919.479,1271.52 917.979,1271.85 916.5,1272.5C 904.248,1268.02 892.248,1262.86 880.5,1257C 870.418,1249.63 859.751,1243.29 848.5,1238C 844.5,1237.33 840.5,1237.33 836.5,1238C 832.248,1238.59 829.581,1240.92 828.5,1245C 829.975,1248.12 831.308,1251.28 832.5,1254.5C 830.864,1253.25 829.697,1251.58 829,1249.5C 827.028,1251.44 824.861,1251.78 822.5,1250.5C 820.111,1247.43 818.111,1244.1 816.5,1240.5C 818.297,1237.21 820.63,1234.37 823.5,1232C 823,1231.5 822.5,1231 822,1230.5C 820.644,1231.38 819.144,1231.71 817.5,1231.5C 812.651,1240.65 813.818,1248.98 821,1256.5C 823.047,1265.89 827.713,1273.89 835,1280.5C 839.103,1290.56 843.603,1300.39 848.5,1310C 848.655,1313.49 850.155,1316.66 853,1319.5C 853.667,1322.17 854.333,1324.83 855,1327.5C 857.245,1329.62 859.245,1331.96 861,1334.5C 863.324,1345.81 867.324,1356.48 873,1366.5C 874,1367.83 875,1369.17 876,1370.5C 876.45,1368.48 877.283,1366.65 878.5,1365C 876.343,1363.92 876.176,1362.75 878,1361.5C 878.973,1363.39 879.64,1365.39 880,1367.5C 880.23,1363.52 881.563,1362.85 884,1365.5C 885.376,1368.05 886.543,1370.72 887.5,1373.5C 887.833,1373.17 888.167,1372.83 888.5,1372.5C 886.484,1367.44 884.484,1362.44 882.5,1357.5C 884.81,1360.1 886.643,1363.1 888,1366.5C 890.784,1373.3 892.451,1380.3 893,1387.5C 883.252,1411.32 873.252,1434.99 863,1458.5C 860.436,1469.09 857.102,1479.43 853,1489.5C 849.461,1506.2 845.794,1522.86 842,1539.5C 838.471,1547.34 833.304,1548.51 826.5,1543C 822.266,1539.36 819.432,1534.86 818,1529.5C 816,1513.5 814,1497.5 812,1481.5C 808.059,1469.74 805.059,1457.74 803,1445.5C 802.532,1424.47 801.532,1403.47 800,1382.5C 794.098,1369.7 786.431,1358.04 777,1347.5C 763.321,1332.14 748.154,1318.64 731.5,1307C 729.167,1306.33 726.833,1306.33 724.5,1307C 714.732,1314.76 705.565,1323.26 697,1332.5C 680.225,1353.51 662.391,1373.68 643.5,1393C 631.707,1400.82 618.874,1405.98 605,1408.5C 602.624,1408.46 601.124,1407.29 600.5,1405C 603.895,1399.84 606.728,1394.34 609,1388.5C 622.325,1372.01 636.158,1356.01 650.5,1340.5C 655.25,1340.18 655.584,1341.68 651.5,1345C 651.833,1345.33 652.167,1345.67 652.5,1346C 649.172,1350.92 650.172,1352.42 655.5,1350.5C 659.636,1342.85 665.136,1336.18 672,1330.5C 675.058,1326.92 676.225,1322.92 675.5,1318.5C 677.181,1316.01 677.848,1313.51 677.5,1311C 676.186,1305.24 674.186,1299.74 671.5,1294.5C 669.684,1292.56 667.684,1291.89 665.5,1292.5C 667.949,1297.04 669.949,1301.37 671.5,1305.5C 670.167,1308.83 670.167,1312.17 671.5,1315.5C 670.431,1318.54 669.265,1321.54 668,1324.5C 666.644,1323.62 665.144,1323.29 663.5,1323.5C 666.431,1315.99 665.931,1308.66 662,1301.5C 660.53,1299.85 658.697,1298.85 656.5,1298.5C 642.864,1305.15 630.864,1313.98 620.5,1325C 612.31,1329.52 604.977,1335.19 598.5,1342C 588.333,1346.73 578,1347.73 567.5,1345C 560.676,1342.09 554.342,1338.42 548.5,1334C 534.93,1331.61 521.263,1330.95 507.5,1332C 499.284,1333.3 491.117,1334.8 483,1336.5C 476.229,1335.69 469.729,1333.86 463.5,1331C 452.681,1329.62 442.348,1331.29 432.5,1336C 421.483,1337.55 413.15,1333.55 407.5,1324C 389.711,1312.54 374.877,1298.04 363,1280.5C 350.6,1267.76 336.767,1256.93 321.5,1248C 309.484,1241.49 297.151,1235.82 284.5,1231C 280.5,1228 276.5,1225 272.5,1222C 269.272,1217.86 265.605,1214.19 261.5,1211C 249.756,1206.9 237.756,1204.06 225.5,1202.5C 213.647,1203.1 201.98,1204.94 190.5,1208C 186.739,1208.74 183.072,1208.4 179.5,1207C 178.101,1205.94 177.101,1204.61 176.5,1203C 178.321,1198.51 180.988,1194.67 184.5,1191.5C 184.369,1192.24 184.536,1192.91 185,1193.5C 185.615,1191.88 186.615,1190.55 188,1189.5C 188.667,1192.17 189.333,1192.17 190,1189.5C 190.445,1191.59 189.612,1193.09 187.5,1194C 187.833,1194.33 188.167,1194.67 188.5,1195C 186.571,1197.91 186.404,1200.74 188,1203.5C 191.782,1201.01 195.782,1200.01 200,1200.5C 208.957,1198.84 217.79,1196.68 226.5,1194C 223.286,1192.17 220.119,1192.34 217,1194.5C 213.943,1193.55 210.777,1193.22 207.5,1193.5C 207.33,1192.18 207.663,1191.01 208.5,1190C 213.103,1189.73 216.769,1187.73 219.5,1184C 221.218,1183.65 222.885,1183.15 224.5,1182.5C 225.086,1182.71 225.586,1183.04 226,1183.5C 231.626,1179.96 237.793,1177.79 244.5,1177C 245.469,1175.24 246.636,1174.74 248,1175.5C 248.983,1173.55 250.15,1171.72 251.5,1170C 255.25,1169.74 258.916,1169.07 262.5,1168C 264.5,1167.33 265.833,1166 266.5,1164C 273.023,1162.26 279.523,1160.42 286,1158.5C 287.762,1158.94 287.595,1159.44 285.5,1160C 287.23,1161.85 288.396,1161.69 289,1159.5C 289.811,1163.9 290.977,1164.23 292.5,1160.5C 291.619,1159.03 290.286,1158.2 288.5,1158C 289.833,1157.33 289.833,1156.67 288.5,1156C 285.288,1153.47 281.955,1151.97 278.5,1151.5C 278.709,1150.91 279.043,1150.41 279.5,1150C 282.5,1149.67 285.5,1149.33 288.5,1149C 287.234,1148.69 286.067,1148.19 285,1147.5C 282.619,1148.44 280.119,1148.77 277.5,1148.5C 283.051,1145.5 288.384,1146 293.5,1150C 300.573,1160.41 308.406,1170.24 317,1179.5C 320.776,1185.39 324.276,1191.39 327.5,1197.5C 326.637,1196.54 325.97,1196.54 325.5,1197.5C 326.752,1199 327.752,1200.67 328.5,1202.5C 327.167,1203.5 327.167,1204.5 328.5,1205.5C 328.333,1205.83 328.167,1206.17 328,1206.5C 326.667,1205.17 325.333,1203.83 324,1202.5C 321.064,1204.76 320.73,1207.43 323,1210.5C 328.333,1217.18 335,1222.18 343,1225.5C 345.291,1224.69 347.125,1225.52 348.5,1228C 354.795,1230.66 361.128,1232.99 367.5,1235C 374.02,1235.69 380.52,1235.52 387,1234.5C 390.41,1235.8 393.91,1236.3 397.5,1236C 393.256,1233.27 388.589,1231.77 383.5,1231.5C 383.649,1230.45 383.483,1229.45 383,1228.5C 382.086,1229.65 381.253,1229.49 380.5,1228C 382.112,1227.28 383.612,1227.45 385,1228.5C 385.995,1227.93 386.828,1227.27 387.5,1226.5C 397.681,1229.05 407.681,1232.21 417.5,1236C 430.56,1241.95 443.56,1247.79 456.5,1253.5C 455.448,1253.35 454.448,1253.52 453.5,1254C 454.766,1254.31 455.933,1254.81 457,1255.5C 457.688,1256.33 457.521,1257 456.5,1257.5C 455.402,1256.38 454.235,1256.38 453,1257.5C 449.36,1254.82 448.36,1255.48 450,1259.5C 455.67,1262.59 461.503,1265.59 467.5,1268.5C 475.709,1264.56 484.375,1262.39 493.5,1262C 499.565,1259.55 505.398,1256.72 511,1253.5C 511.414,1253.96 511.914,1254.29 512.5,1254.5C 517.677,1250.94 523.343,1248.44 529.5,1247C 529.167,1246.67 528.833,1246.33 528.5,1246C 532.703,1243.22 537.37,1241.88 542.5,1242C 545.427,1239.62 548.261,1237.12 551,1234.5C 551.333,1234.83 551.667,1235.17 552,1235.5C 554.469,1233.35 557.302,1231.85 560.5,1231C 563.227,1225.71 567.561,1222.88 573.5,1222.5C 573.297,1220.61 573.963,1219.11 575.5,1218C 580.419,1214.89 585.419,1212.06 590.5,1209.5C 591.947,1206.43 594.28,1204.27 597.5,1203C 600.934,1198.81 604.6,1194.81 608.5,1191C 613.761,1188.31 618.261,1184.81 622,1180.5C 622.667,1179.5 622.667,1178.5 622,1177.5C 611.954,1183.54 602.454,1190.37 593.5,1198C 590.797,1201.04 587.797,1203.7 584.5,1206C 585.258,1207.36 584.758,1208.53 583,1209.5C 579.636,1209.82 576.803,1211.65 574.5,1215C 546.591,1232.79 516.925,1247.12 485.5,1258C 483.109,1258.29 480.776,1258.79 478.5,1259.5C 474.907,1259.74 471.573,1259.41 468.5,1258.5C 476.011,1255.9 483.678,1253.73 491.5,1252C 490.552,1251.52 489.552,1251.35 488.5,1251.5C 516.596,1241.86 542.929,1228.69 567.5,1212C 578.747,1204.09 589.413,1195.42 599.5,1186C 604,1180.17 609.167,1175 615,1170.5C 621.713,1162.39 620.546,1155.56 611.5,1150C 595.403,1142.9 581.236,1133.06 569,1120.5C 566.277,1117.44 563.944,1114.11 562,1110.5C 558,1099.83 554,1089.17 550,1078.5C 545.013,1066.66 536.18,1060.66 523.5,1060.5C 526.083,1059.78 528.749,1058.94 531.5,1058C 530.892,1057.13 530.059,1056.63 529,1056.5C 526.547,1057.49 524.047,1057.66 521.5,1057C 524.713,1056.39 527.713,1055.23 530.5,1053.5C 533.957,1055.61 537.29,1055.61 540.5,1053.5C 536.291,1051.66 531.958,1050.33 527.5,1049.5C 527.5,1047.83 527.5,1046.17 527.5,1044.5C 525.345,1044.63 523.345,1044.13 521.5,1043C 522.772,1041.95 524.272,1041.45 526,1041.5C 534.461,1042.22 542.961,1043.55 551.5,1045.5C 554.167,1045.33 556.833,1045.17 559.5,1045C 561.816,1042.26 563.982,1039.43 566,1036.5C 565.966,1027.62 563.133,1026.45 557.5,1033C 556.552,1033.48 555.552,1033.65 554.5,1033.5C 555.126,1029.62 553.459,1027.79 549.5,1028C 550.451,1027.28 550.617,1026.45 550,1025.5C 545.75,1021.54 540.75,1019.21 535,1018.5C 533.667,1018.5 532.333,1018.5 531,1018.5C 529.847,1020.5 528.347,1020.83 526.5,1019.5C 524.396,1013.15 522.23,1006.82 520,1000.5C 518.333,999.167 516.667,997.833 515,996.5C 514.416,991.485 512.916,986.818 510.5,982.5C 507,977.74 503,973.407 498.5,969.5C 497.264,968.754 495.93,968.421 494.5,968.5C 494.67,967.178 494.337,966.011 493.5,965C 490.929,964.099 488.596,962.766 486.5,961C 484.707,958.205 482.54,955.705 480,953.5C 478.334,954.34 478.167,953.84 479.5,952C 478.551,951.383 477.718,951.549 477,952.5C 474.526,950.18 471.692,948.513 468.5,947.5C 468.343,948.873 468.51,950.207 469,951.5C 476.708,958.509 484.375,965.509 492,972.5C 496.221,977.386 500.054,982.553 503.5,988C 502.792,990.723 501.125,991.723 498.5,991C 498.5,988.667 498.5,986.333 498.5,984C 491.923,976.142 490.589,976.642 494.5,985.5C 492.929,988.093 490.596,989.093 487.5,988.5C 488.609,987.71 489.942,987.21 491.5,987C 492.059,986.275 492.392,985.442 492.5,984.5C 491.863,981.893 490.696,979.56 489,977.5C 469.301,957.134 448.968,937.467 428,918.5C 420.438,910.047 414.938,900.381 411.5,889.5C 412.458,889.047 413.292,888.381 414,887.5C 414.007,889.619 415.174,891.453 417.5,893C 418.449,893.617 419.282,893.451 420,892.5C 420.692,893.025 421.192,893.692 421.5,894.5C 426.621,895.268 431.288,896.934 435.5,899.5C 436.7,902.792 439.367,905.292 443.5,907C 447.374,910.876 451.541,914.376 456,917.5C 456.333,917.167 456.667,916.833 457,916.5C 462.376,923.175 468.376,929.175 475,934.5C 475.404,937.943 477.071,939.276 480,938.5C 483.417,942.257 487.084,945.59 491,948.5C 491.309,949.766 491.809,950.933 492.5,952C 497.869,955.69 502.869,959.857 507.5,964.5C 510.068,966.717 513.068,967.884 516.5,968C 517.717,969.648 518.55,971.481 519,973.5C 519.333,973.167 519.667,972.833 520,972.5C 522.38,975.924 525.213,978.924 528.5,981.5C 529.086,981.291 529.586,980.957 530,980.5C 533.362,984.917 537.862,987.583 543.5,988.5C 543.719,987.325 543.386,986.325 542.5,985.5C 537.601,980.691 532.935,975.691 528.5,970.5C 528.667,970.167 528.833,969.833 529,969.5C 531.833,971.667 534.667,973.833 537.5,976C 536.549,976.718 536.383,977.551 537,978.5C 540.377,978.879 544.21,978.879 548.5,978.5C 550.517,976.471 551.517,973.971 551.5,971C 552.26,966.173 552.426,961.34 552,956.5C 551.333,961.167 550.667,965.833 550,970.5C 546.603,979.415 542.103,979.748 536.5,971.5C 538.85,972.994 541.35,974.327 544,975.5C 545.605,974.899 546.938,973.899 548,972.5C 549.226,965.477 550.559,958.477 552,951.5C 554.074,946.525 557.241,942.358 561.5,939C 571.982,934.505 581.982,929.172 591.5,923C 623.653,892.284 657.653,863.951 693.5,838C 700.193,834.621 706.86,831.287 713.5,828C 739.184,829.671 763.184,837.005 785.5,850C 794.423,853.53 803.423,856.863 812.5,860C 838.143,855.885 862.476,859.885 885.5,872C 901.383,881.776 917.716,890.776 934.5,899C 936.813,899.662 939.146,900.162 941.5,900.5C 941.604,893.324 942.604,886.324 944.5,879.5C 948.58,876.343 953.247,874.677 958.5,874.5 Z M 1005.5,947.5 C 1012.9,945.856 1017.23,948.69 1018.5,956C 1016.36,964.136 1011.36,969.636 1003.5,972.5C 998.594,970.888 996.261,967.388 996.5,962C 996.367,955.079 999.367,950.245 1005.5,947.5 Z M 776.5,985.5 C 746.26,985.798 716.26,988.631 686.5,994C 680.786,995.509 675.452,997.675 670.5,1000.5C 664.178,1004 657.511,1006.83 650.5,1009C 635.591,1011.78 620.924,1015.45 606.5,1020C 601.891,1021.07 597.724,1020.24 594,1017.5C 593.333,1016.17 593.333,1014.83 594,1013.5C 599.919,1009.79 605.752,1005.96 611.5,1002C 615.167,997.667 618.833,993.333 622.5,989C 640.5,980.667 658.5,972.333 676.5,964C 681.677,962.039 687.01,960.706 692.5,960C 723.227,958.973 753.56,961.973 783.5,969C 788.62,971.06 793.62,973.393 798.5,976C 800.036,977.599 800.536,979.433 800,981.5C 797.34,982.834 794.506,983.668 791.5,984C 786.316,984.174 781.316,984.674 776.5,985.5 Z M 695.5,1029.5 C 725.508,1029.47 755.508,1029.97 785.5,1031C 787.648,1033.07 787.982,1035.41 786.5,1038C 776.866,1043.15 767.533,1048.82 758.5,1055C 746.594,1059.96 734.26,1063.13 721.5,1064.5C 702.213,1062 682.88,1059.84 663.5,1058C 655.982,1056.24 648.648,1053.91 641.5,1051C 639.156,1050.16 637.156,1048.83 635.5,1047C 636.167,1045.67 637.167,1044.67 638.5,1044C 657.032,1036.78 676.032,1031.95 695.5,1029.5 Z M 948.5,1215.5 C 946.451,1226.74 944.951,1238.07 944,1249.5C 943.311,1250.36 942.478,1251.02 941.5,1251.5C 933.126,1241.63 923.126,1233.8 911.5,1228C 907.764,1223.98 903.93,1220.15 900,1216.5C 898.699,1214.64 898.365,1212.64 899,1210.5C 900.596,1207.63 902.43,1204.96 904.5,1202.5C 911.783,1197.52 919.449,1193.02 927.5,1189C 934.239,1186 940.405,1186.5 946,1190.5C 950.971,1198.41 951.805,1206.74 948.5,1215.5 Z"/></g>
<g><path style="opacity:0.926" fill="#040903" d="M 1052.5,886.5 C 1051.43,885.749 1051.26,884.749 1052,883.5C 1053.71,881.457 1055.71,879.79 1058,878.5C 1058.75,877.365 1058.58,876.365 1057.5,875.5C 1052.76,880.318 1047.93,884.985 1043,889.5C 1042.02,892.319 1041.52,894.986 1041.5,897.5C 1040.3,897.94 1039.14,898.273 1038,898.5C 1036.27,894.803 1036.44,891.136 1038.5,887.5C 1039.72,888.711 1040.89,888.711 1042,887.5C 1042.89,885 1044.05,882.667 1045.5,880.5C 1043.86,877.067 1044.69,874.4 1048,872.5C 1049.3,873.784 1050.46,873.617 1051.5,872C 1049.94,867.92 1048.44,867.753 1047,871.5C 1045.89,870.289 1044.72,870.289 1043.5,871.5C 1041.93,873.971 1040.93,876.637 1040.5,879.5C 1039.18,879.33 1038.01,879.663 1037,880.5C 1035.8,882.677 1035.3,885.011 1035.5,887.5C 1033.74,887.643 1032.07,887.309 1030.5,886.5C 1028.28,887.821 1026.62,889.654 1025.5,892C 1021.37,894.78 1017.03,895.113 1012.5,893C 1012.36,891.736 1012.36,890.569 1012.5,889.5C 1010.72,889.569 1008.89,889.903 1007,890.5C 1006.33,887.833 1005.67,887.833 1005,890.5C 1001.92,889.712 998.758,889.212 995.5,889C 993.033,888.204 991.7,886.537 991.5,884C 993.175,879.654 994.841,875.321 996.5,871C 993.075,871.361 990.408,872.194 988.5,873.5C 988.782,870.653 988.782,867.987 988.5,865.5C 990.297,864.305 991.297,862.638 991.5,860.5C 992.93,860.579 994.264,860.246 995.5,859.5C 997.023,853.939 997.69,848.272 997.5,842.5C 996.178,842.33 995.011,842.663 994,843.5C 992.015,847.206 991.182,851.206 991.5,855.5C 990.167,855.5 988.833,855.5 987.5,855.5C 987.108,858.146 987.108,860.646 987.5,863C 986.91,864.509 986.244,866.009 985.5,867.5C 984.011,867.533 982.678,868.033 981.5,869C 982.956,869.423 983.456,870.256 983,871.5C 980.348,872.59 978.848,874.59 978.5,877.5C 974.375,878.459 971.708,880.959 970.5,885C 965.679,886.299 960.846,886.132 956,884.5C 955.598,885.872 955.098,887.205 954.5,888.5C 955.098,889.795 955.598,891.128 956,892.5C 956.333,891.5 956.667,890.5 957,889.5C 957.495,891.473 957.662,893.473 957.5,895.5C 956.167,895.5 954.833,895.5 953.5,895.5C 952.524,890.904 952.857,886.571 954.5,882.5C 957.157,883.015 959.823,882.515 962.5,881C 964.037,879.89 964.703,878.39 964.5,876.5C 961.813,876.664 959.146,876.497 956.5,876C 957.416,875.722 958.082,875.222 958.5,874.5C 963.753,869.423 969.253,864.423 975,859.5C 1005.19,807.122 1033.86,753.788 1061,699.5C 1064.1,695.73 1067.76,692.73 1072,690.5C 1076.76,691.008 1078.93,693.674 1078.5,698.5C 1076.98,704.565 1075.15,710.565 1073,716.5C 1064.98,735.863 1056.98,755.197 1049,774.5C 1039.26,791.981 1030.59,809.981 1023,828.5C 1018.33,833.832 1014.66,839.832 1012,846.5C 1007.56,857.872 1002.73,869.039 997.5,880C 997.759,881.261 998.426,882.261 999.5,883C 1005.79,886.085 1012.12,886.085 1018.5,883C 1022.33,881.254 1025.99,879.254 1029.5,877C 1034.12,870.252 1038.62,863.419 1043,856.5C 1047.3,853.202 1051.3,849.535 1055,845.5C 1058.93,836.899 1064.43,829.399 1071.5,823C 1087.86,815.679 1094.02,820.846 1090,838.5C 1080.75,851.326 1071.75,864.326 1063,877.5C 1059.38,880.389 1055.88,883.389 1052.5,886.5 Z"/></g>
<g><path style="opacity:0.882" fill="#050903" d="M 1165.5,893.5 C 1163.86,894.749 1162.7,896.416 1162,898.5C 1161.85,895.579 1162.35,892.746 1163.5,890C 1162.83,889.333 1162.17,889.333 1161.5,890C 1159.73,892.096 1158.4,894.429 1157.5,897C 1157.83,897.333 1158.17,897.667 1158.5,898C 1156.66,899.344 1154.99,900.844 1153.5,902.5C 1151.98,901.473 1151.31,899.973 1151.5,898C 1151.94,894.221 1151.94,890.555 1151.5,887C 1150.45,886.508 1149.45,886.674 1148.5,887.5C 1147.62,888.76 1146.62,889.926 1145.5,891C 1142.81,891.392 1140.15,891.892 1137.5,892.5C 1135.5,891.263 1133.67,891.597 1132,893.5C 1130.03,889.962 1131.03,888.962 1135,890.5C 1138.08,888.682 1140.92,886.515 1143.5,884C 1142.69,882.658 1142.35,881.492 1142.5,880.5C 1140.97,881.861 1139.3,883.028 1137.5,884C 1136.25,884.74 1135.25,884.573 1134.5,883.5C 1143.92,878.241 1150.75,870.574 1155,860.5C 1158.09,856.041 1162.25,853.875 1167.5,854C 1174.34,856.248 1179.34,860.582 1182.5,867C 1181.71,869.96 1180.55,872.794 1179,875.5C 1174.25,881.401 1169.75,887.401 1165.5,893.5 Z"/></g>
<g><path style="opacity:0.335" fill="#050604" d="M 536.5,971.5 C 542.103,979.748 546.603,979.415 550,970.5C 550.667,965.833 551.333,961.167 552,956.5C 552.426,961.34 552.26,966.173 551.5,971C 551.517,973.971 550.517,976.471 548.5,978.5C 544.21,978.879 540.377,978.879 537,978.5C 536.383,977.551 536.549,976.718 537.5,976C 534.667,973.833 531.833,971.667 529,969.5C 528.833,969.833 528.667,970.167 528.5,970.5C 532.935,975.691 537.601,980.691 542.5,985.5C 543.386,986.325 543.719,987.325 543.5,988.5C 537.862,987.583 533.362,984.917 530,980.5C 529.586,980.957 529.086,981.291 528.5,981.5C 525.213,978.924 522.38,975.924 520,972.5C 519.667,972.833 519.333,973.167 519,973.5C 518.55,971.481 517.717,969.648 516.5,968C 513.068,967.884 510.068,966.717 507.5,964.5C 502.869,959.857 497.869,955.69 492.5,952C 491.809,950.933 491.309,949.766 491,948.5C 487.084,945.59 483.417,942.257 480,938.5C 477.071,939.276 475.404,937.943 475,934.5C 468.376,929.175 462.376,923.175 457,916.5C 456.667,916.833 456.333,917.167 456,917.5C 451.541,914.376 447.374,910.876 443.5,907C 439.367,905.292 436.7,902.792 435.5,899.5C 431.288,896.934 426.621,895.268 421.5,894.5C 421.192,893.692 420.692,893.025 420,892.5C 419.282,893.451 418.449,893.617 417.5,893C 415.174,891.453 414.007,889.619 414,887.5C 413.292,888.381 412.458,889.047 411.5,889.5C 409.165,883.845 408.998,878.178 411,872.5C 426.676,878.178 439.51,887.678 449.5,901C 470.539,919.707 491.872,938.041 513.5,956C 521.578,960.694 529.244,965.861 536.5,971.5 Z"/></g>
<g><path style="opacity:0.443" fill="#05060c" d="M 1160.5,904.5 C 1160.6,916.268 1161.76,927.934 1164,939.5C 1168.73,960.891 1173.56,982.225 1178.5,1003.5C 1176.88,1005.42 1177.22,1006.92 1179.5,1008C 1178.79,1009.25 1177.96,1010.42 1177,1011.5C 1176.33,1010.17 1175.67,1010.17 1175,1011.5C 1174.73,1009.67 1173.89,1008.17 1172.5,1007C 1173.06,1006.62 1173.39,1006.12 1173.5,1005.5C 1173.22,1003.12 1173.22,1000.96 1173.5,999C 1171.33,996.181 1169.83,993.014 1169,989.5C 1168.28,990.451 1167.45,990.617 1166.5,990C 1167.83,988 1167.83,986 1166.5,984C 1167.17,983.667 1167.83,983.333 1168.5,983C 1166.3,981.33 1165.97,979.33 1167.5,977C 1166.2,976.196 1165.53,975.029 1165.5,973.5C 1166.94,971.655 1166.6,970.489 1164.5,970C 1164.25,968.089 1164.25,966.089 1164.5,964C 1162.67,963.072 1162.33,961.906 1163.5,960.5C 1159.62,956.711 1158.62,952.211 1160.5,947C 1159.78,944.444 1158.11,943.277 1155.5,943.5C 1155.9,940.837 1155.9,938.337 1155.5,936C 1156.93,932.848 1157.26,929.681 1156.5,926.5C 1158.59,919.904 1159.92,912.571 1160.5,904.5 Z"/></g>
<g><path style="opacity:0.897" fill="#0d1509" d="M 475.5,1006.5 C 472.383,1006.64 469.883,1007.98 468,1010.5C 464.755,1022.4 466.589,1033.4 473.5,1043.5C 472.504,1043.59 471.671,1043.25 471,1042.5C 470.221,1044.91 471.054,1046.57 473.5,1047.5C 473.167,1047.83 472.833,1048.17 472.5,1048.5C 464.946,1046.82 464.612,1047.99 471.5,1052C 483.232,1054.14 494.899,1053.81 506.5,1051C 507.603,1049.32 507.27,1047.82 505.5,1046.5C 501.709,1045.56 498.375,1043.9 495.5,1041.5C 496.659,1039.75 498.326,1038.75 500.5,1038.5C 501.645,1039.79 501.311,1040.96 499.5,1042C 502.768,1042.38 505.768,1041.55 508.5,1039.5C 509.5,1040 510.5,1040.5 511.5,1041C 508.833,1042.67 508.833,1044.33 511.5,1046C 511.167,1046.33 510.833,1046.67 510.5,1047C 513.287,1049.91 516.287,1052.58 519.5,1055C 514.515,1057.41 509.682,1059.91 505,1062.5C 504.667,1062.17 504.333,1061.83 504,1061.5C 496.673,1063.25 489.506,1064.59 482.5,1065.5C 474.064,1063.41 465.731,1061.75 457.5,1060.5C 455.871,1059.37 454.371,1058.04 453,1056.5C 451.294,1051.85 449.128,1047.51 446.5,1043.5C 447.891,1041.04 449.058,1038.37 450,1035.5C 450.583,1037 451.416,1038.33 452.5,1039.5C 453.442,1034.52 454.276,1029.52 455,1024.5C 456.043,1026.7 456.877,1029.03 457.5,1031.5C 458.086,1031.29 458.586,1030.96 459,1030.5C 460.679,1022.03 462.179,1013.87 463.5,1006C 464.833,1005.33 466.167,1004.67 467.5,1004C 467.167,1003.67 466.833,1003.33 466.5,1003C 470.147,1002.23 473.814,1001.56 477.5,1001C 474.609,999.726 471.942,998.226 469.5,996.5C 481.145,993.581 492.812,993.248 504.5,995.5C 505.747,998.704 504.914,1001.37 502,1003.5C 494.58,1002.35 487.08,1002.19 479.5,1003C 478.833,1003.33 478.167,1003.67 477.5,1004C 478.833,1004.33 480.167,1004.67 481.5,1005C 479.292,1005.19 477.292,1005.69 475.5,1006.5 Z"/></g>
<g><path style="opacity:0.977" fill="#060804" d="M 776.5,985.5 C 779.187,985.336 781.854,985.503 784.5,986C 778.699,986.274 773.032,987.274 767.5,989C 768.167,989.333 768.833,989.667 769.5,990C 779.051,990.636 788.385,990.469 797.5,989.5C 805.286,989.686 805.953,991.186 799.5,994C 787.978,994.219 776.478,994.719 765,995.5C 759.005,995.296 753.005,994.963 747,994.5C 743.293,996.244 739.46,997.91 735.5,999.5C 733.72,998.085 732.054,998.252 730.5,1000C 719.854,1000.98 709.188,1001.65 698.5,1002C 691.997,1005.16 684.997,1007.16 677.5,1008C 675.91,1009.05 674.41,1010.21 673,1011.5C 671.969,1009.58 670.469,1009.58 668.5,1011.5C 669.376,1012.25 670.376,1012.75 671.5,1013C 669.645,1013.42 667.811,1013.92 666,1014.5C 662.28,1014.61 658.447,1014.27 654.5,1013.5C 659.328,1010.26 664.661,1008.42 670.5,1008C 672.248,1004.74 674.915,1002.91 678.5,1002.5C 678.719,1001.32 678.386,1000.32 677.5,999.5C 675.271,1001.55 672.938,1001.89 670.5,1000.5C 675.452,997.675 680.786,995.509 686.5,994C 716.26,988.631 746.26,985.798 776.5,985.5 Z"/></g>
<g><path style="opacity:0.988" fill="#0f190b" d="M 467.5,994.5 C 468.167,995.167 468.833,995.833 469.5,996.5C 471.942,998.226 474.609,999.726 477.5,1001C 473.814,1001.56 470.147,1002.23 466.5,1003C 466.833,1003.33 467.167,1003.67 467.5,1004C 466.167,1004.67 464.833,1005.33 463.5,1006C 462.179,1013.87 460.679,1022.03 459,1030.5C 458.586,1030.96 458.086,1031.29 457.5,1031.5C 456.877,1029.03 456.043,1026.7 455,1024.5C 454.276,1029.52 453.442,1034.52 452.5,1039.5C 451.416,1038.33 450.583,1037 450,1035.5C 449.058,1038.37 447.891,1041.04 446.5,1043.5C 443.749,1034.16 443.915,1024.82 447,1015.5C 449.602,1011.29 451.936,1006.96 454,1002.5C 457.813,998.677 462.313,996.01 467.5,994.5 Z"/></g>
<g><path style="opacity:0.882" fill="#060a04" d="M 1173.5,1005.5 C 1173.39,1006.12 1173.06,1006.62 1172.5,1007C 1173.89,1008.17 1174.73,1009.67 1175,1011.5C 1175.67,1010.17 1176.33,1010.17 1177,1011.5C 1177.96,1010.42 1178.79,1009.25 1179.5,1008C 1177.22,1006.92 1176.88,1005.42 1178.5,1003.5C 1182.65,1014.8 1188.15,1025.46 1195,1035.5C 1203.67,1045.5 1212.33,1055.5 1221,1065.5C 1223.82,1072.73 1221.32,1077.23 1213.5,1079C 1211.09,1079.48 1208.75,1079.15 1206.5,1078C 1185.13,1065.15 1163.13,1053.65 1140.5,1043.5C 1141.49,1041.15 1140.49,1040.15 1137.5,1040.5C 1137.64,1038.74 1137.31,1037.07 1136.5,1035.5C 1137.17,1035.17 1137.83,1034.83 1138.5,1034.5C 1137.68,1033.61 1136.68,1033.28 1135.5,1033.5C 1134.6,1029.42 1132.6,1025.92 1129.5,1023C 1130.09,1022.54 1130.76,1022.37 1131.5,1022.5C 1134.17,1024.18 1136.17,1026.51 1137.5,1029.5C 1142.16,1031.89 1146.66,1034.55 1151,1037.5C 1151.33,1037.17 1151.67,1036.83 1152,1036.5C 1158.49,1040.93 1164.99,1044.77 1171.5,1048C 1170.17,1048.67 1170.17,1049.33 1171.5,1050C 1175.23,1051.05 1178.56,1052.72 1181.5,1055C 1182.04,1057.11 1183.04,1057.61 1184.5,1056.5C 1186.72,1057.57 1189.05,1058.24 1191.5,1058.5C 1193.85,1058.71 1195.52,1059.87 1196.5,1062C 1199.41,1063.32 1202.41,1063.65 1205.5,1063C 1203.92,1061.86 1202.26,1061.36 1200.5,1061.5C 1199.53,1059.6 1199.2,1057.6 1199.5,1055.5C 1197.34,1055.17 1195.51,1054.17 1194,1052.5C 1190.82,1047.47 1187.15,1042.8 1183,1038.5C 1180.55,1033.81 1178.88,1028.81 1178,1023.5C 1175.71,1022.21 1173.71,1020.54 1172,1018.5C 1171.26,1014.92 1169.76,1011.75 1167.5,1009C 1168.69,1007.19 1168.69,1005.36 1167.5,1003.5C 1167.67,1002.83 1167.83,1002.17 1168,1001.5C 1169.65,1003.21 1171.48,1004.54 1173.5,1005.5 Z"/></g>
<g><path style="opacity:1" fill="#070b04" d="M 523.5,1060.5 C 516.251,1061.97 509.251,1064.14 502.5,1067C 488.941,1070.58 475.608,1069.91 462.5,1065C 460.382,1063.95 458.716,1062.45 457.5,1060.5C 465.731,1061.75 474.064,1063.41 482.5,1065.5C 489.506,1064.59 496.673,1063.25 504,1061.5C 504.333,1061.83 504.667,1062.17 505,1062.5C 509.682,1059.91 514.515,1057.41 519.5,1055C 516.287,1052.58 513.287,1049.91 510.5,1047C 510.833,1046.67 511.167,1046.33 511.5,1046C 508.833,1044.33 508.833,1042.67 511.5,1041C 510.5,1040.5 509.5,1040 508.5,1039.5C 505.768,1041.55 502.768,1042.38 499.5,1042C 501.311,1040.96 501.645,1039.79 500.5,1038.5C 511.507,1031.55 513.674,1022.22 507,1010.5C 504.932,1008.44 502.432,1007.27 499.5,1007C 491.507,1006.5 483.507,1006.33 475.5,1006.5C 477.292,1005.69 479.292,1005.19 481.5,1005C 480.167,1004.67 478.833,1004.33 477.5,1004C 478.167,1003.67 478.833,1003.33 479.5,1003C 487.08,1002.19 494.58,1002.35 502,1003.5C 504.914,1001.37 505.747,998.704 504.5,995.5C 492.812,993.248 481.145,993.581 469.5,996.5C 468.833,995.833 468.167,995.167 467.5,994.5C 473.781,991.591 480.447,989.591 487.5,988.5C 490.596,989.093 492.929,988.093 494.5,985.5C 490.589,976.642 491.923,976.142 498.5,984C 498.5,986.333 498.5,988.667 498.5,991C 501.125,991.723 502.792,990.723 503.5,988C 500.054,982.553 496.221,977.386 492,972.5C 484.375,965.509 476.708,958.509 469,951.5C 468.51,950.207 468.343,948.873 468.5,947.5C 471.692,948.513 474.526,950.18 477,952.5C 477.718,951.549 478.551,951.383 479.5,952C 478.167,953.84 478.334,954.34 480,953.5C 482.54,955.705 484.707,958.205 486.5,961C 488.596,962.766 490.929,964.099 493.5,965C 494.337,966.011 494.67,967.178 494.5,968.5C 495.93,968.421 497.264,968.754 498.5,969.5C 503,973.407 507,977.74 510.5,982.5C 512.916,986.818 514.416,991.485 515,996.5C 516.667,997.833 518.333,999.167 520,1000.5C 522.23,1006.82 524.396,1013.15 526.5,1019.5C 528.347,1020.83 529.847,1020.5 531,1018.5C 532.333,1018.5 533.667,1018.5 535,1018.5C 540.75,1019.21 545.75,1021.54 550,1025.5C 550.617,1026.45 550.451,1027.28 549.5,1028C 553.459,1027.79 555.126,1029.62 554.5,1033.5C 555.552,1033.65 556.552,1033.48 557.5,1033C 563.133,1026.45 565.966,1027.62 566,1036.5C 563.982,1039.43 561.816,1042.26 559.5,1045C 556.833,1045.17 554.167,1045.33 551.5,1045.5C 542.961,1043.55 534.461,1042.22 526,1041.5C 524.272,1041.45 522.772,1041.95 521.5,1043C 523.345,1044.13 525.345,1044.63 527.5,1044.5C 527.5,1046.17 527.5,1047.83 527.5,1049.5C 531.958,1050.33 536.291,1051.66 540.5,1053.5C 537.29,1055.61 533.957,1055.61 530.5,1053.5C 527.713,1055.23 524.713,1056.39 521.5,1057C 524.047,1057.66 526.547,1057.49 529,1056.5C 530.059,1056.63 530.892,1057.13 531.5,1058C 528.749,1058.94 526.083,1059.78 523.5,1060.5 Z"/></g>
<g><path style="opacity:0.986" fill="#161d11" d="M 495.5,1041.5 C 498.375,1043.9 501.709,1045.56 505.5,1046.5C 507.27,1047.82 507.603,1049.32 506.5,1051C 494.899,1053.81 483.232,1054.14 471.5,1052C 464.612,1047.99 464.946,1046.82 472.5,1048.5C 472.833,1048.17 473.167,1047.83 473.5,1047.5C 471.054,1046.57 470.221,1044.91 471,1042.5C 471.671,1043.25 472.504,1043.59 473.5,1043.5C 476.136,1043.96 478.803,1044.3 481.5,1044.5C 486.263,1043.91 490.93,1042.91 495.5,1041.5 Z"/></g>
<g><path style="opacity:0.705" fill="#101212" d="M 1091.5,1038.5 C 1092.87,1038.79 1094.21,1039.13 1095.5,1039.5C 1094.05,1041.26 1094.38,1042.6 1096.5,1043.5C 1092.1,1048.14 1089.43,1053.64 1088.5,1060C 1090.17,1065.85 1092,1071.68 1094,1077.5C 1095.07,1083.97 1095.91,1090.47 1096.5,1097C 1096.02,1101.09 1095.02,1104.92 1093.5,1108.5C 1092.59,1110.75 1091.26,1112.75 1089.5,1114.5C 1091.01,1110.62 1092.35,1106.62 1093.5,1102.5C 1091.12,1097.75 1088.79,1093.08 1086.5,1088.5C 1082.65,1088.3 1081.65,1086.47 1083.5,1083C 1085.11,1082.28 1086.61,1082.45 1088,1083.5C 1089.08,1079.77 1089.25,1076.1 1088.5,1072.5C 1086.13,1071.71 1083.79,1070.71 1081.5,1069.5C 1078.55,1073.06 1075.71,1072.72 1073,1068.5C 1071.54,1065.27 1071.04,1062.11 1071.5,1059C 1072.61,1055.95 1073.28,1052.78 1073.5,1049.5C 1075.5,1049.5 1077.5,1049.5 1079.5,1049.5C 1079.49,1047.69 1079.99,1046.02 1081,1044.5C 1081.33,1045.17 1081.67,1045.83 1082,1046.5C 1082.67,1045.17 1083.33,1043.83 1084,1042.5C 1084.33,1043.5 1084.67,1044.5 1085,1045.5C 1085.9,1044.23 1087.07,1043.23 1088.5,1042.5C 1088.14,1041.82 1087.8,1041.15 1087.5,1040.5C 1088.5,1040.41 1089.33,1040.75 1090,1041.5C 1091.16,1040.5 1091.66,1039.5 1091.5,1038.5 Z"/></g>
<g><path style="opacity:0.97" fill="#090906" d="M 1131.5,1022.5 C 1130.76,1022.37 1130.09,1022.54 1129.5,1023C 1132.6,1025.92 1134.6,1029.42 1135.5,1033.5C 1136.68,1033.28 1137.68,1033.61 1138.5,1034.5C 1137.83,1034.83 1137.17,1035.17 1136.5,1035.5C 1137.31,1037.07 1137.64,1038.74 1137.5,1040.5C 1140.49,1040.15 1141.49,1041.15 1140.5,1043.5C 1138.26,1043.79 1136.26,1043.46 1134.5,1042.5C 1136.84,1040.85 1136.34,1039.51 1133,1038.5C 1133.45,1035.39 1133.45,1032.39 1133,1029.5C 1127.47,1026.96 1123.63,1022.79 1121.5,1017C 1118.66,1016.08 1116,1014.91 1113.5,1013.5C 1104.16,1005.71 1095.16,997.378 1086.5,988.5C 1086.06,986.926 1085.06,985.759 1083.5,985C 1078.36,983.554 1073.69,981.221 1069.5,978C 1052.47,972.908 1046.63,978.741 1052,995.5C 1056.07,1001.44 1060.4,1007.11 1065,1012.5C 1070.84,1018.18 1077,1023.51 1083.5,1028.5C 1084.65,1031.28 1085.98,1033.95 1087.5,1036.5C 1087.21,1038.02 1087.21,1039.36 1087.5,1040.5C 1087.8,1041.15 1088.14,1041.82 1088.5,1042.5C 1087.07,1043.23 1085.9,1044.23 1085,1045.5C 1084.67,1044.5 1084.33,1043.5 1084,1042.5C 1083.33,1043.83 1082.67,1045.17 1082,1046.5C 1081.67,1045.83 1081.33,1045.17 1081,1044.5C 1079.99,1046.02 1079.49,1047.69 1079.5,1049.5C 1077.5,1049.5 1075.5,1049.5 1073.5,1049.5C 1073.28,1052.78 1072.61,1055.95 1071.5,1059C 1071.04,1062.11 1071.54,1065.27 1073,1068.5C 1075.71,1072.72 1078.55,1073.06 1081.5,1069.5C 1083.79,1070.71 1086.13,1071.71 1088.5,1072.5C 1089.25,1076.1 1089.08,1079.77 1088,1083.5C 1086.61,1082.45 1085.11,1082.28 1083.5,1083C 1081.65,1086.47 1082.65,1088.3 1086.5,1088.5C 1088.79,1093.08 1091.12,1097.75 1093.5,1102.5C 1092.35,1106.62 1091.01,1110.62 1089.5,1114.5C 1088.74,1118.35 1088.57,1122.02 1089,1125.5C 1088.67,1125.83 1088.33,1126.17 1088,1126.5C 1087.67,1123.83 1087.33,1121.17 1087,1118.5C 1086.67,1119.17 1086.33,1119.83 1086,1120.5C 1085.42,1119 1084.58,1117.67 1083.5,1116.5C 1081.03,1118.1 1081.03,1119.6 1083.5,1121C 1081.49,1124.71 1080.66,1128.54 1081,1132.5C 1079.33,1133.83 1077.67,1135.17 1076,1136.5C 1074.81,1139.88 1072.98,1142.88 1070.5,1145.5C 1062.51,1150.92 1055.68,1157.59 1050,1165.5C 1049.02,1169.46 1047.02,1172.8 1044,1175.5C 1044.1,1172.89 1044.43,1170.22 1045,1167.5C 1048.15,1164.35 1050.49,1160.68 1052,1156.5C 1055.13,1152.99 1058.79,1150.32 1063,1148.5C 1063.45,1146.46 1064.29,1144.63 1065.5,1143C 1064.22,1140.15 1064.22,1137.32 1065.5,1134.5C 1068.52,1132.99 1071.52,1131.49 1074.5,1130C 1075.17,1129 1075.83,1128 1076.5,1127C 1075.79,1125.57 1075.62,1124.07 1076,1122.5C 1073.47,1120.3 1071.3,1117.8 1069.5,1115C 1070.08,1112.08 1070.92,1109.25 1072,1106.5C 1075.43,1105.2 1078.93,1104.04 1082.5,1103C 1079.36,1096.7 1076.36,1090.03 1073.5,1083C 1074.83,1081.34 1075.83,1079.51 1076.5,1077.5C 1075.17,1075.5 1073.5,1073.83 1071.5,1072.5C 1070.05,1070.04 1069.39,1067.38 1069.5,1064.5C 1069.99,1057.42 1070.99,1050.42 1072.5,1043.5C 1074.31,1040.96 1075.98,1038.46 1077.5,1036C 1078.3,1034.21 1078.63,1032.55 1078.5,1031C 1076.45,1029.32 1074.29,1027.82 1072,1026.5C 1066.36,1018.9 1060.03,1011.9 1053,1005.5C 1049.62,999.084 1047.12,992.418 1045.5,985.5C 1044.86,979.607 1047.19,975.441 1052.5,973C 1058.43,972.765 1064.26,971.931 1070,970.5C 1071.88,971.619 1072.71,973.286 1072.5,975.5C 1074.96,975.699 1077.29,976.365 1079.5,977.5C 1085.17,982.323 1091.51,986.157 1098.5,989C 1102.39,995.308 1107.72,999.975 1114.5,1003C 1116.53,1004.9 1118.2,1007.06 1119.5,1009.5C 1125.59,1011.92 1129.59,1016.25 1131.5,1022.5 Z"/></g>
<g><path style="opacity:0.075" fill="#30302c" d="M 1097.5,1034.5 C 1098.83,1034.5 1100.17,1034.5 1101.5,1034.5C 1102.35,1035.97 1103.68,1036.8 1105.5,1037C 1109.38,1037.73 1113.21,1037.56 1117,1036.5C 1118.55,1037.63 1119.72,1038.97 1120.5,1040.5C 1119.83,1040.5 1119.17,1040.5 1118.5,1040.5C 1110.88,1039.83 1103.55,1040.83 1096.5,1043.5C 1094.38,1042.6 1094.05,1041.26 1095.5,1039.5C 1096.93,1038.22 1097.6,1036.55 1097.5,1034.5 Z"/></g>
<g><path style="opacity:0.302" fill="#443e33" d="M 1119.5,1033.5 C 1119.37,1034.38 1119.7,1035.04 1120.5,1035.5C 1121.42,1034.87 1122.42,1034.54 1123.5,1034.5C 1125.18,1037.78 1124.18,1039.78 1120.5,1040.5C 1119.72,1038.97 1118.55,1037.63 1117,1036.5C 1113.21,1037.56 1109.38,1037.73 1105.5,1037C 1103.68,1036.8 1102.35,1035.97 1101.5,1034.5C 1101.17,1033.83 1100.83,1033.17 1100.5,1032.5C 1100.43,1032.06 1100.6,1031.73 1101,1031.5C 1103.48,1033.92 1106.48,1034.92 1110,1034.5C 1113.19,1034.26 1116.35,1033.92 1119.5,1033.5 Z"/></g>
<g><path style="opacity:0.637" fill="#1d1c11" d="M 1113.5,1013.5 C 1116,1014.91 1118.66,1016.08 1121.5,1017C 1123.63,1022.79 1127.47,1026.96 1133,1029.5C 1133.45,1032.39 1133.45,1035.39 1133,1038.5C 1136.34,1039.51 1136.84,1040.85 1134.5,1042.5C 1128.92,1042.75 1123.58,1042.08 1118.5,1040.5C 1119.17,1040.5 1119.83,1040.5 1120.5,1040.5C 1124.18,1039.78 1125.18,1037.78 1123.5,1034.5C 1125.33,1032.54 1125.83,1030.21 1125,1027.5C 1122.44,1024.94 1120.61,1021.94 1119.5,1018.5C 1118.09,1017.19 1116.42,1016.36 1114.5,1016C 1113.75,1015.33 1113.41,1014.5 1113.5,1013.5 Z"/></g>
<g><path style="opacity:0.559" fill="#554834" d="M 1096.5,1004.5 C 1098.69,1004.7 1100.69,1005.37 1102.5,1006.5C 1108.65,1013.52 1114.65,1020.52 1120.5,1027.5C 1120.83,1028.17 1121.17,1028.83 1121.5,1029.5C 1120.77,1030.87 1120.11,1032.2 1119.5,1033.5C 1116.35,1033.92 1113.19,1034.26 1110,1034.5C 1106.48,1034.92 1103.48,1033.92 1101,1031.5C 1100.6,1031.73 1100.43,1032.06 1100.5,1032.5C 1098.62,1031.62 1097.28,1030.12 1096.5,1028C 1090.18,1024.86 1084.84,1020.36 1080.5,1014.5C 1081.61,1014.56 1082.61,1014.89 1083.5,1015.5C 1085.43,1015.73 1087.1,1016.56 1088.5,1018C 1090.6,1020.85 1092.93,1023.52 1095.5,1026C 1098.73,1027.23 1101.4,1029.23 1103.5,1032C 1114.53,1034.82 1117.53,1031.32 1112.5,1021.5C 1107.86,1015.26 1102.53,1009.59 1096.5,1004.5 Z"/></g>
<g><path style="opacity:0.839" fill="#352a1a" d="M 1066.5,1001.5 C 1071.75,1005.08 1076.41,1009.41 1080.5,1014.5C 1084.84,1020.36 1090.18,1024.86 1096.5,1028C 1097.28,1030.12 1098.62,1031.62 1100.5,1032.5C 1100.83,1033.17 1101.17,1033.83 1101.5,1034.5C 1100.17,1034.5 1098.83,1034.5 1097.5,1034.5C 1093.4,1034.57 1090.9,1032.57 1090,1028.5C 1083.85,1023.41 1077.85,1018.08 1072,1012.5C 1070.61,1008.49 1068.77,1004.82 1066.5,1001.5 Z"/></g>
<g><path style="opacity:0.808" fill="#3b301e" d="M 1102.5,1006.5 C 1104.8,1007.83 1106.8,1009.67 1108.5,1012C 1110.15,1012.61 1111.82,1013.11 1113.5,1013.5C 1113.41,1014.5 1113.75,1015.33 1114.5,1016C 1116.42,1016.36 1118.09,1017.19 1119.5,1018.5C 1120.61,1021.94 1122.44,1024.94 1125,1027.5C 1125.83,1030.21 1125.33,1032.54 1123.5,1034.5C 1122.42,1034.54 1121.42,1034.87 1120.5,1035.5C 1119.7,1035.04 1119.37,1034.38 1119.5,1033.5C 1120.11,1032.2 1120.77,1030.87 1121.5,1029.5C 1121.17,1028.83 1120.83,1028.17 1120.5,1027.5C 1114.65,1020.52 1108.65,1013.52 1102.5,1006.5 Z"/></g>
<g><path style="opacity:1" fill="#18120d" d="M 1086.5,988.5 C 1084.71,988.785 1083.05,988.452 1081.5,987.5C 1073.22,980.92 1065.55,979.087 1058.5,982C 1054.78,986.603 1054.61,991.436 1058,996.5C 1062.17,1000 1065.17,1004.34 1067,1009.5C 1074.95,1016.79 1081.95,1024.79 1088,1033.5C 1088.67,1034.17 1089.33,1034.83 1090,1035.5C 1090.89,1034.29 1091.73,1034.29 1092.5,1035.5C 1091.87,1036.42 1091.54,1037.42 1091.5,1038.5C 1091.66,1039.5 1091.16,1040.5 1090,1041.5C 1089.33,1040.75 1088.5,1040.41 1087.5,1040.5C 1087.21,1039.36 1087.21,1038.02 1087.5,1036.5C 1085.98,1033.95 1084.65,1031.28 1083.5,1028.5C 1077,1023.51 1070.84,1018.18 1065,1012.5C 1060.4,1007.11 1056.07,1001.44 1052,995.5C 1046.63,978.741 1052.47,972.908 1069.5,978C 1073.69,981.221 1078.36,983.554 1083.5,985C 1085.06,985.759 1086.06,986.926 1086.5,988.5 Z"/></g>
<g><path style="opacity:1" fill="#4b3c2f" d="M 1096.5,1004.5 C 1093.77,1003.29 1091.44,1001.45 1089.5,999C 1085.52,997.034 1081.52,995.034 1077.5,993C 1074.49,992.699 1071.49,992.865 1068.5,993.5C 1068.25,996.32 1068.75,998.986 1070,1001.5C 1074.78,1006.11 1079.28,1010.78 1083.5,1015.5C 1082.61,1014.89 1081.61,1014.56 1080.5,1014.5C 1076.41,1009.41 1071.75,1005.08 1066.5,1001.5C 1061.69,998.148 1060.19,993.481 1062,987.5C 1063.85,986.439 1065.85,985.773 1068,985.5C 1075.87,988.528 1083.21,992.528 1090,997.5C 1092.35,999.682 1094.52,1002.02 1096.5,1004.5 Z"/></g>
<g><path style="opacity:1" fill="#65533e" d="M 1096.5,1004.5 C 1102.53,1009.59 1107.86,1015.26 1112.5,1021.5C 1117.53,1031.32 1114.53,1034.82 1103.5,1032C 1101.4,1029.23 1098.73,1027.23 1095.5,1026C 1092.93,1023.52 1090.6,1020.85 1088.5,1018C 1087.1,1016.56 1085.43,1015.73 1083.5,1015.5C 1079.28,1010.78 1074.78,1006.11 1070,1001.5C 1068.75,998.986 1068.25,996.32 1068.5,993.5C 1071.49,992.865 1074.49,992.699 1077.5,993C 1081.52,995.034 1085.52,997.034 1089.5,999C 1091.44,1001.45 1093.77,1003.29 1096.5,1004.5 Z"/></g>
<g><path style="opacity:1" fill="#7a6a50" d="M 1097.5,1007.5 C 1101.64,1010.61 1104.97,1014.44 1107.5,1019C 1109.08,1020.09 1110.74,1020.93 1112.5,1021.5C 1112.54,1024.88 1112.21,1028.21 1111.5,1031.5C 1108.15,1031.49 1105.15,1030.49 1102.5,1028.5C 1096.36,1024.7 1091.69,1019.7 1088.5,1013.5C 1091.97,1016.8 1095.64,1019.97 1099.5,1023C 1103.09,1025.15 1106.42,1024.82 1109.5,1022C 1105.36,1018.88 1101.52,1015.38 1098,1011.5C 1097.51,1010.21 1097.34,1008.87 1097.5,1007.5 Z"/></g>
<g><path style="opacity:1" fill="#8b745d" d="M 1097.5,1007.5 C 1097.34,1008.87 1097.51,1010.21 1098,1011.5C 1101.52,1015.38 1105.36,1018.88 1109.5,1022C 1106.42,1024.82 1103.09,1025.15 1099.5,1023C 1095.64,1019.97 1091.97,1016.8 1088.5,1013.5C 1086.14,1012.57 1083.97,1011.23 1082,1009.5C 1080.46,1006.43 1078.96,1003.43 1077.5,1000.5C 1081.9,1000.42 1086.23,1000.92 1090.5,1002C 1092.42,1004.43 1094.76,1006.26 1097.5,1007.5 Z"/></g>
<g><path style="opacity:1" fill="#2b2017" d="M 1086.5,988.5 C 1095.16,997.378 1104.16,1005.71 1113.5,1013.5C 1111.82,1013.11 1110.15,1012.61 1108.5,1012C 1106.8,1009.67 1104.8,1007.83 1102.5,1006.5C 1100.69,1005.37 1098.69,1004.7 1096.5,1004.5C 1094.52,1002.02 1092.35,999.682 1090,997.5C 1083.21,992.528 1075.87,988.528 1068,985.5C 1065.85,985.773 1063.85,986.439 1062,987.5C 1060.19,993.481 1061.69,998.148 1066.5,1001.5C 1068.77,1004.82 1070.61,1008.49 1072,1012.5C 1077.85,1018.08 1083.85,1023.41 1090,1028.5C 1090.9,1032.57 1093.4,1034.57 1097.5,1034.5C 1097.6,1036.55 1096.93,1038.22 1095.5,1039.5C 1094.21,1039.13 1092.87,1038.79 1091.5,1038.5C 1091.54,1037.42 1091.87,1036.42 1092.5,1035.5C 1091.73,1034.29 1090.89,1034.29 1090,1035.5C 1089.33,1034.83 1088.67,1034.17 1088,1033.5C 1081.95,1024.79 1074.95,1016.79 1067,1009.5C 1065.17,1004.34 1062.17,1000 1058,996.5C 1054.61,991.436 1054.78,986.603 1058.5,982C 1065.55,979.087 1073.22,980.92 1081.5,987.5C 1083.05,988.452 1084.71,988.785 1086.5,988.5 Z"/></g>
<g><path style="opacity:0.956" fill="#040902" d="M 184.5,1191.5 C 186.004,1189.16 188.004,1187.33 190.5,1186C 195.659,1183.59 200.659,1180.92 205.5,1178C 229.833,1169 253.833,1159.17 277.5,1148.5C 280.119,1148.77 282.619,1148.44 285,1147.5C 286.067,1148.19 287.234,1148.69 288.5,1149C 285.5,1149.33 282.5,1149.67 279.5,1150C 279.043,1150.41 278.709,1150.91 278.5,1151.5C 281.955,1151.97 285.288,1153.47 288.5,1156C 289.833,1156.67 289.833,1157.33 288.5,1158C 290.286,1158.2 291.619,1159.03 292.5,1160.5C 290.977,1164.23 289.811,1163.9 289,1159.5C 288.396,1161.69 287.23,1161.85 285.5,1160C 287.595,1159.44 287.762,1158.94 286,1158.5C 279.523,1160.42 273.023,1162.26 266.5,1164C 265.833,1166 264.5,1167.33 262.5,1168C 258.916,1169.07 255.25,1169.74 251.5,1170C 250.15,1171.72 248.983,1173.55 248,1175.5C 246.636,1174.74 245.469,1175.24 244.5,1177C 237.793,1177.79 231.626,1179.96 226,1183.5C 225.586,1183.04 225.086,1182.71 224.5,1182.5C 222.885,1183.15 221.218,1183.65 219.5,1184C 216.769,1187.73 213.103,1189.73 208.5,1190C 207.663,1191.01 207.33,1192.18 207.5,1193.5C 210.777,1193.22 213.943,1193.55 217,1194.5C 220.119,1192.34 223.286,1192.17 226.5,1194C 217.79,1196.68 208.957,1198.84 200,1200.5C 195.782,1200.01 191.782,1201.01 188,1203.5C 186.404,1200.74 186.571,1197.91 188.5,1195C 188.167,1194.67 187.833,1194.33 187.5,1194C 189.612,1193.09 190.445,1191.59 190,1189.5C 189.333,1192.17 188.667,1192.17 188,1189.5C 186.615,1190.55 185.615,1191.88 185,1193.5C 184.536,1192.91 184.369,1192.24 184.5,1191.5 Z"/></g>
<g><path style="opacity:0.933" fill="#060904" d="M 327.5,1197.5 C 331.258,1202.44 335.258,1207.27 339.5,1212C 345.5,1215.33 351.5,1218.67 357.5,1222C 367.538,1223.32 377.538,1224.82 387.5,1226.5C 386.828,1227.27 385.995,1227.93 385,1228.5C 383.612,1227.45 382.112,1227.28 380.5,1228C 381.253,1229.49 382.086,1229.65 383,1228.5C 383.483,1229.45 383.649,1230.45 383.5,1231.5C 388.589,1231.77 393.256,1233.27 397.5,1236C 393.91,1236.3 390.41,1235.8 387,1234.5C 380.52,1235.52 374.02,1235.69 367.5,1235C 361.128,1232.99 354.795,1230.66 348.5,1228C 347.125,1225.52 345.291,1224.69 343,1225.5C 335,1222.18 328.333,1217.18 323,1210.5C 320.73,1207.43 321.064,1204.76 324,1202.5C 325.333,1203.83 326.667,1205.17 328,1206.5C 328.167,1206.17 328.333,1205.83 328.5,1205.5C 327.167,1204.5 327.167,1203.5 328.5,1202.5C 327.752,1200.67 326.752,1199 325.5,1197.5C 325.97,1196.54 326.637,1196.54 327.5,1197.5 Z"/></g>
<g><path style="opacity:0.967" fill="#040803" d="M 456.5,1253.5 C 467.299,1255.08 477.965,1254.41 488.5,1251.5C 489.552,1251.35 490.552,1251.52 491.5,1252C 483.678,1253.73 476.011,1255.9 468.5,1258.5C 471.573,1259.41 474.907,1259.74 478.5,1259.5C 480.776,1258.79 483.109,1258.29 485.5,1258C 516.925,1247.12 546.591,1232.79 574.5,1215C 576.803,1211.65 579.636,1209.82 583,1209.5C 584.758,1208.53 585.258,1207.36 584.5,1206C 587.797,1203.7 590.797,1201.04 593.5,1198C 602.454,1190.37 611.954,1183.54 622,1177.5C 622.667,1178.5 622.667,1179.5 622,1180.5C 618.261,1184.81 613.761,1188.31 608.5,1191C 604.6,1194.81 600.934,1198.81 597.5,1203C 594.28,1204.27 591.947,1206.43 590.5,1209.5C 585.419,1212.06 580.419,1214.89 575.5,1218C 573.963,1219.11 573.297,1220.61 573.5,1222.5C 567.561,1222.88 563.227,1225.71 560.5,1231C 557.302,1231.85 554.469,1233.35 552,1235.5C 551.667,1235.17 551.333,1234.83 551,1234.5C 548.261,1237.12 545.427,1239.62 542.5,1242C 537.37,1241.88 532.703,1243.22 528.5,1246C 528.833,1246.33 529.167,1246.67 529.5,1247C 523.343,1248.44 517.677,1250.94 512.5,1254.5C 511.914,1254.29 511.414,1253.96 511,1253.5C 505.398,1256.72 499.565,1259.55 493.5,1262C 484.375,1262.39 475.709,1264.56 467.5,1268.5C 461.503,1265.59 455.67,1262.59 450,1259.5C 448.36,1255.48 449.36,1254.82 453,1257.5C 454.235,1256.38 455.402,1256.38 456.5,1257.5C 457.521,1257 457.688,1256.33 457,1255.5C 455.933,1254.81 454.766,1254.31 453.5,1254C 454.448,1253.52 455.448,1253.35 456.5,1253.5 Z"/></g>
<g><path style="opacity:0.994" fill="#060a05" d="M 904.5,1202.5 C 902.43,1204.96 900.596,1207.63 899,1210.5C 898.365,1212.64 898.699,1214.64 900,1216.5C 903.93,1220.15 907.764,1223.98 911.5,1228C 923.126,1233.8 933.126,1241.63 941.5,1251.5C 942.478,1251.02 943.311,1250.36 944,1249.5C 944.951,1238.07 946.451,1226.74 948.5,1215.5C 950.188,1220.76 951.021,1226.09 951,1231.5C 951.606,1228.45 953.106,1225.95 955.5,1224C 955.167,1223.67 954.833,1223.33 954.5,1223C 955.173,1220.14 956.007,1217.31 957,1214.5C 957.667,1213.17 958.333,1213.17 959,1214.5C 958.991,1230.16 958.491,1245.83 957.5,1261.5C 954.94,1260.57 954.274,1261.4 955.5,1264C 952.574,1264.69 951.241,1266.52 951.5,1269.5C 946.272,1269.42 940.938,1269.92 935.5,1271C 937.917,1272.63 940.417,1274.13 943,1275.5C 943.837,1273.99 945.004,1273.49 946.5,1274C 948.32,1277.16 950.987,1279.16 954.5,1280C 953.833,1280.67 953.167,1281.33 952.5,1282C 955.884,1283.93 958.718,1286.43 961,1289.5C 961.479,1292.62 962.646,1295.46 964.5,1298C 963.994,1300.69 962.827,1302.19 961,1302.5C 960.343,1310.52 960.51,1318.52 961.5,1326.5C 963.936,1326.32 966.103,1326.98 968,1328.5C 969.726,1327.42 971.559,1327.26 973.5,1328C 976.778,1328.92 979.945,1330.09 983,1331.5C 983.308,1330.69 983.808,1330.03 984.5,1329.5C 987.619,1332.74 991.453,1334.4 996,1334.5C 997.972,1333.69 999.472,1332.36 1000.5,1330.5C 1002.97,1328.75 1005.64,1327.92 1008.5,1328C 1004.54,1329.69 1001.21,1332.19 998.5,1335.5C 999.376,1336.25 1000.38,1336.75 1001.5,1337C 989.379,1337.99 977.879,1336.16 967,1331.5C 966.586,1331.96 966.086,1332.29 965.5,1332.5C 963.885,1331.85 962.218,1331.35 960.5,1331C 959.12,1329.68 958.786,1328.34 959.5,1327C 955.724,1324.02 953.224,1320.18 952,1315.5C 951.683,1317.3 951.016,1317.63 950,1316.5C 949.197,1308.12 949.364,1299.78 950.5,1291.5C 950.03,1290.54 949.363,1290.54 948.5,1291.5C 947.079,1288.24 944.746,1285.74 941.5,1284C 933.107,1280.05 924.773,1276.21 916.5,1272.5C 917.979,1271.85 919.479,1271.52 921,1271.5C 922.808,1273.84 924.974,1274.51 927.5,1273.5C 924.366,1271.86 921.533,1269.86 919,1267.5C 918.667,1267.83 918.333,1268.17 918,1268.5C 913.167,1266.84 909,1264.17 905.5,1260.5C 909.459,1259.34 913.459,1259.17 917.5,1260C 918.874,1263.41 919.541,1263.24 919.5,1259.5C 920.552,1259.65 921.552,1259.48 922.5,1259C 921.265,1256.02 919.432,1253.52 917,1251.5C 916.782,1248.57 916.282,1245.74 915.5,1243C 911.571,1241.97 907.571,1241.14 903.5,1240.5C 895.894,1237.2 888.56,1233.53 881.5,1229.5C 881.649,1228.45 881.483,1227.45 881,1226.5C 875.626,1223.44 872.459,1218.78 871.5,1212.5C 871.39,1210.63 872.056,1209.13 873.5,1208C 873.167,1207.67 872.833,1207.33 872.5,1207C 881.523,1201.82 890.857,1197.15 900.5,1193C 903.004,1189.16 906.504,1186.66 911,1185.5C 911.692,1186.03 912.192,1186.69 912.5,1187.5C 910.953,1189.19 909.12,1190.53 907,1191.5C 904.634,1190.06 904.134,1190.56 905.5,1193C 901.89,1194.94 898.557,1197.28 895.5,1200C 887.294,1201.43 880.627,1204.77 875.5,1210C 877.167,1212 878.833,1214 880.5,1216C 883.257,1216.58 885.923,1216.25 888.5,1215C 886.027,1213.6 886.027,1212.1 888.5,1210.5C 893.26,1208.3 897.594,1205.47 901.5,1202C 902.749,1201.26 903.749,1201.43 904.5,1202.5 Z"/></g>
<g><path style="opacity:0.814" fill="#070908" d="M 832.5,1254.5 C 838.871,1264.75 844.704,1275.41 850,1286.5C 858.471,1305.44 867.471,1324.11 877,1342.5C 878.545,1347.64 880.379,1352.64 882.5,1357.5C 884.484,1362.44 886.484,1367.44 888.5,1372.5C 888.167,1372.83 887.833,1373.17 887.5,1373.5C 886.543,1370.72 885.376,1368.05 884,1365.5C 881.563,1362.85 880.23,1363.52 880,1367.5C 879.64,1365.39 878.973,1363.39 878,1361.5C 876.176,1362.75 876.343,1363.92 878.5,1365C 877.283,1366.65 876.45,1368.48 876,1370.5C 875,1369.17 874,1367.83 873,1366.5C 867.324,1356.48 863.324,1345.81 861,1334.5C 859.245,1331.96 857.245,1329.62 855,1327.5C 854.333,1324.83 853.667,1322.17 853,1319.5C 850.155,1316.66 848.655,1313.49 848.5,1310C 843.603,1300.39 839.103,1290.56 835,1280.5C 827.713,1273.89 823.047,1265.89 821,1256.5C 813.818,1248.98 812.651,1240.65 817.5,1231.5C 819.144,1231.71 820.644,1231.38 822,1230.5C 822.5,1231 823,1231.5 823.5,1232C 820.63,1234.37 818.297,1237.21 816.5,1240.5C 818.111,1244.1 820.111,1247.43 822.5,1250.5C 824.861,1251.78 827.028,1251.44 829,1249.5C 829.697,1251.58 830.864,1253.25 832.5,1254.5 Z"/></g>
<g><path style="opacity:0.982" fill="#050a03" d="M 1050.5,1317.5 C 1066.28,1326.9 1082.28,1336.06 1098.5,1345C 1101.96,1347.39 1104.96,1350.22 1107.5,1353.5C 1107.7,1355.04 1108.37,1356.38 1109.5,1357.5C 1108.68,1358.39 1107.68,1358.72 1106.5,1358.5C 1106.33,1359.82 1106.66,1360.99 1107.5,1362C 1102.93,1362.92 1098.76,1362.09 1095,1359.5C 1094.59,1359.96 1094.09,1360.29 1093.5,1360.5C 1083.13,1355.58 1072.29,1350.58 1061,1345.5C 1060.67,1345.83 1060.33,1346.17 1060,1346.5C 1048.76,1341.04 1037.76,1335.04 1027,1328.5C 1023.51,1326.64 1023.68,1325.14 1027.5,1324C 1026.17,1323.67 1024.83,1323.33 1023.5,1323C 1026.37,1322.88 1029.04,1322.22 1031.5,1321C 1028.31,1317.14 1025.98,1312.81 1024.5,1308C 1024.83,1307.5 1025.17,1307 1025.5,1306.5C 1026.52,1307.69 1027.69,1308.69 1029,1309.5C 1030.07,1308.72 1031.24,1308.89 1032.5,1310C 1031.66,1311.01 1031.33,1312.18 1031.5,1313.5C 1035.03,1314.26 1038.36,1315.59 1041.5,1317.5C 1042.28,1316.27 1042.78,1314.94 1043,1313.5C 1045.16,1315.49 1047.66,1316.83 1050.5,1317.5 Z"/></g>
<g><path style="opacity:0.888" fill="#040901" d="M 650.5,1340.5 C 653.624,1333.92 657.957,1328.26 663.5,1323.5C 665.144,1323.29 666.644,1323.62 668,1324.5C 669.265,1321.54 670.431,1318.54 671.5,1315.5C 670.167,1312.17 670.167,1308.83 671.5,1305.5C 669.949,1301.37 667.949,1297.04 665.5,1292.5C 667.684,1291.89 669.684,1292.56 671.5,1294.5C 674.186,1299.74 676.186,1305.24 677.5,1311C 677.848,1313.51 677.181,1316.01 675.5,1318.5C 676.225,1322.92 675.058,1326.92 672,1330.5C 665.136,1336.18 659.636,1342.85 655.5,1350.5C 650.172,1352.42 649.172,1350.92 652.5,1346C 652.167,1345.67 651.833,1345.33 651.5,1345C 655.584,1341.68 655.25,1340.18 650.5,1340.5 Z"/></g>
</svg>
