<?xml version="1.0" encoding="UTF-8"?>
<!DOCTYPE svg PUBLIC "-//W3C//DTD SVG 1.1//EN" "http://www.w3.org/Graphics/SVG/1.1/DTD/svg11.dtd">
<svg xmlns="http://www.w3.org/2000/svg" version="1.1" width="500px" height="500px" style="shape-rendering:geometricPrecision; text-rendering:geometricPrecision; image-rendering:optimizeQuality; fill-rule:evenodd; clip-rule:evenodd" xmlns:xlink="http://www.w3.org/1999/xlink">
<g><path style="opacity:0.882" fill="#070d04" d="M 299.5,208.5 C 296.651,207.505 294.151,208.171 292,210.5C 291.586,210.043 291.086,209.709 290.5,209.5C 289.544,215.601 286.211,216.934 280.5,213.5C 279.917,211.452 279.917,209.619 280.5,208C 279.906,207.536 279.239,207.369 278.5,207.5C 283.84,196.636 289.006,185.636 294,174.5C 295.342,175.902 296.176,175.569 296.5,173.5C 296.547,171.962 295.88,170.962 294.5,170.5C 294.834,167.832 296.167,165.832 298.5,164.5C 299.086,164.709 299.586,165.043 300,165.5C 300.667,167.5 300.667,169.5 300,171.5C 295.076,184.614 289.576,197.447 283.5,210C 283.63,211.059 284.13,211.892 285,212.5C 289.149,208.196 292.816,203.53 296,198.5C 297.765,196.226 299.932,194.559 302.5,193.5C 304.947,193.901 305.947,195.401 305.5,198C 304.125,201.87 302.125,205.37 299.5,208.5 Z"/></g>
<g><path style="opacity:0.966" fill="#020201" d="M 319.5,243.5 C 319.414,242.504 319.748,241.671 320.5,241C 318.512,240.82 316.512,240.986 314.5,241.5C 314.059,236.742 311.392,233.909 306.5,233C 304.866,232.506 303.199,232.34 301.5,232.5C 299.5,232.5 297.5,232.5 295.5,232.5C 296.054,236.055 298.054,238.388 301.5,239.5C 303.972,240.642 304.972,242.642 304.5,245.5C 306.268,249.637 307.268,254.137 307.5,259C 307.333,261.5 307.167,264 307,266.5C 302.971,274.41 299.804,282.743 297.5,291.5C 297.729,298.239 300.729,303.406 306.5,307C 311.947,308.695 317.28,310.695 322.5,313C 325.153,315.576 324.486,317.076 320.5,317.5C 315.566,316.178 310.566,315.178 305.5,314.5C 302.029,316.399 298.363,318.065 294.5,319.5C 288.081,318.125 282.747,314.958 278.5,310C 267.12,303.874 255.12,299.541 242.5,297C 239.906,298.339 238.406,300.506 238,303.5C 237.785,315.862 237.118,328.195 236,340.5C 231.79,343.939 227.123,346.606 222,348.5C 208.36,344.845 195.193,346.011 182.5,352C 175.891,351.533 169.891,353.033 164.5,356.5C 163.005,356.585 162.005,355.919 161.5,354.5C 163.288,352.424 164.954,350.257 166.5,348C 166.129,346.397 165.795,344.897 165.5,343.5C 166.153,342.193 166.82,340.86 167.5,339.5C 154.417,338.189 142.75,341.689 132.5,350C 128.332,350.192 124.498,351.358 121,353.5C 120.127,353.265 119.293,352.931 118.5,352.5C 117.37,347.815 117.537,343.149 119,338.5C 123.562,336.15 128.395,334.483 133.5,333.5C 133.918,334.222 134.584,334.722 135.5,335C 143.325,335.922 149.658,333.255 154.5,327C 171.052,320.947 183.385,310.114 191.5,294.5C 191.132,292.513 190.466,291.513 189.5,291.5C 186.307,291.476 182.974,290.976 179.5,290C 175.135,285.542 169.801,283.208 163.5,283C 162.14,281.062 162.473,279.396 164.5,278C 169,274.915 173.667,272.082 178.5,269.5C 168.127,263.437 157.794,257.437 147.5,251.5C 145.567,249.727 144.234,247.561 143.5,245C 146.708,245.619 150.042,246.119 153.5,246.5C 153.452,249.292 154.785,251.125 157.5,252C 165.941,256.772 174.608,261.106 183.5,265C 186.232,265.413 188.899,266.08 191.5,267C 188.937,267.763 188.937,268.263 191.5,268.5C 193.197,268.101 194.863,267.601 196.5,267C 196.167,266.667 195.833,266.333 195.5,266C 196.76,264.887 197.927,264.72 199,265.5C 200.491,263.996 202.324,263.163 204.5,263C 204.167,262.667 203.833,262.333 203.5,262C 205.119,261.764 206.119,260.931 206.5,259.5C 213.23,256.893 220.23,254.727 227.5,253C 233.108,249.724 238.442,246.057 243.5,242C 233.324,241.384 223.157,241.551 213,242.5C 203.724,241.785 194.557,240.451 185.5,238.5C 184.4,241.741 182.233,243.741 179,244.5C 168.894,241.765 158.727,239.265 148.5,237C 141.508,236.5 134.508,236.334 127.5,236.5C 125.708,235.691 123.708,235.191 121.5,235C 123.291,234.585 124.624,233.585 125.5,232C 128.675,232.053 131.342,231.22 133.5,229.5C 139.467,228.802 145.467,228.302 151.5,228C 150.263,227.768 149.263,227.268 148.5,226.5C 148.047,225.542 147.381,224.708 146.5,224C 146.833,223.833 147.167,223.667 147.5,223.5C 150.73,223.287 154.064,223.787 157.5,225C 162.039,228.491 166.705,228.991 171.5,226.5C 173.01,227.728 174.51,227.728 176,226.5C 175.371,223.516 175.537,220.516 176.5,217.5C 184.69,214.342 193.19,212.676 202,212.5C 223.032,213.6 243.699,216.933 264,222.5C 265.459,222.192 266.626,221.525 267.5,220.5C 269.754,219.307 270.42,217.64 269.5,215.5C 273.781,214.216 276.781,211.549 278.5,207.5C 279.239,207.369 279.906,207.536 280.5,208C 279.917,209.619 279.917,211.452 280.5,213.5C 286.211,216.934 289.544,215.601 290.5,209.5C 291.086,209.709 291.586,210.043 292,210.5C 294.151,208.171 296.651,207.505 299.5,208.5C 305.752,207.419 310.085,203.919 312.5,198C 315.814,196.835 317.814,198.002 318.5,201.5C 315.844,212.231 317.677,222.231 324,231.5C 327.298,235.8 330.965,239.8 335,243.5C 335.483,244.448 335.649,245.448 335.5,246.5C 329.847,246.949 324.513,245.949 319.5,243.5 Z M 199.5,224.5 C 210.008,224.958 220.342,226.458 230.5,229C 216.167,231 201.833,231 187.5,229C 186.027,228.29 185.36,227.124 185.5,225.5C 190.363,225.819 195.03,225.486 199.5,224.5 Z M 275.5,278.5 C 276.649,278.791 277.316,279.624 277.5,281C 278.256,284.125 278.589,287.291 278.5,290.5C 275.111,288.95 272.444,286.45 270.5,283C 272.063,281.264 273.73,279.764 275.5,278.5 Z M 206.5,318.5 C 201.645,323.868 197.311,329.701 193.5,336C 189.974,337.337 186.308,337.837 182.5,337.5C 180.897,337.688 179.563,337.188 178.5,336C 179.453,334.045 180.787,332.378 182.5,331C 193.006,325.994 202.172,319.16 210,310.5C 210.667,311.5 210.667,312.5 210,313.5C 208.588,315.065 207.421,316.731 206.5,318.5 Z M 213.5,322.5 C 215.548,326.782 214.215,328.949 209.5,329C 211.058,326.948 212.392,324.781 213.5,322.5 Z"/></g>
<g><path style="opacity:0.596" fill="#0d1407" d="M 294.5,170.5 C 295.88,170.962 296.547,171.962 296.5,173.5C 296.176,175.569 295.342,175.902 294,174.5C 289.006,185.636 283.84,196.636 278.5,207.5C 276.781,211.549 273.781,214.216 269.5,215.5C 270.42,217.64 269.754,219.307 267.5,220.5C 266.793,218.866 265.627,217.532 264,216.5C 263.333,215.5 263.333,214.5 264,213.5C 267.635,211.514 271.302,209.514 275,207.5C 281.226,194.963 287.726,182.629 294.5,170.5 Z"/></g>
<g><path style="opacity:0.69" fill="#12190a" d="M 137.5,214.5 C 134.628,215.325 131.628,216.159 128.5,217C 128.167,217.333 127.833,217.667 127.5,218C 129.382,218.198 131.048,218.698 132.5,219.5C 126.158,219.065 119.825,218.898 113.5,219C 105.96,221.103 98.6268,223.77 91.5,227C 89.4213,227.808 87.4213,227.641 85.5,226.5C 94.3981,220.578 104.065,216.078 114.5,213C 122.227,212.687 129.893,213.187 137.5,214.5 Z"/></g>
<g><path style="opacity:0.76" fill="#0a0f05" d="M 137.5,214.5 C 148.576,219.029 159.91,223.029 171.5,226.5C 166.705,228.991 162.039,228.491 157.5,225C 154.064,223.787 150.73,223.287 147.5,223.5C 147.167,223.667 146.833,223.833 146.5,224C 147.381,224.708 148.047,225.542 148.5,226.5C 143.353,223.59 138.019,221.256 132.5,219.5C 131.048,218.698 129.382,218.198 127.5,218C 127.833,217.667 128.167,217.333 128.5,217C 131.628,216.159 134.628,215.325 137.5,214.5 Z"/></g>
<g><path style="opacity:1" fill="#392e24" d="M 301.5,232.5 C 301.5,232.833 301.5,233.167 301.5,233.5C 300.022,233.238 298.689,233.571 297.5,234.5C 298.857,236.186 300.19,237.852 301.5,239.5C 298.054,238.388 296.054,236.055 295.5,232.5C 297.5,232.5 299.5,232.5 301.5,232.5 Z"/></g>
<g><path style="opacity:0.992" fill="#111a07" d="M 133.5,229.5 C 131.342,231.22 128.675,232.053 125.5,232C 124.624,233.585 123.291,234.585 121.5,235C 123.708,235.191 125.708,235.691 127.5,236.5C 116.315,236.27 105.315,237.603 94.5,240.5C 93.1667,240.167 91.8333,239.833 90.5,239.5C 90.6667,239.167 90.8333,238.833 91,238.5C 104.404,232.057 118.571,229.057 133.5,229.5 Z"/></g>
<g><path style="opacity:1" fill="#635243" d="M 301.5,233.5 C 302.5,234.167 303.5,234.833 304.5,235.5C 303.325,235.281 302.325,235.614 301.5,236.5C 303.201,237.835 304.868,239.168 306.5,240.5C 304.883,239.962 303.216,239.629 301.5,239.5C 300.19,237.852 298.857,236.186 297.5,234.5C 298.689,233.571 300.022,233.238 301.5,233.5 Z"/></g>
<g><path style="opacity:1" fill="#1a150d" d="M 301.5,232.5 C 303.199,232.34 304.866,232.506 306.5,233C 311.392,233.909 314.059,236.742 314.5,241.5C 316.512,240.986 318.512,240.82 320.5,241C 319.748,241.671 319.414,242.504 319.5,243.5C 317.621,242.659 315.621,242.325 313.5,242.5C 312.92,240.251 311.587,238.585 309.5,237.5C 307.833,236.833 306.167,236.167 304.5,235.5C 303.5,234.833 302.5,234.167 301.5,233.5C 301.5,233.167 301.5,232.833 301.5,232.5 Z"/></g>
<g><path style="opacity:1" fill="#82725d" d="M 304.5,235.5 C 306.167,236.167 307.833,236.833 309.5,237.5C 309.5,238.5 309.5,239.5 309.5,240.5C 308.5,240.5 307.5,240.5 306.5,240.5C 304.868,239.168 303.201,237.835 301.5,236.5C 302.325,235.614 303.325,235.281 304.5,235.5 Z"/></g>
<g><path style="opacity:0.204" fill="#585239" d="M 309.5,237.5 C 311.587,238.585 312.92,240.251 313.5,242.5C 311.784,242.629 310.117,242.962 308.5,243.5C 307.449,242.778 306.782,241.778 306.5,240.5C 307.5,240.5 308.5,240.5 309.5,240.5C 309.5,239.5 309.5,238.5 309.5,237.5 Z"/></g>
<g><path style="opacity:0.216" fill="#332c1a" d="M 301.5,239.5 C 303.216,239.629 304.883,239.962 306.5,240.5C 306.782,241.778 307.449,242.778 308.5,243.5C 306.938,243.733 305.605,244.4 304.5,245.5C 304.972,242.642 303.972,240.642 301.5,239.5 Z"/></g>
<g><path style="opacity:0.945" fill="#0b1007" d="M 206.5,259.5 C 206.119,260.931 205.119,261.764 203.5,262C 203.833,262.333 204.167,262.667 204.5,263C 202.324,263.163 200.491,263.996 199,265.5C 197.927,264.72 196.76,264.887 195.5,266C 195.833,266.333 196.167,266.667 196.5,267C 194.863,267.601 193.197,268.101 191.5,268.5C 188.937,268.263 188.937,267.763 191.5,267C 188.899,266.08 186.232,265.413 183.5,265C 174.608,261.106 165.941,256.772 157.5,252C 154.785,251.125 153.452,249.292 153.5,246.5C 150.042,246.119 146.708,245.619 143.5,245C 144.234,247.561 145.567,249.727 147.5,251.5C 141.721,249.618 139.221,245.618 140,239.5C 140.414,239.043 140.914,238.709 141.5,238.5C 157.943,248.052 174.609,257.052 191.5,265.5C 196.524,263.494 201.524,261.494 206.5,259.5 Z"/></g>
<g><path style="opacity:0.834" fill="#070d03" d="M 133.5,333.5 C 141.575,333.249 148.242,330.082 153.5,324C 170.132,318.196 182.132,307.363 189.5,291.5C 190.466,291.513 191.132,292.513 191.5,294.5C 183.385,310.114 171.052,320.947 154.5,327C 149.658,333.255 143.325,335.922 135.5,335C 134.584,334.722 133.918,334.222 133.5,333.5 Z"/></g>
<g><path style="opacity:0.895" fill="#080f03" d="M 206.5,318.5 C 207.267,319.172 207.934,320.005 208.5,321C 203.616,325.613 200.449,331.113 199,337.5C 198.167,338.333 197.333,339.167 196.5,340C 192.167,340.667 187.833,340.667 183.5,340C 182.748,339.329 182.414,338.496 182.5,337.5C 186.308,337.837 189.974,337.337 193.5,336C 197.311,329.701 201.645,323.868 206.5,318.5 Z"/></g>
<g><path style="opacity:0.807" fill="#070e01" d="M 165.5,343.5 C 165.795,344.897 166.129,346.397 166.5,348C 164.954,350.257 163.288,352.424 161.5,354.5C 162.005,355.919 163.005,356.585 164.5,356.5C 162.443,360.262 160.11,360.762 157.5,358C 159.537,352.753 162.204,347.92 165.5,343.5 Z"/></g>
</svg>
