<?xml version="1.0" encoding="UTF-8"?>
<!DOCTYPE svg PUBLIC "-//W3C//DTD SVG 1.1//EN" "http://www.w3.org/Graphics/SVG/1.1/DTD/svg11.dtd">
<svg xmlns="http://www.w3.org/2000/svg" version="1.1" width="500px" height="500px" style="shape-rendering:geometricPrecision; text-rendering:geometricPrecision; image-rendering:optimizeQuality; fill-rule:evenodd; clip-rule:evenodd" xmlns:xlink="http://www.w3.org/1999/xlink">
<g><path style="opacity:1" fill="#080c04" d="M 294.5,212.5 C 293.603,213.598 292.77,213.598 292,212.5C 291.309,214.891 290.309,214.891 289,212.5C 285.952,216.751 281.785,218.751 276.5,218.5C 276.488,221.905 274.821,224.072 271.5,225C 268.574,225.218 265.74,225.718 263,226.5C 253.227,224.523 243.394,222.689 233.5,221C 233.167,220.667 232.833,220.333 232.5,220C 233.416,219.722 234.082,219.222 234.5,218.5C 241.879,219.344 249.212,220.511 256.5,222C 261.167,222.667 265.833,222.667 270.5,222C 272.213,220.075 273.547,217.908 274.5,215.5C 279.238,215.215 283.071,213.215 286,209.5C 290.371,201.746 294.371,193.746 298,185.5C 301.683,178.787 305.85,172.454 310.5,166.5C 311.946,167.171 312.612,168.338 312.5,170C 312.204,171.888 311.704,173.722 311,175.5C 305.482,187.866 299.982,200.199 294.5,212.5 Z"/></g>
<g><path style="opacity:0.959" fill="#020301" d="M 324.5,245.5 C 320.44,239.699 314.774,236.366 307.5,235.5C 306.833,235.833 306.167,236.167 305.5,236.5C 306.931,238.938 308.931,240.604 311.5,241.5C 311.821,243.048 312.821,243.715 314.5,243.5C 314.263,244.791 314.596,245.791 315.5,246.5C 312.766,249.077 312.932,251.411 316,253.5C 317.319,258.037 317.819,262.537 317.5,267C 313.452,273.734 310.286,280.901 308,288.5C 306.801,291.726 306.301,295.059 306.5,298.5C 317.933,295.3 323.433,299.633 323,311.5C 325.398,312.856 327.898,314.023 330.5,315C 332.781,316.851 332.781,318.518 330.5,320C 325.538,319.3 320.538,318.467 315.5,317.5C 312.205,317.295 309.205,318.128 306.5,320C 298.172,322.926 293.672,320.093 293,311.5C 279.863,307.623 266.697,303.623 253.5,299.5C 253.167,300 252.833,300.5 252.5,301C 257.112,311.726 259.279,322.892 259,334.5C 255.547,338.145 251.38,340.645 246.5,342C 235.336,342.635 224.336,344.301 213.5,347C 210.833,349 208.167,351 205.5,353C 201.229,351.731 197.229,352.397 193.5,355C 190.961,358.206 188.127,361.039 185,363.5C 183.72,363.387 182.887,362.72 182.5,361.5C 185.506,353.327 189.006,345.327 193,337.5C 195.069,336.736 197.236,336.236 199.5,336C 205.627,328.205 212.127,320.705 219,313.5C 219.722,311.339 219.055,309.672 217,308.5C 211.03,313.81 204.53,318.31 197.5,322C 194.741,322.977 192.741,322.144 191.5,319.5C 192.999,318.096 192.666,317.43 190.5,317.5C 183.457,319.09 176.791,321.59 170.5,325C 157.959,324.701 145.626,326.034 133.5,329C 131.208,330.29 129.208,331.957 127.5,334C 124.798,334.607 122.132,334.44 119.5,333.5C 117.618,334.531 115.618,335.365 113.5,336C 110.952,338.885 108.118,341.385 105,343.5C 103.115,343.138 102.281,341.971 102.5,340C 105.97,331.859 110.304,324.192 115.5,317C 118.957,316.556 122.29,317.056 125.5,318.5C 130.163,316.948 134.829,316.115 139.5,316C 148.9,310.31 158.9,305.977 169.5,303C 175.933,300.037 181.766,296.203 187,291.5C 186.851,287.984 185.017,285.484 181.5,284C 177.855,283.005 174.188,282.172 170.5,281.5C 170.33,280.178 170.663,279.011 171.5,278C 175.878,276.125 179.878,273.625 183.5,270.5C 173.199,264.681 162.865,258.847 152.5,253C 149.316,250.563 148.316,247.563 149.5,244C 150.833,243.333 152.167,243.333 153.5,244C 165.769,250.965 178.102,257.631 190.5,264C 192.909,264.935 195.409,265.435 198,265.5C 210.429,260.541 223.262,256.708 236.5,254C 243.701,249.9 250.368,245.067 256.5,239.5C 254.5,239.167 252.5,238.833 250.5,238.5C 226.982,242.197 203.482,242.197 180,238.5C 177.457,239.407 175.957,241.241 175.5,244C 174.667,244.167 173.833,244.333 173,244.5C 156.712,238.386 139.879,235.72 122.5,236.5C 119.359,235.679 116.025,235.179 112.5,235C 119.483,234.092 119.817,233.092 113.5,232C 114.056,231.617 114.389,231.117 114.5,230.5C 125.196,229.492 135.862,228.992 146.5,229C 139.654,224.403 132.321,221.236 124.5,219.5C 124.821,217.952 125.821,217.285 127.5,217.5C 127.5,216.167 127.5,214.833 127.5,213.5C 138.293,217.364 148.96,221.531 159.5,226C 162.793,226.826 166.126,227.326 169.5,227.5C 169.708,225.08 169.374,222.747 168.5,220.5C 168.919,219.328 169.585,218.328 170.5,217.5C 174.66,215.767 178.993,214.6 183.5,214C 200.923,212.388 217.923,213.888 234.5,218.5C 234.082,219.222 233.416,219.722 232.5,220C 232.833,220.333 233.167,220.667 233.5,221C 243.394,222.689 253.227,224.523 263,226.5C 265.74,225.718 268.574,225.218 271.5,225C 274.821,224.072 276.488,221.905 276.5,218.5C 281.785,218.751 285.952,216.751 289,212.5C 290.309,214.891 291.309,214.891 292,212.5C 292.77,213.598 293.603,213.598 294.5,212.5C 294.369,213.376 294.702,214.043 295.5,214.5C 296.5,214 297.5,213.5 298.5,213C 302.5,208 306.5,203 310.5,198C 313.304,197.029 315.304,197.862 316.5,200.5C 314.695,204.588 312.028,208.088 308.5,211C 314.244,210.276 318.577,207.276 321.5,202C 324.298,200.064 325.965,200.897 326.5,204.5C 324.38,212.377 325.214,220.043 329,227.5C 330.333,230.167 331.667,232.833 333,235.5C 337.263,240.103 341.763,244.27 346.5,248C 345.788,249.442 344.621,250.275 343,250.5C 336.923,248.371 330.756,246.704 324.5,245.5 Z M 193.5,223.5 C 204.382,224.147 215.048,225.98 225.5,229C 209.85,232.006 194.184,232.006 178.5,229C 177.663,227.989 177.33,226.822 177.5,225.5C 183.051,225.473 188.384,224.806 193.5,223.5 Z M 285.5,281.5 C 287.301,282.719 288.301,284.552 288.5,287C 288.167,287.5 287.833,288 287.5,288.5C 285.829,286.49 285.162,284.157 285.5,281.5 Z M 264.5,291.5 C 265.5,291.5 266.5,291.5 267.5,291.5C 267.435,294.998 266.101,295.498 263.5,293C 264.056,292.617 264.389,292.117 264.5,291.5 Z M 227.5,314.5 C 231.599,315.779 234.266,318.612 235.5,323C 228.394,327.058 221.394,331.392 214.5,336C 211.806,337.19 209.139,337.356 206.5,336.5C 209.13,335.038 211.63,333.371 214,331.5C 218.333,325.67 222.833,320.004 227.5,314.5 Z"/></g>
<g><path style="opacity:0.778" fill="#111a09" d="M 127.5,213.5 C 127.5,214.833 127.5,216.167 127.5,217.5C 125.821,217.285 124.821,217.952 124.5,219.5C 118.184,218.642 111.85,218.476 105.5,219C 101.385,220.223 97.718,222.223 94.5,225C 87.2119,227.487 79.8785,229.653 72.5,231.5C 72.33,230.178 72.6634,229.011 73.5,228C 83.7305,223.886 93.7305,219.219 103.5,214C 111.493,213.5 119.493,213.334 127.5,213.5 Z"/></g>
<g><path style="opacity:0.29" fill="#111a05" d="M 114.5,230.5 C 114.389,231.117 114.056,231.617 113.5,232C 119.817,233.092 119.483,234.092 112.5,235C 116.025,235.179 119.359,235.679 122.5,236.5C 110.244,235.712 98.2435,237.045 86.5,240.5C 85.2888,239.726 85.2888,238.893 86.5,238C 95.4518,234.021 104.785,231.521 114.5,230.5 Z"/></g>
<g><path style="opacity:0.875" fill="#4a4230" d="M 324.5,245.5 C 321.518,245.963 318.518,246.296 315.5,246.5C 314.596,245.791 314.263,244.791 314.5,243.5C 312.821,243.715 311.821,243.048 311.5,241.5C 308.931,240.604 306.931,238.938 305.5,236.5C 306.167,236.167 306.833,235.833 307.5,235.5C 314.774,236.366 320.44,239.699 324.5,245.5 Z"/></g>
<g><path style="opacity:1" fill="#776653" d="M 311.5,241.5 C 310.71,240.206 309.71,239.039 308.5,238C 309.167,237.833 309.833,237.667 310.5,237.5C 312.626,238.786 314.959,239.619 317.5,240C 319.872,241.471 319.872,242.637 317.5,243.5C 315.484,242.822 313.484,242.156 311.5,241.5 Z"/></g>
</svg>
