<?xml version="1.0" encoding="UTF-8"?>
<!DOCTYPE svg PUBLIC "-//W3C//DTD SVG 1.1//EN" "http://www.w3.org/Graphics/SVG/1.1/DTD/svg11.dtd">
<svg xmlns="http://www.w3.org/2000/svg" version="1.1" width="500px" height="500px" style="shape-rendering:geometricPrecision; text-rendering:geometricPrecision; image-rendering:optimizeQuality; fill-rule:evenodd; clip-rule:evenodd" xmlns:xlink="http://www.w3.org/1999/xlink">
<g><path style="opacity:0.947" fill="#020301" d="M 351.5,238.5 C 351.833,234.167 349.833,232.167 345.5,232.5C 344.198,230.972 342.531,229.972 340.5,229.5C 339.685,227.698 338.185,226.698 336,226.5C 334.5,226.667 333.667,227.5 333.5,229C 335.709,231.708 338.376,233.874 341.5,235.5C 342.167,235.5 342.833,235.5 343.5,235.5C 345.229,236.236 346.229,237.57 346.5,239.5C 342.702,241.736 342.536,244.402 346,247.5C 346.758,253.891 346.424,260.224 345,266.5C 342.114,271.826 339.614,277.326 337.5,283C 343.636,284.434 349.303,286.934 354.5,290.5C 360.89,287.078 366.057,288.411 370,294.5C 369.94,300.617 367.273,305.284 362,308.5C 361.882,312.077 360.049,313.744 356.5,313.5C 351.353,312.481 346.353,311.148 341.5,309.5C 335.9,314.247 329.9,315.08 323.5,312C 321.811,309.443 320.644,306.609 320,303.5C 319.097,302.299 317.931,301.465 316.5,301C 307.572,299.367 298.905,296.867 290.5,293.5C 290.167,293.833 289.833,294.167 289.5,294.5C 305.229,312.592 311.062,333.592 307,357.5C 308.466,362.232 310.133,366.898 312,371.5C 315.575,374.604 319.742,376.271 324.5,376.5C 324.67,377.822 324.337,378.989 323.5,380C 317.994,381.868 312.328,383.035 306.5,383.5C 303.869,383.679 301.535,383.013 299.5,381.5C 297.783,377.466 296.449,373.3 295.5,369C 297.141,365.655 297.641,362.155 297,358.5C 294.333,353.167 291.667,347.833 289,342.5C 287.585,336.088 285.918,329.755 284,323.5C 277.198,317.433 269.865,312.099 262,307.5C 256.5,314.5 251,321.5 245.5,328.5C 242.639,330.98 239.306,331.98 235.5,331.5C 235.657,330.127 235.49,328.793 235,327.5C 228.843,333.495 221.676,337.829 213.5,340.5C 206.354,336.757 199.688,332.257 193.5,327C 190.583,325.472 187.583,324.139 184.5,323C 172.919,317.733 162.919,319.733 154.5,329C 153.207,329.49 151.873,329.657 150.5,329.5C 150.749,325.386 152.249,321.72 155,318.5C 157.911,315.01 160.578,311.344 163,307.5C 164.389,305.773 166.056,304.439 168,303.5C 176.559,307.196 185.059,311.03 193.5,315C 200.74,315.179 207.74,316.179 214.5,318C 217.248,314.249 219.582,310.249 221.5,306C 220.991,304.831 220.158,303.998 219,303.5C 215.486,304.755 211.986,306.089 208.5,307.5C 206.616,306.307 206.116,304.641 207,302.5C 211.472,293.552 217.806,286.219 226,280.5C 228.874,277.247 231.374,273.747 233.5,270C 231.968,267.883 229.968,266.216 227.5,265C 212.577,257.537 197.91,249.537 183.5,241C 170.106,240.912 156.772,240.079 143.5,238.5C 141.079,238.56 138.746,238.893 136.5,239.5C 129.017,231.644 130.35,229.811 140.5,234C 139.5,234.333 138.5,234.667 137.5,235C 139.076,235.44 140.41,236.273 141.5,237.5C 141.109,236.282 141.776,235.448 143.5,235C 155.5,234.667 167.5,234.333 179.5,234C 180.99,232.228 182.657,232.061 184.5,233.5C 185.5,233 186.5,232.5 187.5,232C 184.964,231.814 182.631,231.314 180.5,230.5C 183.641,229.679 186.975,229.179 190.5,229C 182.634,226.593 174.634,224.76 166.5,223.5C 157.515,222.973 148.515,222.139 139.5,221C 140.759,220.077 142.092,219.243 143.5,218.5C 149.138,217.67 154.804,217.17 160.5,217C 162.315,216.243 163.981,215.41 165.5,214.5C 183.184,217.28 200.85,220.28 218.5,223.5C 227.15,223.087 235.484,221.254 243.5,218C 254.476,216.455 265.476,215.288 276.5,214.5C 281.651,215.327 286.984,215.827 292.5,216C 297.039,219.173 302.039,220.173 307.5,219C 308.833,218.333 308.833,217.667 307.5,217C 308.448,216.517 309.448,216.351 310.5,216.5C 310.607,214.097 309.607,212.264 307.5,211C 311.585,209.213 315.085,206.713 318,203.5C 318.483,204.448 318.649,205.448 318.5,206.5C 321.067,206.855 323.567,207.521 326,208.5C 329.585,206.914 332.585,204.581 335,201.5C 335.708,202.381 336.542,203.047 337.5,203.5C 337.56,204.043 337.893,204.376 338.5,204.5C 341.421,202.911 344.421,201.411 347.5,200C 348.65,197.538 349.983,195.204 351.5,193C 353.701,192.175 355.534,192.675 357,194.5C 357.121,198.322 356.287,201.989 354.5,205.5C 356.897,218.966 363.397,229.966 374,238.5C 374.49,239.793 374.657,241.127 374.5,242.5C 366.859,241.006 359.192,239.673 351.5,238.5 Z M 278.5,228.5 C 282.555,228.176 286.555,228.509 290.5,229.5C 290.023,230.478 289.357,231.311 288.5,232C 275.171,232.026 261.837,231.693 248.5,231C 258.516,229.858 268.516,229.024 278.5,228.5 Z M 213.5,236.5 C 231.97,240.664 250.636,243.997 269.5,246.5C 268.5,247.333 267.5,248.167 266.5,249C 260.239,250.919 253.905,252.586 247.5,254C 245.959,255.579 244.792,257.413 244,259.5C 242.806,260.43 241.473,261.097 240,261.5C 225.612,254.39 211.445,246.89 197.5,239C 203.081,238.85 208.414,238.017 213.5,236.5 Z M 308.5,278.5 C 310.038,281.849 311.871,285.182 314,288.5C 314.273,290.101 314.773,291.601 315.5,293C 309.021,291.781 303.021,289.281 297.5,285.5C 300.757,282.38 304.424,280.047 308.5,278.5 Z M 347.5,304.5 C 348.721,303.535 350.054,303.702 351.5,305C 350.072,305.579 348.738,305.412 347.5,304.5 Z"/></g>
<g><path style="opacity:0.825" fill="#0a0e05" d="M 337.5,203.5 C 336.542,203.047 335.708,202.381 335,201.5C 332.585,204.581 329.585,206.914 326,208.5C 323.567,207.521 321.067,206.855 318.5,206.5C 318.649,205.448 318.483,204.448 318,203.5C 315.085,206.713 311.585,209.213 307.5,211C 309.607,212.264 310.607,214.097 310.5,216.5C 309.448,216.351 308.448,216.517 307.5,217C 308.833,217.667 308.833,218.333 307.5,219C 302.039,220.173 297.039,219.173 292.5,216C 286.984,215.827 281.651,215.327 276.5,214.5C 286.186,214.635 295.852,214.802 305.5,215C 302.913,213.475 302.08,211.308 303,208.5C 306.44,206.054 310.107,204.054 314,202.5C 320.3,188.616 326.8,174.783 333.5,161C 335.986,157.559 337.986,157.892 339.5,162C 334.233,176.464 328.566,190.797 322.5,205C 322.85,206.257 323.517,206.591 324.5,206C 329.146,202.358 332.646,197.858 335,192.5C 336.389,190.773 338.056,189.439 340,188.5C 342.291,189.124 343.457,190.624 343.5,193C 342.147,196.873 340.147,200.373 337.5,203.5 Z"/></g>
<g><path style="opacity:0.96" fill="#131c0c" d="M 125.5,227.5 C 122.504,229.264 119.337,229.931 116,229.5C 112.749,228.018 109.415,226.684 106,225.5C 105.098,225.743 104.265,226.077 103.5,226.5C 98.5518,224.363 93.5518,222.196 88.5,220C 80.8887,218.522 73.222,218.188 65.5,219C 59.5,221.667 53.5,224.333 47.5,227C 45.0982,227.814 42.7649,227.647 40.5,226.5C 47.6098,222.443 54.9431,218.61 62.5,215C 73.2506,212.804 83.9173,213.138 94.5,216C 104.646,220.409 114.979,224.243 125.5,227.5 Z"/></g>
<g><path style="opacity:1" fill="#403128" d="M 340.5,229.5 C 339.325,229.281 338.325,229.614 337.5,230.5C 338.857,232.186 340.19,233.852 341.5,235.5C 338.376,233.874 335.709,231.708 333.5,229C 333.667,227.5 334.5,226.667 336,226.5C 338.185,226.698 339.685,227.698 340.5,229.5 Z"/></g>
<g><path style="opacity:0.625" fill="#141c09" d="M 106.5,229.5 C 106.119,230.931 105.119,231.764 103.5,232C 104.451,232.718 104.617,233.551 104,234.5C 101.168,233.214 98.3351,233.214 95.5,234.5C 84.5013,234.952 73.5013,235.452 62.5,236C 60.567,236.251 58.7337,236.751 57,237.5C 56.5439,236.256 57.0439,235.423 58.5,235C 71.5495,231.279 84.8829,229.113 98.5,228.5C 101.176,228.837 103.843,229.17 106.5,229.5 Z"/></g>
<g><path style="opacity:0.953" fill="#0a0f05" d="M 165.5,214.5 C 163.981,215.41 162.315,216.243 160.5,217C 154.804,217.17 149.138,217.67 143.5,218.5C 142.092,219.243 140.759,220.077 139.5,221C 148.515,222.139 157.515,222.973 166.5,223.5C 156.828,223.334 147.161,223.5 137.5,224C 136.167,225.667 136.167,227.333 137.5,229C 151.78,232.402 166.113,232.902 180.5,230.5C 182.631,231.314 184.964,231.814 187.5,232C 186.5,232.5 185.5,233 184.5,233.5C 182.657,232.061 180.99,232.228 179.5,234C 167.5,234.333 155.5,234.667 143.5,235C 141.776,235.448 141.109,236.282 141.5,237.5C 140.41,236.273 139.076,235.44 137.5,235C 138.5,234.667 139.5,234.333 140.5,234C 130.35,229.811 129.017,231.644 136.5,239.5C 136.315,241.89 134.982,242.89 132.5,242.5C 120.033,239.809 107.7,237.142 95.5,234.5C 98.3351,233.214 101.168,233.214 104,234.5C 104.617,233.551 104.451,232.718 103.5,232C 105.119,231.764 106.119,230.931 106.5,229.5C 106.938,229.565 107.272,229.399 107.5,229C 105.934,228.392 104.6,227.558 103.5,226.5C 104.265,226.077 105.098,225.743 106,225.5C 109.415,226.684 112.749,228.018 116,229.5C 119.337,229.931 122.504,229.264 125.5,227.5C 126.688,228.684 127.855,228.684 129,227.5C 129.252,225.069 128.752,222.735 127.5,220.5C 127.833,218.833 128.833,217.833 130.5,217.5C 142.025,215.007 153.691,214.007 165.5,214.5 Z"/></g>
<g><path style="opacity:1" fill="#796450" d="M 340.5,229.5 C 342.531,229.972 344.198,230.972 345.5,232.5C 349.281,234.651 348.614,235.651 343.5,235.5C 342.833,235.5 342.167,235.5 341.5,235.5C 340.19,233.852 338.857,232.186 337.5,230.5C 338.325,229.614 339.325,229.281 340.5,229.5 Z"/></g>
<g><path style="opacity:0.204" fill="#524934" d="M 345.5,232.5 C 349.833,232.167 351.833,234.167 351.5,238.5C 349.784,238.629 348.117,238.962 346.5,239.5C 346.229,237.57 345.229,236.236 343.5,235.5C 348.614,235.651 349.281,234.651 345.5,232.5 Z"/></g>
</svg>
