<?xml version="1.0" encoding="UTF-8"?>
<!DOCTYPE svg PUBLIC "-//W3C//DTD SVG 1.1//EN" "http://www.w3.org/Graphics/SVG/1.1/DTD/svg11.dtd">
<svg xmlns="http://www.w3.org/2000/svg" version="1.1" width="500px" height="500px" style="shape-rendering:geometricPrecision; text-rendering:geometricPrecision; image-rendering:optimizeQuality; fill-rule:evenodd; clip-rule:evenodd" xmlns:xlink="http://www.w3.org/1999/xlink">
<g><path style="opacity:0.954" fill="#020301" d="M 409.5,237.5 C 407.55,235.778 406.217,233.612 405.5,231C 402.389,230.556 399.723,229.223 397.5,227C 394.183,226.502 390.85,226.335 387.5,226.5C 388.778,231.619 391.778,235.452 396.5,238C 395.594,239.699 395.261,241.533 395.5,243.5C 396.791,243.737 397.791,243.404 398.5,242.5C 399.79,243.058 400.623,244.058 401,245.5C 402.999,251.338 403.999,257.005 404,262.5C 402.748,264.001 401.748,265.668 401,267.5C 400.757,272.937 399.924,278.271 398.5,283.5C 398.631,291.287 402.298,296.454 409.5,299C 414.833,299.333 420.167,299.667 425.5,300C 428.426,300.687 429.759,302.52 429.5,305.5C 422.492,305.334 415.492,305.5 408.5,306C 403.988,311.216 398.322,312.882 391.5,311C 390.35,308.538 389.017,306.204 387.5,304C 377.466,303.324 367.466,302.657 357.5,302C 363.784,309.108 364.95,316.942 361,325.5C 351.395,329.203 341.895,333.203 332.5,337.5C 327.932,340.9 324.265,345.066 321.5,350C 318.711,350.241 316.044,350.908 313.5,352C 309.116,355.998 305.616,360.498 303,365.5C 301.008,364.771 300.174,363.271 300.5,361C 301.893,352.182 304.226,343.682 307.5,335.5C 312.942,335.224 315.942,332.391 316.5,327C 316.231,325.393 315.397,324.226 314,323.5C 309.412,327.186 305.912,331.686 303.5,337C 300.558,338.124 297.558,338.458 294.5,338C 293.483,336.951 293.316,335.784 294,334.5C 297.667,329.5 301.333,324.5 305,319.5C 305.781,318.056 305.614,316.723 304.5,315.5C 293.166,321.113 281.166,324.28 268.5,325C 257.213,328.947 245.546,330.947 233.5,331C 227.488,333.168 221.488,335.335 215.5,337.5C 213.896,337.061 212.396,336.394 211,335.5C 207.764,336.743 204.597,338.076 201.5,339.5C 198.924,339.278 198.09,337.945 199,335.5C 202.934,332.114 205.767,328.447 207.5,324.5C 208.167,324.167 208.833,323.833 209.5,323.5C 214.189,326.004 219.189,327.171 224.5,327C 229.965,324.768 234.965,321.768 239.5,318C 255.595,313.416 270.928,307.082 285.5,299C 286.614,297.43 287.947,296.097 289.5,295C 288.244,294.583 287.577,293.75 287.5,292.5C 286.073,289.236 283.739,286.736 280.5,285C 273.545,282.845 266.545,280.845 259.5,279C 252.446,276.824 245.78,273.99 239.5,270.5C 240.598,269.603 240.598,268.77 239.5,268C 240,267.833 240.5,267.667 241,267.5C 250.547,271.179 260.38,273.845 270.5,275.5C 274.786,273.904 279.12,272.404 283.5,271C 283.167,270.667 282.833,270.333 282.5,270C 289.655,269.051 296.655,269.551 303.5,271.5C 303.5,270.5 303.5,269.5 303.5,268.5C 298.5,268.5 293.5,268.5 288.5,268.5C 295.655,267.671 302.989,267.171 310.5,267C 311.059,266.275 311.392,265.442 311.5,264.5C 310.563,259.362 309.23,254.362 307.5,249.5C 297.808,249.528 288.141,249.028 278.5,248C 262.174,245.812 246.007,242.979 230,239.5C 210.873,241.384 191.706,242.718 172.5,243.5C 156.086,243.014 139.752,241.681 123.5,239.5C 124.23,237.955 125.563,237.122 127.5,237C 143.5,236.333 143.5,235.667 127.5,235C 128.416,234.722 129.082,234.222 129.5,233.5C 152.872,236.391 176.205,236.058 199.5,232.5C 186.362,228.872 173.029,226.538 159.5,225.5C 159.063,223.926 158.063,222.759 156.5,222C 156.833,221.667 157.167,221.333 157.5,221C 161.311,221.083 164.645,220.25 167.5,218.5C 188.861,222.338 210.361,225.338 232,227.5C 253.202,224.593 274.369,221.426 295.5,218C 300.048,217.06 304.048,215.06 307.5,212C 313.226,211.603 318.893,212.103 324.5,213.5C 326.571,212.382 328.738,211.382 331,210.5C 332.677,211.163 334.51,211.163 336.5,210.5C 343.416,212.483 350.416,213.65 357.5,214C 356.09,213.632 355.09,212.799 354.5,211.5C 356.159,208.349 358.326,205.682 361,203.5C 364.416,189.079 368.083,174.746 372,160.5C 373.356,159.62 374.856,159.286 376.5,159.5C 377.127,164.426 376.96,169.426 376,174.5C 373.832,185.002 371.666,195.502 369.5,206C 369.68,208.241 370.513,208.741 372,207.5C 374.984,201.531 377.984,195.531 381,189.5C 384.744,186.48 386.911,187.48 387.5,192.5C 385.43,197.045 383.763,201.711 382.5,206.5C 389.116,205.422 395.449,203.255 401.5,200C 402.607,196.643 404.441,193.809 407,191.5C 408.512,192.257 409.846,193.257 411,194.5C 410.737,198.056 409.904,201.556 408.5,205C 410.581,211.994 413.081,218.827 416,225.5C 420.686,230.238 425.186,235.071 429.5,240C 428.541,241.464 427.208,242.297 425.5,242.5C 420.06,240.795 414.726,239.129 409.5,237.5 Z M 365.5,217.5 C 367.975,217.747 367.975,218.413 365.5,219.5C 364.537,219.03 364.537,218.363 365.5,217.5 Z M 374.5,221.5 C 375.649,221.791 376.316,222.624 376.5,224C 376.466,227.165 375.133,227.998 372.5,226.5C 373.456,224.925 374.123,223.258 374.5,221.5 Z M 272.5,232.5 C 281.5,232.5 290.5,232.5 299.5,232.5C 300.176,236.49 298.51,238.157 294.5,237.5C 286.465,236.938 278.465,236.271 270.5,235.5C 267.854,236.362 265.187,236.195 262.5,235C 266.038,234.465 269.372,233.632 272.5,232.5 Z M 318.5,235.5 C 320.035,234.212 321.701,234.212 323.5,235.5C 323.192,236.308 322.692,236.975 322,237.5C 320.887,236.695 319.721,236.028 318.5,235.5 Z M 324.5,251.5 C 326.607,250.532 328.941,250.198 331.5,250.5C 331.539,252.359 330.706,253.692 329,254.5C 327.385,253.614 325.885,252.614 324.5,251.5 Z M 382.5,294.5 C 380.871,293.375 379.371,292.041 378,290.5C 376.207,291.97 374.207,292.97 372,293.5C 367.664,293.099 363.498,292.266 359.5,291C 364.995,286.009 370.661,281.175 376.5,276.5C 380.582,281.759 382.582,287.759 382.5,294.5 Z M 336.5,315.5 C 338.028,315.517 338.528,316.184 338,317.5C 334.312,322.186 330.312,326.519 326,330.5C 325.878,328.831 326.212,327.165 327,325.5C 330.343,322.324 333.51,318.991 336.5,315.5 Z"/></g>
<g><path style="opacity:0.918" fill="#141c0c" d="M 167.5,218.5 C 164.645,220.25 161.311,221.083 157.5,221C 157.167,221.333 156.833,221.667 156.5,222C 158.063,222.759 159.063,223.926 159.5,225.5C 145.755,225.096 132.088,225.93 118.5,228C 115.597,228.781 113.597,229.948 112.5,231.5C 118.124,232.406 123.791,233.072 129.5,233.5C 129.082,234.222 128.416,234.722 127.5,235C 143.5,235.667 143.5,236.333 127.5,237C 125.563,237.122 124.23,237.955 123.5,239.5C 110.055,237.447 96.7213,234.78 83.5,231.5C 84.6808,229.933 86.3474,229.099 88.5,229C 87.3157,227.855 87.3157,226.688 88.5,225.5C 93.7499,226.615 99.0833,226.781 104.5,226C 125.211,219.696 146.211,217.196 167.5,218.5 Z"/></g>
<g><path style="opacity:1" fill="#221c14" d="M 409.5,237.5 C 408.833,237.5 408.167,237.5 407.5,237.5C 403.751,233.291 399.085,230.624 393.5,229.5C 393.167,229.833 392.833,230.167 392.5,230.5C 393.5,232.167 394.833,233.5 396.5,234.5C 397.028,236.336 397.694,238.003 398.5,239.5C 397.375,240.652 397.375,241.652 398.5,242.5C 397.791,243.404 396.791,243.737 395.5,243.5C 395.261,241.533 395.594,239.699 396.5,238C 391.778,235.452 388.778,231.619 387.5,226.5C 390.85,226.335 394.183,226.502 397.5,227C 399.723,229.223 402.389,230.556 405.5,231C 406.217,233.612 407.55,235.778 409.5,237.5 Z"/></g>
<g><path style="opacity:0.775" fill="#17220e" d="M 88.5,225.5 C 87.3157,226.688 87.3157,227.855 88.5,229C 86.3474,229.099 84.6808,229.933 83.5,231.5C 80.554,233.657 77.2207,235.157 73.5,236C 61.8022,236.921 50.1355,238.087 38.5,239.5C 34.8621,238.818 31.1954,238.318 27.5,238C 22.1381,235.826 22.4715,234.493 28.5,234C 44.4991,235.5 60.1658,233.834 75.5,229C 63.4871,224.046 50.9871,221.879 38,222.5C 35.2048,221.815 32.3715,221.315 29.5,221C 28.5494,220.282 28.3828,219.449 29,218.5C 40.81,217.6 52.6434,218.1 64.5,220C 72.3713,222.468 80.3713,224.301 88.5,225.5 Z"/></g>
<g><path style="opacity:0.035" fill="#6b654d" d="M 407.5,237.5 C 404.417,237.916 401.417,238.583 398.5,239.5C 397.694,238.003 397.028,236.336 396.5,234.5C 394.833,233.5 393.5,232.167 392.5,230.5C 392.833,230.167 393.167,229.833 393.5,229.5C 399.085,230.624 403.751,233.291 407.5,237.5 Z"/></g>
<g><path style="opacity:0.61" fill="#0d1108" d="M 288.5,268.5 C 293.5,268.5 298.5,268.5 303.5,268.5C 303.5,269.5 303.5,270.5 303.5,271.5C 296.655,269.551 289.655,269.051 282.5,270C 282.833,270.333 283.167,270.667 283.5,271C 279.12,272.404 274.786,273.904 270.5,275.5C 260.38,273.845 250.547,271.179 241,267.5C 240.5,267.667 240,267.833 239.5,268C 240.598,268.77 240.598,269.603 239.5,270.5C 237.376,268.941 235.709,266.941 234.5,264.5C 234.887,263.28 235.72,262.613 237,262.5C 246.419,266.051 256.086,268.717 266,270.5C 273.472,269.469 280.972,268.803 288.5,268.5 Z"/></g>
<g><path style="opacity:0.892" fill="#090f06" d="M 287.5,292.5 C 287.577,293.75 288.244,294.583 289.5,295C 287.947,296.097 286.614,297.43 285.5,299C 270.928,307.082 255.595,313.416 239.5,318C 234.965,321.768 229.965,324.768 224.5,327C 219.189,327.171 214.189,326.004 209.5,323.5C 208.833,323.833 208.167,324.167 207.5,324.5C 205.767,328.447 202.934,332.114 199,335.5C 198.09,337.945 198.924,339.278 201.5,339.5C 199.506,341.822 197.173,343.822 194.5,345.5C 192.616,344.307 192.116,342.641 193,340.5C 196.72,333.449 201.22,326.949 206.5,321C 207.609,320.362 208.775,319.862 210,319.5C 214.589,321.924 219.423,323.09 224.5,323C 230.854,320.16 236.854,316.826 242.5,313C 259.047,309.328 274.047,302.495 287.5,292.5 Z"/></g>
</svg>
